G04 #@! TF.GenerationSoftware,KiCad,Pcbnew,5.1.6-1.fc32*
G04 #@! TF.CreationDate,2020-06-02T17:43:18-04:00*
G04 #@! TF.ProjectId,binarydispattiny,62696e61-7279-4646-9973-70617474696e,0.3*
G04 #@! TF.SameCoordinates,Original*
G04 #@! TF.FileFunction,Copper,L1,Top*
G04 #@! TF.FilePolarity,Positive*
%FSLAX46Y46*%
G04 Gerber Fmt 4.6, Leading zero omitted, Abs format (unit mm)*
G04 Created by KiCad (PCBNEW 5.1.6-1.fc32) date 2020-06-02 17:43:18*
%MOMM*%
%LPD*%
G01*
G04 APERTURE LIST*
G04 #@! TA.AperFunction,ComponentPad*
%ADD10R,2.524000X1.524000*%
G04 #@! TD*
G04 #@! TA.AperFunction,ComponentPad*
%ADD11O,2.524000X1.524000*%
G04 #@! TD*
G04 #@! TA.AperFunction,ComponentPad*
%ADD12R,1.727200X1.727200*%
G04 #@! TD*
G04 #@! TA.AperFunction,ComponentPad*
%ADD13O,1.727200X1.727200*%
G04 #@! TD*
G04 #@! TA.AperFunction,ComponentPad*
%ADD14R,1.700000X1.700000*%
G04 #@! TD*
G04 #@! TA.AperFunction,ComponentPad*
%ADD15O,1.700000X1.700000*%
G04 #@! TD*
G04 #@! TA.AperFunction,SMDPad,CuDef*
%ADD16R,1.560000X0.650000*%
G04 #@! TD*
G04 #@! TA.AperFunction,SMDPad,CuDef*
%ADD17R,0.800000X0.500000*%
G04 #@! TD*
G04 #@! TA.AperFunction,SMDPad,CuDef*
%ADD18R,0.800000X0.400000*%
G04 #@! TD*
G04 #@! TA.AperFunction,SMDPad,CuDef*
%ADD19R,1.000000X1.000000*%
G04 #@! TD*
G04 #@! TA.AperFunction,ViaPad*
%ADD20C,0.800000*%
G04 #@! TD*
G04 #@! TA.AperFunction,Conductor*
%ADD21C,0.250000*%
G04 #@! TD*
G04 #@! TA.AperFunction,Conductor*
%ADD22C,0.254000*%
G04 #@! TD*
G04 APERTURE END LIST*
G04 #@! TA.AperFunction,SMDPad,CuDef*
G36*
G01*
X128539400Y-100748800D02*
X127289400Y-100748800D01*
G75*
G02*
X127039400Y-100498800I0J250000D01*
G01*
X127039400Y-99573800D01*
G75*
G02*
X127289400Y-99323800I250000J0D01*
G01*
X128539400Y-99323800D01*
G75*
G02*
X128789400Y-99573800I0J-250000D01*
G01*
X128789400Y-100498800D01*
G75*
G02*
X128539400Y-100748800I-250000J0D01*
G01*
G37*
G04 #@! TD.AperFunction*
G04 #@! TA.AperFunction,SMDPad,CuDef*
G36*
G01*
X128539400Y-103723800D02*
X127289400Y-103723800D01*
G75*
G02*
X127039400Y-103473800I0J250000D01*
G01*
X127039400Y-102548800D01*
G75*
G02*
X127289400Y-102298800I250000J0D01*
G01*
X128539400Y-102298800D01*
G75*
G02*
X128789400Y-102548800I0J-250000D01*
G01*
X128789400Y-103473800D01*
G75*
G02*
X128539400Y-103723800I-250000J0D01*
G01*
G37*
G04 #@! TD.AperFunction*
G04 #@! TA.AperFunction,SMDPad,CuDef*
G36*
G01*
X133702900Y-102324200D02*
X134952900Y-102324200D01*
G75*
G02*
X135202900Y-102574200I0J-250000D01*
G01*
X135202900Y-103499200D01*
G75*
G02*
X134952900Y-103749200I-250000J0D01*
G01*
X133702900Y-103749200D01*
G75*
G02*
X133452900Y-103499200I0J250000D01*
G01*
X133452900Y-102574200D01*
G75*
G02*
X133702900Y-102324200I250000J0D01*
G01*
G37*
G04 #@! TD.AperFunction*
G04 #@! TA.AperFunction,SMDPad,CuDef*
G36*
G01*
X133702900Y-99349200D02*
X134952900Y-99349200D01*
G75*
G02*
X135202900Y-99599200I0J-250000D01*
G01*
X135202900Y-100524200D01*
G75*
G02*
X134952900Y-100774200I-250000J0D01*
G01*
X133702900Y-100774200D01*
G75*
G02*
X133452900Y-100524200I0J250000D01*
G01*
X133452900Y-99599200D01*
G75*
G02*
X133702900Y-99349200I250000J0D01*
G01*
G37*
G04 #@! TD.AperFunction*
G04 #@! TA.AperFunction,SMDPad,CuDef*
G36*
G01*
X131562000Y-100761500D02*
X130312000Y-100761500D01*
G75*
G02*
X130062000Y-100511500I0J250000D01*
G01*
X130062000Y-99586500D01*
G75*
G02*
X130312000Y-99336500I250000J0D01*
G01*
X131562000Y-99336500D01*
G75*
G02*
X131812000Y-99586500I0J-250000D01*
G01*
X131812000Y-100511500D01*
G75*
G02*
X131562000Y-100761500I-250000J0D01*
G01*
G37*
G04 #@! TD.AperFunction*
G04 #@! TA.AperFunction,SMDPad,CuDef*
G36*
G01*
X131562000Y-103736500D02*
X130312000Y-103736500D01*
G75*
G02*
X130062000Y-103486500I0J250000D01*
G01*
X130062000Y-102561500D01*
G75*
G02*
X130312000Y-102311500I250000J0D01*
G01*
X131562000Y-102311500D01*
G75*
G02*
X131812000Y-102561500I0J-250000D01*
G01*
X131812000Y-103486500D01*
G75*
G02*
X131562000Y-103736500I-250000J0D01*
G01*
G37*
G04 #@! TD.AperFunction*
G04 #@! TA.AperFunction,SMDPad,CuDef*
G36*
G01*
X131229400Y-78768100D02*
X131229400Y-77518100D01*
G75*
G02*
X131479400Y-77268100I250000J0D01*
G01*
X132404400Y-77268100D01*
G75*
G02*
X132654400Y-77518100I0J-250000D01*
G01*
X132654400Y-78768100D01*
G75*
G02*
X132404400Y-79018100I-250000J0D01*
G01*
X131479400Y-79018100D01*
G75*
G02*
X131229400Y-78768100I0J250000D01*
G01*
G37*
G04 #@! TD.AperFunction*
G04 #@! TA.AperFunction,SMDPad,CuDef*
G36*
G01*
X128254400Y-78768100D02*
X128254400Y-77518100D01*
G75*
G02*
X128504400Y-77268100I250000J0D01*
G01*
X129429400Y-77268100D01*
G75*
G02*
X129679400Y-77518100I0J-250000D01*
G01*
X129679400Y-78768100D01*
G75*
G02*
X129429400Y-79018100I-250000J0D01*
G01*
X128504400Y-79018100D01*
G75*
G02*
X128254400Y-78768100I0J250000D01*
G01*
G37*
G04 #@! TD.AperFunction*
G04 #@! TA.AperFunction,SMDPad,CuDef*
G36*
G01*
X113268600Y-111061800D02*
X114518600Y-111061800D01*
G75*
G02*
X114768600Y-111311800I0J-250000D01*
G01*
X114768600Y-112236800D01*
G75*
G02*
X114518600Y-112486800I-250000J0D01*
G01*
X113268600Y-112486800D01*
G75*
G02*
X113018600Y-112236800I0J250000D01*
G01*
X113018600Y-111311800D01*
G75*
G02*
X113268600Y-111061800I250000J0D01*
G01*
G37*
G04 #@! TD.AperFunction*
G04 #@! TA.AperFunction,SMDPad,CuDef*
G36*
G01*
X113268600Y-108086800D02*
X114518600Y-108086800D01*
G75*
G02*
X114768600Y-108336800I0J-250000D01*
G01*
X114768600Y-109261800D01*
G75*
G02*
X114518600Y-109511800I-250000J0D01*
G01*
X113268600Y-109511800D01*
G75*
G02*
X113018600Y-109261800I0J250000D01*
G01*
X113018600Y-108336800D01*
G75*
G02*
X113268600Y-108086800I250000J0D01*
G01*
G37*
G04 #@! TD.AperFunction*
G04 #@! TA.AperFunction,SMDPad,CuDef*
G36*
G01*
X122519600Y-109537200D02*
X121269600Y-109537200D01*
G75*
G02*
X121019600Y-109287200I0J250000D01*
G01*
X121019600Y-108362200D01*
G75*
G02*
X121269600Y-108112200I250000J0D01*
G01*
X122519600Y-108112200D01*
G75*
G02*
X122769600Y-108362200I0J-250000D01*
G01*
X122769600Y-109287200D01*
G75*
G02*
X122519600Y-109537200I-250000J0D01*
G01*
G37*
G04 #@! TD.AperFunction*
G04 #@! TA.AperFunction,SMDPad,CuDef*
G36*
G01*
X122519600Y-112512200D02*
X121269600Y-112512200D01*
G75*
G02*
X121019600Y-112262200I0J250000D01*
G01*
X121019600Y-111337200D01*
G75*
G02*
X121269600Y-111087200I250000J0D01*
G01*
X122519600Y-111087200D01*
G75*
G02*
X122769600Y-111337200I0J-250000D01*
G01*
X122769600Y-112262200D01*
G75*
G02*
X122519600Y-112512200I-250000J0D01*
G01*
G37*
G04 #@! TD.AperFunction*
D10*
X145440400Y-94990920D03*
D11*
X145440400Y-97530920D03*
X145440400Y-100070920D03*
X145440400Y-102610920D03*
X145440400Y-105150920D03*
X160680400Y-105150920D03*
X160680400Y-102610920D03*
X160680400Y-100070920D03*
X160680400Y-97530920D03*
X160680400Y-94990920D03*
D12*
X129057400Y-110401100D03*
D13*
X129057400Y-107861100D03*
X131597400Y-110401100D03*
X131597400Y-107861100D03*
X134137400Y-110401100D03*
X134137400Y-107861100D03*
D14*
X114236500Y-95821500D03*
D15*
X114236500Y-93281500D03*
X114236500Y-90741500D03*
X114236500Y-88201500D03*
X114236500Y-85661500D03*
X114236500Y-83121500D03*
X114236500Y-80581500D03*
X114236500Y-78041500D03*
D14*
X112407700Y-102260400D03*
D15*
X112407700Y-104800400D03*
G04 #@! TA.AperFunction,SMDPad,CuDef*
G36*
G01*
X118478000Y-95260000D02*
X118478000Y-96510000D01*
G75*
G02*
X118228000Y-96760000I-250000J0D01*
G01*
X117303000Y-96760000D01*
G75*
G02*
X117053000Y-96510000I0J250000D01*
G01*
X117053000Y-95260000D01*
G75*
G02*
X117303000Y-95010000I250000J0D01*
G01*
X118228000Y-95010000D01*
G75*
G02*
X118478000Y-95260000I0J-250000D01*
G01*
G37*
G04 #@! TD.AperFunction*
G04 #@! TA.AperFunction,SMDPad,CuDef*
G36*
G01*
X121453000Y-95260000D02*
X121453000Y-96510000D01*
G75*
G02*
X121203000Y-96760000I-250000J0D01*
G01*
X120278000Y-96760000D01*
G75*
G02*
X120028000Y-96510000I0J250000D01*
G01*
X120028000Y-95260000D01*
G75*
G02*
X120278000Y-95010000I250000J0D01*
G01*
X121203000Y-95010000D01*
G75*
G02*
X121453000Y-95260000I0J-250000D01*
G01*
G37*
G04 #@! TD.AperFunction*
G04 #@! TA.AperFunction,SMDPad,CuDef*
G36*
G01*
X121453000Y-92720000D02*
X121453000Y-93970000D01*
G75*
G02*
X121203000Y-94220000I-250000J0D01*
G01*
X120278000Y-94220000D01*
G75*
G02*
X120028000Y-93970000I0J250000D01*
G01*
X120028000Y-92720000D01*
G75*
G02*
X120278000Y-92470000I250000J0D01*
G01*
X121203000Y-92470000D01*
G75*
G02*
X121453000Y-92720000I0J-250000D01*
G01*
G37*
G04 #@! TD.AperFunction*
G04 #@! TA.AperFunction,SMDPad,CuDef*
G36*
G01*
X118478000Y-92720000D02*
X118478000Y-93970000D01*
G75*
G02*
X118228000Y-94220000I-250000J0D01*
G01*
X117303000Y-94220000D01*
G75*
G02*
X117053000Y-93970000I0J250000D01*
G01*
X117053000Y-92720000D01*
G75*
G02*
X117303000Y-92470000I250000J0D01*
G01*
X118228000Y-92470000D01*
G75*
G02*
X118478000Y-92720000I0J-250000D01*
G01*
G37*
G04 #@! TD.AperFunction*
G04 #@! TA.AperFunction,SMDPad,CuDef*
G36*
G01*
X118478000Y-90180000D02*
X118478000Y-91430000D01*
G75*
G02*
X118228000Y-91680000I-250000J0D01*
G01*
X117303000Y-91680000D01*
G75*
G02*
X117053000Y-91430000I0J250000D01*
G01*
X117053000Y-90180000D01*
G75*
G02*
X117303000Y-89930000I250000J0D01*
G01*
X118228000Y-89930000D01*
G75*
G02*
X118478000Y-90180000I0J-250000D01*
G01*
G37*
G04 #@! TD.AperFunction*
G04 #@! TA.AperFunction,SMDPad,CuDef*
G36*
G01*
X121453000Y-90180000D02*
X121453000Y-91430000D01*
G75*
G02*
X121203000Y-91680000I-250000J0D01*
G01*
X120278000Y-91680000D01*
G75*
G02*
X120028000Y-91430000I0J250000D01*
G01*
X120028000Y-90180000D01*
G75*
G02*
X120278000Y-89930000I250000J0D01*
G01*
X121203000Y-89930000D01*
G75*
G02*
X121453000Y-90180000I0J-250000D01*
G01*
G37*
G04 #@! TD.AperFunction*
G04 #@! TA.AperFunction,SMDPad,CuDef*
G36*
G01*
X121453000Y-87640000D02*
X121453000Y-88890000D01*
G75*
G02*
X121203000Y-89140000I-250000J0D01*
G01*
X120278000Y-89140000D01*
G75*
G02*
X120028000Y-88890000I0J250000D01*
G01*
X120028000Y-87640000D01*
G75*
G02*
X120278000Y-87390000I250000J0D01*
G01*
X121203000Y-87390000D01*
G75*
G02*
X121453000Y-87640000I0J-250000D01*
G01*
G37*
G04 #@! TD.AperFunction*
G04 #@! TA.AperFunction,SMDPad,CuDef*
G36*
G01*
X118478000Y-87640000D02*
X118478000Y-88890000D01*
G75*
G02*
X118228000Y-89140000I-250000J0D01*
G01*
X117303000Y-89140000D01*
G75*
G02*
X117053000Y-88890000I0J250000D01*
G01*
X117053000Y-87640000D01*
G75*
G02*
X117303000Y-87390000I250000J0D01*
G01*
X118228000Y-87390000D01*
G75*
G02*
X118478000Y-87640000I0J-250000D01*
G01*
G37*
G04 #@! TD.AperFunction*
G04 #@! TA.AperFunction,SMDPad,CuDef*
G36*
G01*
X118478000Y-85100000D02*
X118478000Y-86350000D01*
G75*
G02*
X118228000Y-86600000I-250000J0D01*
G01*
X117303000Y-86600000D01*
G75*
G02*
X117053000Y-86350000I0J250000D01*
G01*
X117053000Y-85100000D01*
G75*
G02*
X117303000Y-84850000I250000J0D01*
G01*
X118228000Y-84850000D01*
G75*
G02*
X118478000Y-85100000I0J-250000D01*
G01*
G37*
G04 #@! TD.AperFunction*
G04 #@! TA.AperFunction,SMDPad,CuDef*
G36*
G01*
X121453000Y-85100000D02*
X121453000Y-86350000D01*
G75*
G02*
X121203000Y-86600000I-250000J0D01*
G01*
X120278000Y-86600000D01*
G75*
G02*
X120028000Y-86350000I0J250000D01*
G01*
X120028000Y-85100000D01*
G75*
G02*
X120278000Y-84850000I250000J0D01*
G01*
X121203000Y-84850000D01*
G75*
G02*
X121453000Y-85100000I0J-250000D01*
G01*
G37*
G04 #@! TD.AperFunction*
G04 #@! TA.AperFunction,SMDPad,CuDef*
G36*
G01*
X121516500Y-82560000D02*
X121516500Y-83810000D01*
G75*
G02*
X121266500Y-84060000I-250000J0D01*
G01*
X120341500Y-84060000D01*
G75*
G02*
X120091500Y-83810000I0J250000D01*
G01*
X120091500Y-82560000D01*
G75*
G02*
X120341500Y-82310000I250000J0D01*
G01*
X121266500Y-82310000D01*
G75*
G02*
X121516500Y-82560000I0J-250000D01*
G01*
G37*
G04 #@! TD.AperFunction*
G04 #@! TA.AperFunction,SMDPad,CuDef*
G36*
G01*
X118541500Y-82560000D02*
X118541500Y-83810000D01*
G75*
G02*
X118291500Y-84060000I-250000J0D01*
G01*
X117366500Y-84060000D01*
G75*
G02*
X117116500Y-83810000I0J250000D01*
G01*
X117116500Y-82560000D01*
G75*
G02*
X117366500Y-82310000I250000J0D01*
G01*
X118291500Y-82310000D01*
G75*
G02*
X118541500Y-82560000I0J-250000D01*
G01*
G37*
G04 #@! TD.AperFunction*
G04 #@! TA.AperFunction,SMDPad,CuDef*
G36*
G01*
X121516500Y-80020000D02*
X121516500Y-81270000D01*
G75*
G02*
X121266500Y-81520000I-250000J0D01*
G01*
X120341500Y-81520000D01*
G75*
G02*
X120091500Y-81270000I0J250000D01*
G01*
X120091500Y-80020000D01*
G75*
G02*
X120341500Y-79770000I250000J0D01*
G01*
X121266500Y-79770000D01*
G75*
G02*
X121516500Y-80020000I0J-250000D01*
G01*
G37*
G04 #@! TD.AperFunction*
G04 #@! TA.AperFunction,SMDPad,CuDef*
G36*
G01*
X118541500Y-80020000D02*
X118541500Y-81270000D01*
G75*
G02*
X118291500Y-81520000I-250000J0D01*
G01*
X117366500Y-81520000D01*
G75*
G02*
X117116500Y-81270000I0J250000D01*
G01*
X117116500Y-80020000D01*
G75*
G02*
X117366500Y-79770000I250000J0D01*
G01*
X118291500Y-79770000D01*
G75*
G02*
X118541500Y-80020000I0J-250000D01*
G01*
G37*
G04 #@! TD.AperFunction*
G04 #@! TA.AperFunction,SMDPad,CuDef*
G36*
G01*
X118541500Y-77480000D02*
X118541500Y-78730000D01*
G75*
G02*
X118291500Y-78980000I-250000J0D01*
G01*
X117366500Y-78980000D01*
G75*
G02*
X117116500Y-78730000I0J250000D01*
G01*
X117116500Y-77480000D01*
G75*
G02*
X117366500Y-77230000I250000J0D01*
G01*
X118291500Y-77230000D01*
G75*
G02*
X118541500Y-77480000I0J-250000D01*
G01*
G37*
G04 #@! TD.AperFunction*
G04 #@! TA.AperFunction,SMDPad,CuDef*
G36*
G01*
X121516500Y-77480000D02*
X121516500Y-78730000D01*
G75*
G02*
X121266500Y-78980000I-250000J0D01*
G01*
X120341500Y-78980000D01*
G75*
G02*
X120091500Y-78730000I0J250000D01*
G01*
X120091500Y-77480000D01*
G75*
G02*
X120341500Y-77230000I250000J0D01*
G01*
X121266500Y-77230000D01*
G75*
G02*
X121516500Y-77480000I0J-250000D01*
G01*
G37*
G04 #@! TD.AperFunction*
G04 #@! TA.AperFunction,SMDPad,CuDef*
G36*
G01*
X143029260Y-109075360D02*
X143029260Y-108775360D01*
G75*
G02*
X143179260Y-108625360I150000J0D01*
G01*
X144829260Y-108625360D01*
G75*
G02*
X144979260Y-108775360I0J-150000D01*
G01*
X144979260Y-109075360D01*
G75*
G02*
X144829260Y-109225360I-150000J0D01*
G01*
X143179260Y-109225360D01*
G75*
G02*
X143029260Y-109075360I0J150000D01*
G01*
G37*
G04 #@! TD.AperFunction*
G04 #@! TA.AperFunction,SMDPad,CuDef*
G36*
G01*
X143029260Y-110345360D02*
X143029260Y-110045360D01*
G75*
G02*
X143179260Y-109895360I150000J0D01*
G01*
X144829260Y-109895360D01*
G75*
G02*
X144979260Y-110045360I0J-150000D01*
G01*
X144979260Y-110345360D01*
G75*
G02*
X144829260Y-110495360I-150000J0D01*
G01*
X143179260Y-110495360D01*
G75*
G02*
X143029260Y-110345360I0J150000D01*
G01*
G37*
G04 #@! TD.AperFunction*
G04 #@! TA.AperFunction,SMDPad,CuDef*
G36*
G01*
X143029260Y-111615360D02*
X143029260Y-111315360D01*
G75*
G02*
X143179260Y-111165360I150000J0D01*
G01*
X144829260Y-111165360D01*
G75*
G02*
X144979260Y-111315360I0J-150000D01*
G01*
X144979260Y-111615360D01*
G75*
G02*
X144829260Y-111765360I-150000J0D01*
G01*
X143179260Y-111765360D01*
G75*
G02*
X143029260Y-111615360I0J150000D01*
G01*
G37*
G04 #@! TD.AperFunction*
G04 #@! TA.AperFunction,SMDPad,CuDef*
G36*
G01*
X143029260Y-112885360D02*
X143029260Y-112585360D01*
G75*
G02*
X143179260Y-112435360I150000J0D01*
G01*
X144829260Y-112435360D01*
G75*
G02*
X144979260Y-112585360I0J-150000D01*
G01*
X144979260Y-112885360D01*
G75*
G02*
X144829260Y-113035360I-150000J0D01*
G01*
X143179260Y-113035360D01*
G75*
G02*
X143029260Y-112885360I0J150000D01*
G01*
G37*
G04 #@! TD.AperFunction*
G04 #@! TA.AperFunction,SMDPad,CuDef*
G36*
G01*
X147979260Y-112885360D02*
X147979260Y-112585360D01*
G75*
G02*
X148129260Y-112435360I150000J0D01*
G01*
X149779260Y-112435360D01*
G75*
G02*
X149929260Y-112585360I0J-150000D01*
G01*
X149929260Y-112885360D01*
G75*
G02*
X149779260Y-113035360I-150000J0D01*
G01*
X148129260Y-113035360D01*
G75*
G02*
X147979260Y-112885360I0J150000D01*
G01*
G37*
G04 #@! TD.AperFunction*
G04 #@! TA.AperFunction,SMDPad,CuDef*
G36*
G01*
X147979260Y-111615360D02*
X147979260Y-111315360D01*
G75*
G02*
X148129260Y-111165360I150000J0D01*
G01*
X149779260Y-111165360D01*
G75*
G02*
X149929260Y-111315360I0J-150000D01*
G01*
X149929260Y-111615360D01*
G75*
G02*
X149779260Y-111765360I-150000J0D01*
G01*
X148129260Y-111765360D01*
G75*
G02*
X147979260Y-111615360I0J150000D01*
G01*
G37*
G04 #@! TD.AperFunction*
G04 #@! TA.AperFunction,SMDPad,CuDef*
G36*
G01*
X147979260Y-110345360D02*
X147979260Y-110045360D01*
G75*
G02*
X148129260Y-109895360I150000J0D01*
G01*
X149779260Y-109895360D01*
G75*
G02*
X149929260Y-110045360I0J-150000D01*
G01*
X149929260Y-110345360D01*
G75*
G02*
X149779260Y-110495360I-150000J0D01*
G01*
X148129260Y-110495360D01*
G75*
G02*
X147979260Y-110345360I0J150000D01*
G01*
G37*
G04 #@! TD.AperFunction*
G04 #@! TA.AperFunction,SMDPad,CuDef*
G36*
G01*
X147979260Y-109075360D02*
X147979260Y-108775360D01*
G75*
G02*
X148129260Y-108625360I150000J0D01*
G01*
X149779260Y-108625360D01*
G75*
G02*
X149929260Y-108775360I0J-150000D01*
G01*
X149929260Y-109075360D01*
G75*
G02*
X149779260Y-109225360I-150000J0D01*
G01*
X148129260Y-109225360D01*
G75*
G02*
X147979260Y-109075360I0J150000D01*
G01*
G37*
G04 #@! TD.AperFunction*
G04 #@! TA.AperFunction,SMDPad,CuDef*
G36*
G01*
X124266800Y-99643580D02*
X125516800Y-99643580D01*
G75*
G02*
X125766800Y-99893580I0J-250000D01*
G01*
X125766800Y-100643580D01*
G75*
G02*
X125516800Y-100893580I-250000J0D01*
G01*
X124266800Y-100893580D01*
G75*
G02*
X124016800Y-100643580I0J250000D01*
G01*
X124016800Y-99893580D01*
G75*
G02*
X124266800Y-99643580I250000J0D01*
G01*
G37*
G04 #@! TD.AperFunction*
G04 #@! TA.AperFunction,SMDPad,CuDef*
G36*
G01*
X124266800Y-102443580D02*
X125516800Y-102443580D01*
G75*
G02*
X125766800Y-102693580I0J-250000D01*
G01*
X125766800Y-103443580D01*
G75*
G02*
X125516800Y-103693580I-250000J0D01*
G01*
X124266800Y-103693580D01*
G75*
G02*
X124016800Y-103443580I0J250000D01*
G01*
X124016800Y-102693580D01*
G75*
G02*
X124266800Y-102443580I250000J0D01*
G01*
G37*
G04 #@! TD.AperFunction*
D11*
X160644840Y-81472580D03*
X160644840Y-84012580D03*
X160644840Y-86552580D03*
X160644840Y-89092580D03*
X160644840Y-91632580D03*
X145404840Y-91632580D03*
X145404840Y-89092580D03*
X145404840Y-86552580D03*
X145404840Y-84012580D03*
D10*
X145404840Y-81472580D03*
D16*
X116493300Y-109349500D03*
X116493300Y-110299500D03*
X116493300Y-111249500D03*
X119193300Y-111249500D03*
X119193300Y-109349500D03*
X119193300Y-110299500D03*
G04 #@! TA.AperFunction,SMDPad,CuDef*
G36*
G01*
X128088620Y-81105080D02*
X128088620Y-80830080D01*
G75*
G02*
X128226120Y-80692580I137500J0D01*
G01*
X129951120Y-80692580D01*
G75*
G02*
X130088620Y-80830080I0J-137500D01*
G01*
X130088620Y-81105080D01*
G75*
G02*
X129951120Y-81242580I-137500J0D01*
G01*
X128226120Y-81242580D01*
G75*
G02*
X128088620Y-81105080I0J137500D01*
G01*
G37*
G04 #@! TD.AperFunction*
G04 #@! TA.AperFunction,SMDPad,CuDef*
G36*
G01*
X128088620Y-82375080D02*
X128088620Y-82100080D01*
G75*
G02*
X128226120Y-81962580I137500J0D01*
G01*
X129951120Y-81962580D01*
G75*
G02*
X130088620Y-82100080I0J-137500D01*
G01*
X130088620Y-82375080D01*
G75*
G02*
X129951120Y-82512580I-137500J0D01*
G01*
X128226120Y-82512580D01*
G75*
G02*
X128088620Y-82375080I0J137500D01*
G01*
G37*
G04 #@! TD.AperFunction*
G04 #@! TA.AperFunction,SMDPad,CuDef*
G36*
G01*
X128088620Y-83645080D02*
X128088620Y-83370080D01*
G75*
G02*
X128226120Y-83232580I137500J0D01*
G01*
X129951120Y-83232580D01*
G75*
G02*
X130088620Y-83370080I0J-137500D01*
G01*
X130088620Y-83645080D01*
G75*
G02*
X129951120Y-83782580I-137500J0D01*
G01*
X128226120Y-83782580D01*
G75*
G02*
X128088620Y-83645080I0J137500D01*
G01*
G37*
G04 #@! TD.AperFunction*
G04 #@! TA.AperFunction,SMDPad,CuDef*
G36*
G01*
X128088620Y-84915080D02*
X128088620Y-84640080D01*
G75*
G02*
X128226120Y-84502580I137500J0D01*
G01*
X129951120Y-84502580D01*
G75*
G02*
X130088620Y-84640080I0J-137500D01*
G01*
X130088620Y-84915080D01*
G75*
G02*
X129951120Y-85052580I-137500J0D01*
G01*
X128226120Y-85052580D01*
G75*
G02*
X128088620Y-84915080I0J137500D01*
G01*
G37*
G04 #@! TD.AperFunction*
G04 #@! TA.AperFunction,SMDPad,CuDef*
G36*
G01*
X128088620Y-86185080D02*
X128088620Y-85910080D01*
G75*
G02*
X128226120Y-85772580I137500J0D01*
G01*
X129951120Y-85772580D01*
G75*
G02*
X130088620Y-85910080I0J-137500D01*
G01*
X130088620Y-86185080D01*
G75*
G02*
X129951120Y-86322580I-137500J0D01*
G01*
X128226120Y-86322580D01*
G75*
G02*
X128088620Y-86185080I0J137500D01*
G01*
G37*
G04 #@! TD.AperFunction*
G04 #@! TA.AperFunction,SMDPad,CuDef*
G36*
G01*
X128088620Y-87455080D02*
X128088620Y-87180080D01*
G75*
G02*
X128226120Y-87042580I137500J0D01*
G01*
X129951120Y-87042580D01*
G75*
G02*
X130088620Y-87180080I0J-137500D01*
G01*
X130088620Y-87455080D01*
G75*
G02*
X129951120Y-87592580I-137500J0D01*
G01*
X128226120Y-87592580D01*
G75*
G02*
X128088620Y-87455080I0J137500D01*
G01*
G37*
G04 #@! TD.AperFunction*
G04 #@! TA.AperFunction,SMDPad,CuDef*
G36*
G01*
X128088620Y-88725080D02*
X128088620Y-88450080D01*
G75*
G02*
X128226120Y-88312580I137500J0D01*
G01*
X129951120Y-88312580D01*
G75*
G02*
X130088620Y-88450080I0J-137500D01*
G01*
X130088620Y-88725080D01*
G75*
G02*
X129951120Y-88862580I-137500J0D01*
G01*
X128226120Y-88862580D01*
G75*
G02*
X128088620Y-88725080I0J137500D01*
G01*
G37*
G04 #@! TD.AperFunction*
G04 #@! TA.AperFunction,SMDPad,CuDef*
G36*
G01*
X128088620Y-89995080D02*
X128088620Y-89720080D01*
G75*
G02*
X128226120Y-89582580I137500J0D01*
G01*
X129951120Y-89582580D01*
G75*
G02*
X130088620Y-89720080I0J-137500D01*
G01*
X130088620Y-89995080D01*
G75*
G02*
X129951120Y-90132580I-137500J0D01*
G01*
X128226120Y-90132580D01*
G75*
G02*
X128088620Y-89995080I0J137500D01*
G01*
G37*
G04 #@! TD.AperFunction*
G04 #@! TA.AperFunction,SMDPad,CuDef*
G36*
G01*
X128088620Y-91265080D02*
X128088620Y-90990080D01*
G75*
G02*
X128226120Y-90852580I137500J0D01*
G01*
X129951120Y-90852580D01*
G75*
G02*
X130088620Y-90990080I0J-137500D01*
G01*
X130088620Y-91265080D01*
G75*
G02*
X129951120Y-91402580I-137500J0D01*
G01*
X128226120Y-91402580D01*
G75*
G02*
X128088620Y-91265080I0J137500D01*
G01*
G37*
G04 #@! TD.AperFunction*
G04 #@! TA.AperFunction,SMDPad,CuDef*
G36*
G01*
X128088620Y-92535080D02*
X128088620Y-92260080D01*
G75*
G02*
X128226120Y-92122580I137500J0D01*
G01*
X129951120Y-92122580D01*
G75*
G02*
X130088620Y-92260080I0J-137500D01*
G01*
X130088620Y-92535080D01*
G75*
G02*
X129951120Y-92672580I-137500J0D01*
G01*
X128226120Y-92672580D01*
G75*
G02*
X128088620Y-92535080I0J137500D01*
G01*
G37*
G04 #@! TD.AperFunction*
G04 #@! TA.AperFunction,SMDPad,CuDef*
G36*
G01*
X128088620Y-93805080D02*
X128088620Y-93530080D01*
G75*
G02*
X128226120Y-93392580I137500J0D01*
G01*
X129951120Y-93392580D01*
G75*
G02*
X130088620Y-93530080I0J-137500D01*
G01*
X130088620Y-93805080D01*
G75*
G02*
X129951120Y-93942580I-137500J0D01*
G01*
X128226120Y-93942580D01*
G75*
G02*
X128088620Y-93805080I0J137500D01*
G01*
G37*
G04 #@! TD.AperFunction*
G04 #@! TA.AperFunction,SMDPad,CuDef*
G36*
G01*
X128088620Y-95075080D02*
X128088620Y-94800080D01*
G75*
G02*
X128226120Y-94662580I137500J0D01*
G01*
X129951120Y-94662580D01*
G75*
G02*
X130088620Y-94800080I0J-137500D01*
G01*
X130088620Y-95075080D01*
G75*
G02*
X129951120Y-95212580I-137500J0D01*
G01*
X128226120Y-95212580D01*
G75*
G02*
X128088620Y-95075080I0J137500D01*
G01*
G37*
G04 #@! TD.AperFunction*
G04 #@! TA.AperFunction,SMDPad,CuDef*
G36*
G01*
X137388620Y-95075080D02*
X137388620Y-94800080D01*
G75*
G02*
X137526120Y-94662580I137500J0D01*
G01*
X139251120Y-94662580D01*
G75*
G02*
X139388620Y-94800080I0J-137500D01*
G01*
X139388620Y-95075080D01*
G75*
G02*
X139251120Y-95212580I-137500J0D01*
G01*
X137526120Y-95212580D01*
G75*
G02*
X137388620Y-95075080I0J137500D01*
G01*
G37*
G04 #@! TD.AperFunction*
G04 #@! TA.AperFunction,SMDPad,CuDef*
G36*
G01*
X137388620Y-93805080D02*
X137388620Y-93530080D01*
G75*
G02*
X137526120Y-93392580I137500J0D01*
G01*
X139251120Y-93392580D01*
G75*
G02*
X139388620Y-93530080I0J-137500D01*
G01*
X139388620Y-93805080D01*
G75*
G02*
X139251120Y-93942580I-137500J0D01*
G01*
X137526120Y-93942580D01*
G75*
G02*
X137388620Y-93805080I0J137500D01*
G01*
G37*
G04 #@! TD.AperFunction*
G04 #@! TA.AperFunction,SMDPad,CuDef*
G36*
G01*
X137388620Y-92535080D02*
X137388620Y-92260080D01*
G75*
G02*
X137526120Y-92122580I137500J0D01*
G01*
X139251120Y-92122580D01*
G75*
G02*
X139388620Y-92260080I0J-137500D01*
G01*
X139388620Y-92535080D01*
G75*
G02*
X139251120Y-92672580I-137500J0D01*
G01*
X137526120Y-92672580D01*
G75*
G02*
X137388620Y-92535080I0J137500D01*
G01*
G37*
G04 #@! TD.AperFunction*
G04 #@! TA.AperFunction,SMDPad,CuDef*
G36*
G01*
X137388620Y-91265080D02*
X137388620Y-90990080D01*
G75*
G02*
X137526120Y-90852580I137500J0D01*
G01*
X139251120Y-90852580D01*
G75*
G02*
X139388620Y-90990080I0J-137500D01*
G01*
X139388620Y-91265080D01*
G75*
G02*
X139251120Y-91402580I-137500J0D01*
G01*
X137526120Y-91402580D01*
G75*
G02*
X137388620Y-91265080I0J137500D01*
G01*
G37*
G04 #@! TD.AperFunction*
G04 #@! TA.AperFunction,SMDPad,CuDef*
G36*
G01*
X137388620Y-89995080D02*
X137388620Y-89720080D01*
G75*
G02*
X137526120Y-89582580I137500J0D01*
G01*
X139251120Y-89582580D01*
G75*
G02*
X139388620Y-89720080I0J-137500D01*
G01*
X139388620Y-89995080D01*
G75*
G02*
X139251120Y-90132580I-137500J0D01*
G01*
X137526120Y-90132580D01*
G75*
G02*
X137388620Y-89995080I0J137500D01*
G01*
G37*
G04 #@! TD.AperFunction*
G04 #@! TA.AperFunction,SMDPad,CuDef*
G36*
G01*
X137388620Y-88725080D02*
X137388620Y-88450080D01*
G75*
G02*
X137526120Y-88312580I137500J0D01*
G01*
X139251120Y-88312580D01*
G75*
G02*
X139388620Y-88450080I0J-137500D01*
G01*
X139388620Y-88725080D01*
G75*
G02*
X139251120Y-88862580I-137500J0D01*
G01*
X137526120Y-88862580D01*
G75*
G02*
X137388620Y-88725080I0J137500D01*
G01*
G37*
G04 #@! TD.AperFunction*
G04 #@! TA.AperFunction,SMDPad,CuDef*
G36*
G01*
X137388620Y-87455080D02*
X137388620Y-87180080D01*
G75*
G02*
X137526120Y-87042580I137500J0D01*
G01*
X139251120Y-87042580D01*
G75*
G02*
X139388620Y-87180080I0J-137500D01*
G01*
X139388620Y-87455080D01*
G75*
G02*
X139251120Y-87592580I-137500J0D01*
G01*
X137526120Y-87592580D01*
G75*
G02*
X137388620Y-87455080I0J137500D01*
G01*
G37*
G04 #@! TD.AperFunction*
G04 #@! TA.AperFunction,SMDPad,CuDef*
G36*
G01*
X137388620Y-86185080D02*
X137388620Y-85910080D01*
G75*
G02*
X137526120Y-85772580I137500J0D01*
G01*
X139251120Y-85772580D01*
G75*
G02*
X139388620Y-85910080I0J-137500D01*
G01*
X139388620Y-86185080D01*
G75*
G02*
X139251120Y-86322580I-137500J0D01*
G01*
X137526120Y-86322580D01*
G75*
G02*
X137388620Y-86185080I0J137500D01*
G01*
G37*
G04 #@! TD.AperFunction*
G04 #@! TA.AperFunction,SMDPad,CuDef*
G36*
G01*
X137388620Y-84915080D02*
X137388620Y-84640080D01*
G75*
G02*
X137526120Y-84502580I137500J0D01*
G01*
X139251120Y-84502580D01*
G75*
G02*
X139388620Y-84640080I0J-137500D01*
G01*
X139388620Y-84915080D01*
G75*
G02*
X139251120Y-85052580I-137500J0D01*
G01*
X137526120Y-85052580D01*
G75*
G02*
X137388620Y-84915080I0J137500D01*
G01*
G37*
G04 #@! TD.AperFunction*
G04 #@! TA.AperFunction,SMDPad,CuDef*
G36*
G01*
X137388620Y-83645080D02*
X137388620Y-83370080D01*
G75*
G02*
X137526120Y-83232580I137500J0D01*
G01*
X139251120Y-83232580D01*
G75*
G02*
X139388620Y-83370080I0J-137500D01*
G01*
X139388620Y-83645080D01*
G75*
G02*
X139251120Y-83782580I-137500J0D01*
G01*
X137526120Y-83782580D01*
G75*
G02*
X137388620Y-83645080I0J137500D01*
G01*
G37*
G04 #@! TD.AperFunction*
G04 #@! TA.AperFunction,SMDPad,CuDef*
G36*
G01*
X137388620Y-82375080D02*
X137388620Y-82100080D01*
G75*
G02*
X137526120Y-81962580I137500J0D01*
G01*
X139251120Y-81962580D01*
G75*
G02*
X139388620Y-82100080I0J-137500D01*
G01*
X139388620Y-82375080D01*
G75*
G02*
X139251120Y-82512580I-137500J0D01*
G01*
X137526120Y-82512580D01*
G75*
G02*
X137388620Y-82375080I0J137500D01*
G01*
G37*
G04 #@! TD.AperFunction*
G04 #@! TA.AperFunction,SMDPad,CuDef*
G36*
G01*
X137388620Y-81105080D02*
X137388620Y-80830080D01*
G75*
G02*
X137526120Y-80692580I137500J0D01*
G01*
X139251120Y-80692580D01*
G75*
G02*
X139388620Y-80830080I0J-137500D01*
G01*
X139388620Y-81105080D01*
G75*
G02*
X139251120Y-81242580I-137500J0D01*
G01*
X137526120Y-81242580D01*
G75*
G02*
X137388620Y-81105080I0J137500D01*
G01*
G37*
G04 #@! TD.AperFunction*
D17*
X125537800Y-93262300D03*
D18*
X125537800Y-91662300D03*
X125537800Y-92462300D03*
D17*
X125537800Y-90862300D03*
D18*
X123737800Y-92462300D03*
D17*
X123737800Y-93262300D03*
D18*
X123737800Y-91662300D03*
D17*
X123737800Y-90862300D03*
X123737800Y-80511800D03*
D18*
X123737800Y-81311800D03*
D17*
X123737800Y-82911800D03*
D18*
X123737800Y-82111800D03*
D17*
X125537800Y-80511800D03*
D18*
X125537800Y-82111800D03*
X125537800Y-81311800D03*
D17*
X125537800Y-82911800D03*
G04 #@! TA.AperFunction,SMDPad,CuDef*
G36*
G01*
X118322000Y-99525600D02*
X119422000Y-99525600D01*
G75*
G02*
X119672000Y-99775600I0J-250000D01*
G01*
X119672000Y-102275600D01*
G75*
G02*
X119422000Y-102525600I-250000J0D01*
G01*
X118322000Y-102525600D01*
G75*
G02*
X118072000Y-102275600I0J250000D01*
G01*
X118072000Y-99775600D01*
G75*
G02*
X118322000Y-99525600I250000J0D01*
G01*
G37*
G04 #@! TD.AperFunction*
G04 #@! TA.AperFunction,SMDPad,CuDef*
G36*
G01*
X118322000Y-103925600D02*
X119422000Y-103925600D01*
G75*
G02*
X119672000Y-104175600I0J-250000D01*
G01*
X119672000Y-106675600D01*
G75*
G02*
X119422000Y-106925600I-250000J0D01*
G01*
X118322000Y-106925600D01*
G75*
G02*
X118072000Y-106675600I0J250000D01*
G01*
X118072000Y-104175600D01*
G75*
G02*
X118322000Y-103925600I250000J0D01*
G01*
G37*
G04 #@! TD.AperFunction*
D19*
X141315440Y-111485680D03*
X141315440Y-109397800D03*
X151785320Y-109235240D03*
X151795480Y-111312960D03*
X151795480Y-113375440D03*
D20*
X116078000Y-79375000D03*
X136598660Y-84528660D03*
X122288300Y-86906100D03*
X127012700Y-91122500D03*
X123558600Y-105666900D03*
X141808200Y-105140760D03*
X149895935Y-91547055D03*
X149890480Y-102438200D03*
X131685190Y-91127580D03*
X131241800Y-105702100D03*
X122745500Y-76911200D03*
X116293900Y-99707700D03*
X141213840Y-107558840D03*
X151632920Y-107558840D03*
X158358840Y-107533440D03*
X147066000Y-110383320D03*
X134899400Y-89154000D03*
X127166790Y-86288030D03*
X116535200Y-113017300D03*
X115681760Y-89474040D03*
X136182100Y-101904800D03*
X136182100Y-100088700D03*
X148468087Y-87589353D03*
X116446300Y-107594402D03*
X116184680Y-91561920D03*
X121986040Y-97546160D03*
X121932700Y-107048300D03*
D21*
X114300000Y-95885000D02*
X114236500Y-95821500D01*
X117765500Y-95885000D02*
X114300000Y-95885000D01*
X123775900Y-94194200D02*
X123737800Y-93262300D01*
X122085100Y-95885000D02*
X123775900Y-94194200D01*
X120740500Y-95885000D02*
X122085100Y-95885000D01*
X136598660Y-86527620D02*
X136598660Y-84528660D01*
X137388620Y-87317580D02*
X136598660Y-86527620D01*
X138388620Y-87317580D02*
X137388620Y-87317580D01*
X122616420Y-100268580D02*
X124891800Y-100268580D01*
X118872000Y-101025600D02*
X121859400Y-101025600D01*
X121859400Y-101025600D02*
X122616420Y-100268580D01*
X124891800Y-100596700D02*
X124891800Y-100268580D01*
X127914400Y-103011300D02*
X124891800Y-100596700D01*
X125537800Y-90862300D02*
X125564900Y-90835200D01*
X125539500Y-82913500D02*
X125537800Y-82911800D01*
X113583720Y-105808780D02*
X112407700Y-104800400D01*
X113583720Y-108220180D02*
X113583720Y-105808780D01*
X118246800Y-104800400D02*
X112407700Y-104800400D01*
X119113300Y-105666900D02*
X118246800Y-104800400D01*
X123558600Y-105666900D02*
X119113300Y-105666900D01*
X148259800Y-91582240D02*
X145404840Y-91582240D01*
X149895935Y-91547055D02*
X148259800Y-91582240D01*
X148254720Y-105150920D02*
X145440400Y-105150920D01*
X149890480Y-103515160D02*
X148254720Y-105150920D01*
X149890480Y-102438200D02*
X149890480Y-103515160D01*
X129088620Y-91127580D02*
X131685190Y-91127580D01*
X131000500Y-103087500D02*
X130937000Y-103024000D01*
X141808200Y-105140760D02*
X139754940Y-103087500D01*
X134277100Y-103024000D02*
X134340600Y-103087500D01*
X134340600Y-103087500D02*
X139754940Y-103087500D01*
X126752500Y-90862300D02*
X127012700Y-91122500D01*
X125537800Y-90862300D02*
X126752500Y-90862300D01*
X129083540Y-91122500D02*
X129088620Y-91127580D01*
X127012700Y-91122500D02*
X129083540Y-91122500D01*
X122504200Y-76669900D02*
X122745500Y-76911200D01*
X119291100Y-76669900D02*
X122504200Y-76669900D01*
X119291100Y-78543590D02*
X119291100Y-76669900D01*
X118459690Y-79375000D02*
X119291100Y-78543590D01*
X116078000Y-79375000D02*
X118459690Y-79375000D01*
X116875200Y-101025600D02*
X118872000Y-101025600D01*
X116293900Y-100444300D02*
X116875200Y-101025600D01*
X116293900Y-99707700D02*
X116293900Y-100444300D01*
X142637740Y-107558840D02*
X144004260Y-108925360D01*
X141213840Y-107558840D02*
X142637740Y-107558840D01*
X149438360Y-108925360D02*
X148954260Y-108925360D01*
X150804880Y-107558840D02*
X149438360Y-108925360D01*
X151632920Y-107558840D02*
X150804880Y-107558840D01*
X121623200Y-92462300D02*
X123737800Y-92462300D01*
X120740500Y-93345000D02*
X121623200Y-92462300D01*
X114300000Y-93345000D02*
X114236500Y-93281500D01*
X117765500Y-93345000D02*
X114300000Y-93345000D01*
X114300000Y-90805000D02*
X114236500Y-90741500D01*
X117765500Y-90805000D02*
X114300000Y-90805000D01*
X121597800Y-91662300D02*
X123737800Y-91662300D01*
X120740500Y-90805000D02*
X121597800Y-91662300D01*
X123183800Y-90862300D02*
X123737800Y-90862300D01*
X120740500Y-88265000D02*
X123183800Y-90862300D01*
X114300000Y-88265000D02*
X114236500Y-88201500D01*
X117765500Y-88265000D02*
X114300000Y-88265000D01*
X114300000Y-85725000D02*
X114236500Y-85661500D01*
X117765500Y-85725000D02*
X114300000Y-85725000D01*
X120740500Y-85725000D02*
X121286600Y-85178900D01*
X123737800Y-83272200D02*
X123737800Y-82911800D01*
X121285000Y-85725000D02*
X123737800Y-83272200D01*
X120740500Y-85725000D02*
X121285000Y-85725000D01*
X121870800Y-82118200D02*
X120804000Y-83185000D01*
X123731400Y-82118200D02*
X121870800Y-82118200D01*
X123737800Y-82111800D02*
X123731400Y-82118200D01*
X114300000Y-83185000D02*
X114236500Y-83121500D01*
X117829000Y-83185000D02*
X114300000Y-83185000D01*
X123731400Y-81305400D02*
X123737800Y-81311800D01*
X121602500Y-81305400D02*
X123731400Y-81305400D01*
X120942100Y-80645000D02*
X121602500Y-81305400D01*
X120804000Y-80645000D02*
X120942100Y-80645000D01*
X114300000Y-80645000D02*
X114236500Y-80581500D01*
X117829000Y-80645000D02*
X114300000Y-80645000D01*
X114300000Y-78105000D02*
X114236500Y-78041500D01*
X117829000Y-78105000D02*
X114300000Y-78105000D01*
X123736100Y-80510100D02*
X123737800Y-80511800D01*
X123736100Y-79870300D02*
X123736100Y-80510100D01*
X121970800Y-78105000D02*
X123736100Y-79870300D01*
X120804000Y-78105000D02*
X121970800Y-78105000D01*
X143989020Y-112750600D02*
X144004260Y-112735360D01*
X136486900Y-112750600D02*
X143989020Y-112750600D01*
X134137400Y-110401100D02*
X136486900Y-112750600D01*
X148766300Y-110383320D02*
X148954260Y-110195360D01*
X147066000Y-110383320D02*
X148766300Y-110383320D01*
X150825200Y-110195360D02*
X151785320Y-109235240D01*
X148954260Y-110195360D02*
X150825200Y-110195360D01*
X137797392Y-88587580D02*
X138388620Y-88587580D01*
X137230972Y-89154000D02*
X137797392Y-88587580D01*
X134899400Y-89154000D02*
X137230972Y-89154000D01*
X116493300Y-111249500D02*
X116535200Y-113017300D01*
X129088620Y-78264820D02*
X128966900Y-78143100D01*
X129088620Y-80967580D02*
X129088620Y-78264820D01*
X127533400Y-78143100D02*
X128966900Y-78143100D01*
X127166790Y-78509710D02*
X127533400Y-78143100D01*
X127166790Y-86288030D02*
X127166790Y-78509710D01*
X134327900Y-100061700D02*
X134340600Y-100112500D01*
X136182100Y-100088700D02*
X134327900Y-100061700D01*
X113309400Y-89474040D02*
X115681760Y-89474040D01*
X112249789Y-90533651D02*
X113309400Y-89474040D01*
X112249789Y-96756202D02*
X112249789Y-90533651D01*
X113855087Y-98361500D02*
X112249789Y-96756202D01*
X126365000Y-99529900D02*
X125196600Y-98361500D01*
X126365000Y-100977700D02*
X126365000Y-99529900D01*
X127292100Y-101904800D02*
X126365000Y-100977700D01*
X125196600Y-98361500D02*
X113855087Y-98361500D01*
X136182100Y-101904800D02*
X127292100Y-101904800D01*
X151643080Y-111465360D02*
X151795480Y-111312960D01*
X148954260Y-111465360D02*
X151643080Y-111465360D01*
X143911320Y-107584240D02*
X142635378Y-106308298D01*
X146192240Y-110611920D02*
X146192240Y-107584240D01*
X147045680Y-111465360D02*
X146192240Y-110611920D01*
X140807440Y-101904800D02*
X136182100Y-101904800D01*
X148954260Y-111465360D02*
X147045680Y-111465360D01*
X142635378Y-103732738D02*
X140807440Y-101904800D01*
X142635378Y-106308298D02*
X142635378Y-103732738D01*
X146192240Y-107584240D02*
X143911320Y-107584240D01*
X127914400Y-96111800D02*
X127914400Y-100036300D01*
X129088620Y-94937580D02*
X127914400Y-96111800D01*
X143085389Y-103546338D02*
X140658581Y-101119530D01*
X127914400Y-100748800D02*
X127914400Y-100036300D01*
X135203780Y-101150010D02*
X128315610Y-101150010D01*
X140658581Y-101119530D02*
X135234260Y-101119530D01*
X152443501Y-106687941D02*
X143651431Y-106687941D01*
X153405840Y-107650280D02*
X152443501Y-106687941D01*
X143085389Y-106121899D02*
X143085389Y-103546338D01*
X152811480Y-113400840D02*
X153405840Y-112806480D01*
X128315610Y-101150010D02*
X127914400Y-100748800D01*
X135234260Y-101119530D02*
X135203780Y-101150010D01*
X153405840Y-112806480D02*
X153405840Y-107650280D01*
X149619740Y-113400840D02*
X152811480Y-113400840D01*
X148954260Y-112735360D02*
X149619740Y-113400840D01*
X143651431Y-106687941D02*
X143085389Y-106121899D01*
X144785080Y-88422480D02*
X145404840Y-89042240D01*
X144743980Y-89092580D02*
X145404840Y-89092580D01*
X141698980Y-86047580D02*
X144743980Y-89092580D01*
X138388620Y-86047580D02*
X141698980Y-86047580D01*
X148468087Y-87589353D02*
X148244560Y-87812880D01*
X146545300Y-85267800D02*
X138878840Y-85267800D01*
X147294600Y-84518500D02*
X146545300Y-85267800D01*
X147294600Y-83362340D02*
X147294600Y-84518500D01*
X138878840Y-85267800D02*
X138388620Y-84777580D01*
X145404840Y-81472580D02*
X147294600Y-83362340D01*
X145354500Y-84012580D02*
X145404840Y-83962240D01*
X141767100Y-84012580D02*
X145354500Y-84012580D01*
X139997180Y-82242660D02*
X141767100Y-84012580D01*
X138393700Y-82242660D02*
X139997180Y-82242660D01*
X138388620Y-82237580D02*
X138393700Y-82242660D01*
X141396720Y-99372420D02*
X142095220Y-100070920D01*
X141396720Y-95043131D02*
X141396720Y-99372420D01*
X139713630Y-93360041D02*
X141396720Y-95043131D01*
X142095220Y-100070920D02*
X145440400Y-100070920D01*
X139713630Y-93338502D02*
X139713630Y-93360041D01*
X139442698Y-93067570D02*
X139713630Y-93338502D01*
X129688630Y-93067570D02*
X139442698Y-93067570D01*
X129088620Y-93667580D02*
X129688630Y-93067570D01*
X160680400Y-100070920D02*
X145440400Y-100070920D01*
X160594500Y-86552580D02*
X160644840Y-86502240D01*
X145455180Y-86552580D02*
X160594500Y-86552580D01*
X145404840Y-86502240D02*
X145455180Y-86552580D01*
X147410980Y-86552580D02*
X145404840Y-86552580D01*
X148250070Y-85713490D02*
X147410980Y-86552580D01*
X148250070Y-80978170D02*
X148250070Y-85713490D01*
X147358100Y-80086200D02*
X148250070Y-80978170D01*
X137615912Y-80086200D02*
X147358100Y-80086200D01*
X135464532Y-82237580D02*
X137615912Y-80086200D01*
X129088620Y-82237580D02*
X135464532Y-82237580D01*
X138469992Y-89938952D02*
X138388620Y-89857580D01*
X141521272Y-89938952D02*
X138469992Y-89938952D01*
X142006320Y-90424000D02*
X141521272Y-89938952D01*
X161853880Y-90424000D02*
X142006320Y-90424000D01*
X162753040Y-91323160D02*
X161853880Y-90424000D01*
X162753040Y-92918280D02*
X162753040Y-91323160D01*
X160680400Y-94990920D02*
X162753040Y-92918280D01*
X162156840Y-89042240D02*
X160644840Y-89042240D01*
X163203049Y-90088449D02*
X162156840Y-89042240D01*
X163203049Y-100088271D02*
X163203049Y-90088449D01*
X160680400Y-102610920D02*
X163203049Y-100088271D01*
X139384759Y-93667580D02*
X138388620Y-93667580D01*
X140898880Y-95181701D02*
X139384759Y-93667580D01*
X143535400Y-103339900D02*
X140898880Y-100703380D01*
X140898880Y-100703380D02*
X140898880Y-95181701D01*
X143535400Y-105283184D02*
X143535400Y-103339900D01*
X152430590Y-106237930D02*
X144490146Y-106237930D01*
X144490146Y-106237930D02*
X143535400Y-105283184D01*
X156057600Y-102610920D02*
X152430590Y-106237930D01*
X160680400Y-102610920D02*
X156057600Y-102610920D01*
X139387580Y-92397580D02*
X138388620Y-92397580D01*
X139607559Y-92617559D02*
X139387580Y-92397580D01*
X143315639Y-96304100D02*
X139629098Y-92617559D01*
X146443700Y-96304100D02*
X143315639Y-96304100D01*
X147670520Y-97530920D02*
X146443700Y-96304100D01*
X139629098Y-92617559D02*
X139607559Y-92617559D01*
X160680400Y-97530920D02*
X147670520Y-97530920D01*
X138968058Y-91127580D02*
X138388620Y-91127580D01*
X140867978Y-93027500D02*
X138968058Y-91127580D01*
X159199580Y-93027500D02*
X140867978Y-93027500D01*
X160644840Y-91582240D02*
X159199580Y-93027500D01*
X124974300Y-102986080D02*
X124891800Y-103068580D01*
X122858200Y-107861100D02*
X121894600Y-108824700D01*
X129057400Y-107861100D02*
X122858200Y-107861100D01*
X124891800Y-104013000D02*
X124891800Y-103068580D01*
X128739900Y-107861100D02*
X124891800Y-104013000D01*
X129057400Y-107861100D02*
X128739900Y-107861100D01*
X126225300Y-113233200D02*
X129057400Y-110401100D01*
X120167400Y-113233200D02*
X126225300Y-113233200D01*
X119193300Y-112259100D02*
X120167400Y-113233200D01*
X119193300Y-111249500D02*
X119193300Y-112259100D01*
X144979260Y-111465360D02*
X144004260Y-111465360D01*
X145304270Y-111790370D02*
X144979260Y-111465360D01*
X145304270Y-113082118D02*
X145304270Y-111790370D01*
X145010778Y-113375610D02*
X145304270Y-113082118D01*
X132031910Y-113375610D02*
X145010778Y-113375610D01*
X129057400Y-110401100D02*
X132031910Y-113375610D01*
X141335760Y-111465360D02*
X141315440Y-111485680D01*
X144004260Y-111465360D02*
X141335760Y-111465360D01*
X116493300Y-107641402D02*
X116446300Y-107594402D01*
X116493300Y-109349500D02*
X116493300Y-107641402D01*
X143963620Y-110236000D02*
X144004260Y-110195360D01*
X142153640Y-110236000D02*
X143963620Y-110236000D01*
X141315440Y-109397800D02*
X142153640Y-110236000D01*
X141061440Y-109143800D02*
X141315440Y-109397800D01*
X132854700Y-109143800D02*
X141061440Y-109143800D01*
X131597400Y-110401100D02*
X132854700Y-109143800D01*
X138488420Y-95037380D02*
X138388620Y-94937580D01*
X135953500Y-94937580D02*
X138388620Y-94937580D01*
X125559820Y-95892620D02*
X127083820Y-94368620D01*
X127083820Y-94368620D02*
X128003492Y-94368620D01*
X128003492Y-94368620D02*
X128034542Y-94337570D01*
X128034542Y-94337570D02*
X130142698Y-94337570D01*
X130142698Y-94337570D02*
X130173748Y-94368620D01*
X130173748Y-94368620D02*
X135384540Y-94368620D01*
X135384540Y-94368620D02*
X135953500Y-94937580D01*
X119193300Y-108632000D02*
X119193300Y-109349500D01*
X120777000Y-107048300D02*
X119193300Y-108632000D01*
X121932700Y-107048300D02*
X120777000Y-107048300D01*
X123639580Y-95892620D02*
X121986040Y-97546160D01*
X125559820Y-95892620D02*
X123639580Y-95892620D01*
X130924300Y-100036300D02*
X130937000Y-100049000D01*
X130924300Y-97790000D02*
X130924300Y-100036300D01*
X131572000Y-97142300D02*
X130924300Y-97790000D01*
X137452100Y-97142300D02*
X131572000Y-97142300D01*
X138388620Y-96205780D02*
X137452100Y-97142300D01*
X138388620Y-94937580D02*
X138388620Y-96205780D01*
X113543080Y-91998800D02*
X115747800Y-91998800D01*
X112699800Y-92842080D02*
X113543080Y-91998800D01*
X112699800Y-96569802D02*
X112699800Y-92842080D01*
X113704098Y-97574100D02*
X112699800Y-96569802D01*
X121958100Y-97574100D02*
X113704098Y-97574100D01*
X115747800Y-91998800D02*
X116184680Y-91561920D01*
X121986040Y-97546160D02*
X121958100Y-97574100D01*
X115099160Y-110299500D02*
X116493300Y-110299500D01*
X113893600Y-111505060D02*
X115099160Y-110299500D01*
X116493300Y-110299500D02*
X119193300Y-110299500D01*
X120394400Y-110299500D02*
X121894600Y-111799700D01*
X119193300Y-110299500D02*
X120394400Y-110299500D01*
D22*
G36*
X151978873Y-74965260D02*
G01*
X153697288Y-75051253D01*
X155389383Y-75284990D01*
X157054668Y-75665315D01*
X158680467Y-76189330D01*
X160254410Y-76853051D01*
X161764520Y-77651426D01*
X163199286Y-78578367D01*
X164517449Y-79603231D01*
X164722445Y-109294194D01*
X164356824Y-109624966D01*
X162995048Y-110656184D01*
X161548580Y-111564791D01*
X160028429Y-112343870D01*
X158446175Y-112987489D01*
X156813839Y-113490759D01*
X155143844Y-113849849D01*
X153439023Y-114063260D01*
X153147582Y-114082945D01*
X153235756Y-114035814D01*
X153351481Y-113940841D01*
X153375283Y-113911838D01*
X153916844Y-113370278D01*
X153945841Y-113346481D01*
X153976862Y-113308682D01*
X154040814Y-113230757D01*
X154111386Y-113098727D01*
X154116046Y-113083364D01*
X154154843Y-112955466D01*
X154165840Y-112843813D01*
X154165840Y-112843803D01*
X154169516Y-112806480D01*
X154165840Y-112769157D01*
X154165840Y-107687603D01*
X154169516Y-107650280D01*
X154165840Y-107612957D01*
X154165840Y-107612947D01*
X154154843Y-107501294D01*
X154111386Y-107358033D01*
X154040814Y-107226004D01*
X153945841Y-107110279D01*
X153916843Y-107086481D01*
X153286841Y-106456480D01*
X156372402Y-103370920D01*
X159002587Y-103370920D01*
X159013217Y-103390807D01*
X159187792Y-103603528D01*
X159400513Y-103778103D01*
X159592871Y-103880920D01*
X159400513Y-103983737D01*
X159187792Y-104158312D01*
X159013217Y-104371033D01*
X158883496Y-104613725D01*
X158803614Y-104877060D01*
X158776641Y-105150920D01*
X158803614Y-105424780D01*
X158883496Y-105688115D01*
X159013217Y-105930807D01*
X159187792Y-106143528D01*
X159400513Y-106318103D01*
X159643205Y-106447824D01*
X159906540Y-106527706D01*
X160111775Y-106547920D01*
X161249025Y-106547920D01*
X161454260Y-106527706D01*
X161717595Y-106447824D01*
X161960287Y-106318103D01*
X162173008Y-106143528D01*
X162347583Y-105930807D01*
X162477304Y-105688115D01*
X162557186Y-105424780D01*
X162584159Y-105150920D01*
X162557186Y-104877060D01*
X162477304Y-104613725D01*
X162347583Y-104371033D01*
X162173008Y-104158312D01*
X161960287Y-103983737D01*
X161767929Y-103880920D01*
X161960287Y-103778103D01*
X162173008Y-103603528D01*
X162347583Y-103390807D01*
X162477304Y-103148115D01*
X162557186Y-102884780D01*
X162584159Y-102610920D01*
X162557186Y-102337060D01*
X162477304Y-102073725D01*
X162412896Y-101953226D01*
X163714058Y-100652065D01*
X163743050Y-100628272D01*
X163766844Y-100599279D01*
X163766848Y-100599275D01*
X163836340Y-100514598D01*
X163838023Y-100512547D01*
X163908595Y-100380518D01*
X163952052Y-100237257D01*
X163963049Y-100125604D01*
X163963049Y-100125595D01*
X163966725Y-100088272D01*
X163963049Y-100050949D01*
X163963049Y-90125772D01*
X163966725Y-90088449D01*
X163963049Y-90051126D01*
X163963049Y-90051116D01*
X163952052Y-89939463D01*
X163908595Y-89796202D01*
X163904759Y-89789026D01*
X163838023Y-89664172D01*
X163766848Y-89577446D01*
X163743050Y-89548448D01*
X163714052Y-89524650D01*
X162720644Y-88531242D01*
X162696841Y-88502239D01*
X162581116Y-88407266D01*
X162449087Y-88336694D01*
X162305826Y-88293237D01*
X162295197Y-88292190D01*
X162137448Y-88099972D01*
X161924727Y-87925397D01*
X161732369Y-87822580D01*
X161924727Y-87719763D01*
X162137448Y-87545188D01*
X162312023Y-87332467D01*
X162441744Y-87089775D01*
X162521626Y-86826440D01*
X162548599Y-86552580D01*
X162521626Y-86278720D01*
X162441744Y-86015385D01*
X162312023Y-85772693D01*
X162137448Y-85559972D01*
X161924727Y-85385397D01*
X161732369Y-85282580D01*
X161924727Y-85179763D01*
X162137448Y-85005188D01*
X162312023Y-84792467D01*
X162441744Y-84549775D01*
X162521626Y-84286440D01*
X162548599Y-84012580D01*
X162521626Y-83738720D01*
X162441744Y-83475385D01*
X162312023Y-83232693D01*
X162137448Y-83019972D01*
X161924727Y-82845397D01*
X161732369Y-82742580D01*
X161924727Y-82639763D01*
X162137448Y-82465188D01*
X162312023Y-82252467D01*
X162441744Y-82009775D01*
X162521626Y-81746440D01*
X162548599Y-81472580D01*
X162521626Y-81198720D01*
X162441744Y-80935385D01*
X162312023Y-80692693D01*
X162137448Y-80479972D01*
X161924727Y-80305397D01*
X161682035Y-80175676D01*
X161418700Y-80095794D01*
X161213465Y-80075580D01*
X160076215Y-80075580D01*
X159870980Y-80095794D01*
X159607645Y-80175676D01*
X159364953Y-80305397D01*
X159152232Y-80479972D01*
X158977657Y-80692693D01*
X158847936Y-80935385D01*
X158768054Y-81198720D01*
X158741081Y-81472580D01*
X158768054Y-81746440D01*
X158847936Y-82009775D01*
X158977657Y-82252467D01*
X159152232Y-82465188D01*
X159364953Y-82639763D01*
X159557311Y-82742580D01*
X159364953Y-82845397D01*
X159152232Y-83019972D01*
X158977657Y-83232693D01*
X158847936Y-83475385D01*
X158768054Y-83738720D01*
X158741081Y-84012580D01*
X158768054Y-84286440D01*
X158847936Y-84549775D01*
X158977657Y-84792467D01*
X159152232Y-85005188D01*
X159364953Y-85179763D01*
X159557311Y-85282580D01*
X159364953Y-85385397D01*
X159152232Y-85559972D01*
X158977657Y-85772693D01*
X158967027Y-85792580D01*
X149005957Y-85792580D01*
X149010070Y-85750823D01*
X149010070Y-85750814D01*
X149013746Y-85713491D01*
X149010070Y-85676168D01*
X149010070Y-81015492D01*
X149013746Y-80978169D01*
X149010070Y-80940846D01*
X149010070Y-80940837D01*
X148999073Y-80829184D01*
X148955616Y-80685923D01*
X148928290Y-80634800D01*
X148885044Y-80553893D01*
X148813869Y-80467167D01*
X148790071Y-80438169D01*
X148761074Y-80414372D01*
X147921903Y-79575202D01*
X147898101Y-79546199D01*
X147782376Y-79451226D01*
X147650347Y-79380654D01*
X147507086Y-79337197D01*
X147395433Y-79326200D01*
X147395422Y-79326200D01*
X147358100Y-79322524D01*
X147320778Y-79326200D01*
X137653237Y-79326200D01*
X137615912Y-79322524D01*
X137578587Y-79326200D01*
X137578579Y-79326200D01*
X137466926Y-79337197D01*
X137323665Y-79380654D01*
X137191636Y-79451226D01*
X137075911Y-79546199D01*
X137052113Y-79575197D01*
X135149731Y-81477580D01*
X130627192Y-81477580D01*
X130667655Y-81401879D01*
X130711790Y-81256387D01*
X130726692Y-81105080D01*
X130726692Y-80830080D01*
X130711790Y-80678773D01*
X130667655Y-80533281D01*
X130595985Y-80399195D01*
X130499532Y-80281668D01*
X130382005Y-80185215D01*
X130247919Y-80113545D01*
X130102427Y-80069410D01*
X129951120Y-80054508D01*
X129848620Y-80054508D01*
X129848620Y-79546148D01*
X129922786Y-79506505D01*
X130057362Y-79396062D01*
X130167805Y-79261486D01*
X130249872Y-79107950D01*
X130277127Y-79018100D01*
X130591328Y-79018100D01*
X130603588Y-79142582D01*
X130639898Y-79262280D01*
X130698863Y-79372594D01*
X130778215Y-79469285D01*
X130874906Y-79548637D01*
X130985220Y-79607602D01*
X131104918Y-79643912D01*
X131229400Y-79656172D01*
X131656150Y-79653100D01*
X131814900Y-79494350D01*
X131814900Y-78270100D01*
X132068900Y-78270100D01*
X132068900Y-79494350D01*
X132227650Y-79653100D01*
X132654400Y-79656172D01*
X132778882Y-79643912D01*
X132898580Y-79607602D01*
X133008894Y-79548637D01*
X133105585Y-79469285D01*
X133184937Y-79372594D01*
X133243902Y-79262280D01*
X133280212Y-79142582D01*
X133292472Y-79018100D01*
X133289400Y-78428850D01*
X133130650Y-78270100D01*
X132068900Y-78270100D01*
X131814900Y-78270100D01*
X130753150Y-78270100D01*
X130594400Y-78428850D01*
X130591328Y-79018100D01*
X130277127Y-79018100D01*
X130300408Y-78941354D01*
X130317472Y-78768100D01*
X130317472Y-77518100D01*
X130300408Y-77344846D01*
X130277128Y-77268100D01*
X130591328Y-77268100D01*
X130594400Y-77857350D01*
X130753150Y-78016100D01*
X131814900Y-78016100D01*
X131814900Y-76791850D01*
X132068900Y-76791850D01*
X132068900Y-78016100D01*
X133130650Y-78016100D01*
X133289400Y-77857350D01*
X133292472Y-77268100D01*
X133280212Y-77143618D01*
X133243902Y-77023920D01*
X133184937Y-76913606D01*
X133105585Y-76816915D01*
X133008894Y-76737563D01*
X132898580Y-76678598D01*
X132778882Y-76642288D01*
X132654400Y-76630028D01*
X132227650Y-76633100D01*
X132068900Y-76791850D01*
X131814900Y-76791850D01*
X131656150Y-76633100D01*
X131229400Y-76630028D01*
X131104918Y-76642288D01*
X130985220Y-76678598D01*
X130874906Y-76737563D01*
X130778215Y-76816915D01*
X130698863Y-76913606D01*
X130639898Y-77023920D01*
X130603588Y-77143618D01*
X130591328Y-77268100D01*
X130277128Y-77268100D01*
X130249872Y-77178250D01*
X130167805Y-77024714D01*
X130057362Y-76890138D01*
X129922786Y-76779695D01*
X129769250Y-76697628D01*
X129602654Y-76647092D01*
X129429400Y-76630028D01*
X128504400Y-76630028D01*
X128331146Y-76647092D01*
X128164550Y-76697628D01*
X128011014Y-76779695D01*
X127876438Y-76890138D01*
X127765995Y-77024714D01*
X127683928Y-77178250D01*
X127633392Y-77344846D01*
X127629624Y-77383100D01*
X127570723Y-77383100D01*
X127533400Y-77379424D01*
X127496077Y-77383100D01*
X127496067Y-77383100D01*
X127384414Y-77394097D01*
X127241153Y-77437554D01*
X127109124Y-77508126D01*
X126993399Y-77603099D01*
X126969596Y-77632103D01*
X126655788Y-77945911D01*
X126626790Y-77969709D01*
X126602992Y-77998707D01*
X126602991Y-77998708D01*
X126531816Y-78085434D01*
X126461244Y-78217464D01*
X126458204Y-78227487D01*
X126423876Y-78340656D01*
X126417788Y-78360725D01*
X126403114Y-78509710D01*
X126406791Y-78547042D01*
X126406791Y-79833244D01*
X126378894Y-79800745D01*
X126280472Y-79723551D01*
X126168880Y-79667041D01*
X126048408Y-79633388D01*
X125923686Y-79623884D01*
X125823550Y-79626800D01*
X125664800Y-79785550D01*
X125664800Y-80388800D01*
X125684800Y-80388800D01*
X125684800Y-80615550D01*
X125665550Y-80634800D01*
X125664800Y-80634800D01*
X125664800Y-81238800D01*
X125665550Y-81238800D01*
X125684800Y-81258050D01*
X125684800Y-81384800D01*
X125664800Y-81384800D01*
X125664800Y-82038800D01*
X125684800Y-82038800D01*
X125684800Y-82165550D01*
X125665550Y-82184800D01*
X125664800Y-82184800D01*
X125664800Y-82788800D01*
X125665550Y-82788800D01*
X125684800Y-82808050D01*
X125684800Y-83034800D01*
X125664800Y-83034800D01*
X125664800Y-83638050D01*
X125823550Y-83796800D01*
X125923686Y-83799716D01*
X126048408Y-83790212D01*
X126168880Y-83756559D01*
X126280472Y-83700049D01*
X126378894Y-83622855D01*
X126406790Y-83590357D01*
X126406790Y-85584319D01*
X126362853Y-85628256D01*
X126249585Y-85797774D01*
X126171564Y-85986132D01*
X126131790Y-86186091D01*
X126131790Y-86389969D01*
X126171564Y-86589928D01*
X126249585Y-86778286D01*
X126362853Y-86947804D01*
X126507016Y-87091967D01*
X126676534Y-87205235D01*
X126864892Y-87283256D01*
X127064851Y-87323030D01*
X127268729Y-87323030D01*
X127450548Y-87286864D01*
X127450548Y-87455080D01*
X127465450Y-87606387D01*
X127509585Y-87751879D01*
X127581255Y-87885965D01*
X127635925Y-87952580D01*
X127581255Y-88019195D01*
X127509585Y-88153281D01*
X127465450Y-88298773D01*
X127450548Y-88450080D01*
X127450548Y-88725080D01*
X127465450Y-88876387D01*
X127509585Y-89021879D01*
X127581255Y-89155965D01*
X127635925Y-89222580D01*
X127581255Y-89289195D01*
X127509585Y-89423281D01*
X127465450Y-89568773D01*
X127450548Y-89720080D01*
X127450548Y-89995080D01*
X127465450Y-90146387D01*
X127509585Y-90291879D01*
X127581255Y-90425965D01*
X127599266Y-90447911D01*
X127559533Y-90495925D01*
X127500119Y-90605997D01*
X127463321Y-90725546D01*
X127453620Y-90841830D01*
X127612370Y-91000580D01*
X128961620Y-91000580D01*
X128961620Y-90980580D01*
X129215620Y-90980580D01*
X129215620Y-91000580D01*
X130564870Y-91000580D01*
X130723620Y-90841830D01*
X130713919Y-90725546D01*
X130677121Y-90605997D01*
X130617707Y-90495925D01*
X130577974Y-90447911D01*
X130595985Y-90425965D01*
X130667655Y-90291879D01*
X130711790Y-90146387D01*
X130726692Y-89995080D01*
X130726692Y-89720080D01*
X130711790Y-89568773D01*
X130667655Y-89423281D01*
X130595985Y-89289195D01*
X130541315Y-89222580D01*
X130595985Y-89155965D01*
X130667655Y-89021879D01*
X130711790Y-88876387D01*
X130726692Y-88725080D01*
X130726692Y-88450080D01*
X130711790Y-88298773D01*
X130667655Y-88153281D01*
X130595985Y-88019195D01*
X130541315Y-87952580D01*
X130595985Y-87885965D01*
X130667655Y-87751879D01*
X130711790Y-87606387D01*
X130726692Y-87455080D01*
X130726692Y-87180080D01*
X130711790Y-87028773D01*
X130667655Y-86883281D01*
X130595985Y-86749195D01*
X130541315Y-86682580D01*
X130595985Y-86615965D01*
X130667655Y-86481879D01*
X130711790Y-86336387D01*
X130726692Y-86185080D01*
X130726692Y-85910080D01*
X130711790Y-85758773D01*
X130667655Y-85613281D01*
X130595985Y-85479195D01*
X130577974Y-85457249D01*
X130617707Y-85409235D01*
X130677121Y-85299163D01*
X130713919Y-85179614D01*
X130723620Y-85063330D01*
X130564870Y-84904580D01*
X129215620Y-84904580D01*
X129215620Y-84924580D01*
X128961620Y-84924580D01*
X128961620Y-84904580D01*
X128941620Y-84904580D01*
X128941620Y-84650580D01*
X128961620Y-84650580D01*
X128961620Y-84630580D01*
X129215620Y-84630580D01*
X129215620Y-84650580D01*
X130564870Y-84650580D01*
X130723620Y-84491830D01*
X130713919Y-84375546D01*
X130677121Y-84255997D01*
X130617707Y-84145925D01*
X130577974Y-84097911D01*
X130595985Y-84075965D01*
X130667655Y-83941879D01*
X130711790Y-83796387D01*
X130726692Y-83645080D01*
X130726692Y-83370080D01*
X130711790Y-83218773D01*
X130667655Y-83073281D01*
X130627192Y-82997580D01*
X135427210Y-82997580D01*
X135464532Y-83001256D01*
X135501854Y-82997580D01*
X135501865Y-82997580D01*
X135613518Y-82986583D01*
X135756779Y-82943126D01*
X135888808Y-82872554D01*
X136004533Y-82777581D01*
X136028336Y-82748577D01*
X136758601Y-82018312D01*
X136750548Y-82100080D01*
X136750548Y-82375080D01*
X136765450Y-82526387D01*
X136809585Y-82671879D01*
X136881255Y-82805965D01*
X136935925Y-82872580D01*
X136881255Y-82939195D01*
X136809585Y-83073281D01*
X136765450Y-83218773D01*
X136750548Y-83370080D01*
X136750548Y-83503595D01*
X136700599Y-83493660D01*
X136496721Y-83493660D01*
X136296762Y-83533434D01*
X136108404Y-83611455D01*
X135938886Y-83724723D01*
X135794723Y-83868886D01*
X135681455Y-84038404D01*
X135603434Y-84226762D01*
X135563660Y-84426721D01*
X135563660Y-84630599D01*
X135603434Y-84830558D01*
X135681455Y-85018916D01*
X135794723Y-85188434D01*
X135838661Y-85232372D01*
X135838660Y-86490297D01*
X135834984Y-86527620D01*
X135838660Y-86564942D01*
X135838660Y-86564952D01*
X135849657Y-86676605D01*
X135876000Y-86763448D01*
X135893114Y-86819866D01*
X135963686Y-86951896D01*
X135984691Y-86977490D01*
X136058659Y-87067621D01*
X136087662Y-87091423D01*
X136824821Y-87828582D01*
X136848619Y-87857581D01*
X136877617Y-87881379D01*
X136879731Y-87883114D01*
X136881255Y-87885965D01*
X136935925Y-87952580D01*
X136881255Y-88019195D01*
X136809585Y-88153281D01*
X136765450Y-88298773D01*
X136756071Y-88394000D01*
X135603111Y-88394000D01*
X135559174Y-88350063D01*
X135389656Y-88236795D01*
X135201298Y-88158774D01*
X135001339Y-88119000D01*
X134797461Y-88119000D01*
X134597502Y-88158774D01*
X134409144Y-88236795D01*
X134239626Y-88350063D01*
X134095463Y-88494226D01*
X133982195Y-88663744D01*
X133904174Y-88852102D01*
X133864400Y-89052061D01*
X133864400Y-89255939D01*
X133904174Y-89455898D01*
X133982195Y-89644256D01*
X134095463Y-89813774D01*
X134239626Y-89957937D01*
X134409144Y-90071205D01*
X134597502Y-90149226D01*
X134797461Y-90189000D01*
X135001339Y-90189000D01*
X135201298Y-90149226D01*
X135389656Y-90071205D01*
X135559174Y-89957937D01*
X135603111Y-89914000D01*
X136750548Y-89914000D01*
X136750548Y-89995080D01*
X136765450Y-90146387D01*
X136809585Y-90291879D01*
X136881255Y-90425965D01*
X136935925Y-90492580D01*
X136881255Y-90559195D01*
X136809585Y-90693281D01*
X136765450Y-90838773D01*
X136750548Y-90990080D01*
X136750548Y-91265080D01*
X136765450Y-91416387D01*
X136809585Y-91561879D01*
X136881255Y-91695965D01*
X136935925Y-91762580D01*
X136881255Y-91829195D01*
X136809585Y-91963281D01*
X136765450Y-92108773D01*
X136750548Y-92260080D01*
X136750548Y-92307570D01*
X130726692Y-92307570D01*
X130726692Y-92260080D01*
X130711790Y-92108773D01*
X130667655Y-91963281D01*
X130595985Y-91829195D01*
X130577974Y-91807249D01*
X130617707Y-91759235D01*
X130677121Y-91649163D01*
X130713919Y-91529614D01*
X130723620Y-91413330D01*
X130564870Y-91254580D01*
X129215620Y-91254580D01*
X129215620Y-91274580D01*
X128961620Y-91274580D01*
X128961620Y-91254580D01*
X127612370Y-91254580D01*
X127453620Y-91413330D01*
X127463321Y-91529614D01*
X127500119Y-91649163D01*
X127559533Y-91759235D01*
X127599266Y-91807249D01*
X127581255Y-91829195D01*
X127509585Y-91963281D01*
X127465450Y-92108773D01*
X127450548Y-92260080D01*
X127450548Y-92535080D01*
X127465450Y-92686387D01*
X127509585Y-92831879D01*
X127581255Y-92965965D01*
X127635925Y-93032580D01*
X127581255Y-93099195D01*
X127509585Y-93233281D01*
X127465450Y-93378773D01*
X127450548Y-93530080D01*
X127450548Y-93608620D01*
X127121142Y-93608620D01*
X127083819Y-93604944D01*
X127046496Y-93608620D01*
X127046487Y-93608620D01*
X126934834Y-93619617D01*
X126791573Y-93663074D01*
X126659544Y-93733646D01*
X126659542Y-93733647D01*
X126659543Y-93733647D01*
X126572816Y-93804821D01*
X126572812Y-93804825D01*
X126543819Y-93828619D01*
X126520025Y-93857612D01*
X125245019Y-95132620D01*
X123912282Y-95132620D01*
X124297906Y-94746996D01*
X124337509Y-94711691D01*
X124373233Y-94664341D01*
X124410873Y-94618477D01*
X124418251Y-94604674D01*
X124427675Y-94592183D01*
X124453479Y-94538768D01*
X124481445Y-94486447D01*
X124485987Y-94471474D01*
X124492795Y-94457381D01*
X124507684Y-94399948D01*
X124524902Y-94343187D01*
X124526436Y-94327614D01*
X124530363Y-94312465D01*
X124533762Y-94253235D01*
X124539576Y-94194201D01*
X124534376Y-94141401D01*
X124529111Y-94012623D01*
X124588985Y-93963485D01*
X124637495Y-93904376D01*
X124696706Y-93973355D01*
X124795128Y-94050549D01*
X124906720Y-94107059D01*
X125027192Y-94140712D01*
X125151914Y-94150216D01*
X125252050Y-94147300D01*
X125410800Y-93988550D01*
X125410800Y-93385300D01*
X125664800Y-93385300D01*
X125664800Y-93988550D01*
X125823550Y-94147300D01*
X125923686Y-94150216D01*
X126048408Y-94140712D01*
X126168880Y-94107059D01*
X126280472Y-94050549D01*
X126378894Y-93973355D01*
X126460366Y-93878443D01*
X126521756Y-93769460D01*
X126560705Y-93650594D01*
X126572800Y-93544050D01*
X126414050Y-93385300D01*
X125664800Y-93385300D01*
X125410800Y-93385300D01*
X125390800Y-93385300D01*
X125390800Y-93158550D01*
X125410050Y-93139300D01*
X125410800Y-93139300D01*
X125410800Y-92535300D01*
X125410050Y-92535300D01*
X125390800Y-92516050D01*
X125390800Y-92389300D01*
X125410800Y-92389300D01*
X125410800Y-91735300D01*
X125390800Y-91735300D01*
X125390800Y-91608550D01*
X125410050Y-91589300D01*
X125410800Y-91589300D01*
X125410800Y-90985300D01*
X125664800Y-90985300D01*
X125664800Y-91589300D01*
X125665550Y-91589300D01*
X125763550Y-91687300D01*
X125715550Y-91735300D01*
X125664800Y-91735300D01*
X125664800Y-92389300D01*
X125715550Y-92389300D01*
X125763550Y-92437300D01*
X125665550Y-92535300D01*
X125664800Y-92535300D01*
X125664800Y-93139300D01*
X125665550Y-93139300D01*
X125823550Y-93297300D01*
X125923686Y-93300216D01*
X126048408Y-93290712D01*
X126168880Y-93257059D01*
X126280472Y-93200549D01*
X126358564Y-93139300D01*
X126414050Y-93139300D01*
X126572800Y-92980550D01*
X126560705Y-92874006D01*
X126548677Y-92837300D01*
X126560705Y-92800594D01*
X126572800Y-92694050D01*
X126414050Y-92535300D01*
X126358564Y-92535300D01*
X126280472Y-92474051D01*
X126207899Y-92437300D01*
X126280472Y-92400549D01*
X126294814Y-92389300D01*
X126414050Y-92389300D01*
X126572800Y-92230550D01*
X126560705Y-92124006D01*
X126540486Y-92062300D01*
X126560705Y-92000594D01*
X126572800Y-91894050D01*
X126414050Y-91735300D01*
X126294814Y-91735300D01*
X126280472Y-91724051D01*
X126207899Y-91687300D01*
X126280472Y-91650549D01*
X126358564Y-91589300D01*
X126414050Y-91589300D01*
X126572800Y-91430550D01*
X126560705Y-91324006D01*
X126548677Y-91287300D01*
X126560705Y-91250594D01*
X126572800Y-91144050D01*
X126414050Y-90985300D01*
X126358564Y-90985300D01*
X126280472Y-90924051D01*
X126168880Y-90867541D01*
X126048408Y-90833888D01*
X125923686Y-90824384D01*
X125823550Y-90827300D01*
X125665550Y-90985300D01*
X125664800Y-90985300D01*
X125410800Y-90985300D01*
X125410050Y-90985300D01*
X125390800Y-90966050D01*
X125390800Y-90739300D01*
X125410800Y-90739300D01*
X125410800Y-90136050D01*
X125664800Y-90136050D01*
X125664800Y-90739300D01*
X126414050Y-90739300D01*
X126572800Y-90580550D01*
X126560705Y-90474006D01*
X126521756Y-90355140D01*
X126460366Y-90246157D01*
X126378894Y-90151245D01*
X126280472Y-90074051D01*
X126168880Y-90017541D01*
X126048408Y-89983888D01*
X125923686Y-89974384D01*
X125823550Y-89977300D01*
X125664800Y-90136050D01*
X125410800Y-90136050D01*
X125252050Y-89977300D01*
X125151914Y-89974384D01*
X125027192Y-89983888D01*
X124906720Y-90017541D01*
X124795128Y-90074051D01*
X124696706Y-90151245D01*
X124637495Y-90220224D01*
X124588985Y-90161115D01*
X124492294Y-90081763D01*
X124381980Y-90022798D01*
X124262282Y-89986488D01*
X124137800Y-89974228D01*
X123391808Y-89974228D01*
X122091072Y-88591507D01*
X122091072Y-87640000D01*
X122074008Y-87466746D01*
X122023472Y-87300150D01*
X121941405Y-87146614D01*
X121830962Y-87012038D01*
X121810201Y-86995000D01*
X121830962Y-86977962D01*
X121941405Y-86843386D01*
X122023472Y-86689850D01*
X122074008Y-86523254D01*
X122091072Y-86350000D01*
X122091072Y-85993729D01*
X124248804Y-83835998D01*
X124277801Y-83812201D01*
X124304509Y-83779657D01*
X124309814Y-83773193D01*
X124381980Y-83751302D01*
X124492294Y-83692337D01*
X124588985Y-83612985D01*
X124637495Y-83553876D01*
X124696706Y-83622855D01*
X124795128Y-83700049D01*
X124906720Y-83756559D01*
X125027192Y-83790212D01*
X125151914Y-83799716D01*
X125252050Y-83796800D01*
X125410800Y-83638050D01*
X125410800Y-83034800D01*
X125390800Y-83034800D01*
X125390800Y-82808050D01*
X125410050Y-82788800D01*
X125410800Y-82788800D01*
X125410800Y-82184800D01*
X125410050Y-82184800D01*
X125390800Y-82165550D01*
X125390800Y-82038800D01*
X125410800Y-82038800D01*
X125410800Y-81384800D01*
X125390800Y-81384800D01*
X125390800Y-81258050D01*
X125410050Y-81238800D01*
X125410800Y-81238800D01*
X125410800Y-80634800D01*
X125410050Y-80634800D01*
X125390800Y-80615550D01*
X125390800Y-80388800D01*
X125410800Y-80388800D01*
X125410800Y-79785550D01*
X125252050Y-79626800D01*
X125151914Y-79623884D01*
X125027192Y-79633388D01*
X124906720Y-79667041D01*
X124795128Y-79723551D01*
X124696706Y-79800745D01*
X124637495Y-79869724D01*
X124588985Y-79810615D01*
X124492294Y-79731263D01*
X124485738Y-79727759D01*
X124485103Y-79721314D01*
X124441646Y-79578053D01*
X124371074Y-79446024D01*
X124276101Y-79330299D01*
X124247104Y-79306502D01*
X122880271Y-77939669D01*
X123047398Y-77906426D01*
X123235756Y-77828405D01*
X123405274Y-77715137D01*
X123549437Y-77570974D01*
X123662705Y-77401456D01*
X123740726Y-77213098D01*
X123780500Y-77013139D01*
X123780500Y-76809261D01*
X123740726Y-76609302D01*
X123662705Y-76420944D01*
X123549437Y-76251426D01*
X123405274Y-76107263D01*
X123235756Y-75993995D01*
X123047398Y-75915974D01*
X122847439Y-75876200D01*
X122643561Y-75876200D01*
X122481260Y-75908483D01*
X122466878Y-75909900D01*
X119328433Y-75909900D01*
X119291100Y-75906223D01*
X119253767Y-75909900D01*
X119142114Y-75920897D01*
X118998853Y-75964354D01*
X118866824Y-76034926D01*
X118751099Y-76129899D01*
X118656126Y-76245624D01*
X118585554Y-76377653D01*
X118542097Y-76520914D01*
X118531430Y-76629218D01*
X118464754Y-76608992D01*
X118291500Y-76591928D01*
X117366500Y-76591928D01*
X117193246Y-76608992D01*
X117026650Y-76659528D01*
X116873114Y-76741595D01*
X116738538Y-76852038D01*
X116628095Y-76986614D01*
X116546028Y-77140150D01*
X116495492Y-77306746D01*
X116491724Y-77345000D01*
X115555353Y-77345000D01*
X115552490Y-77338089D01*
X115389975Y-77094868D01*
X115183132Y-76888025D01*
X114939911Y-76725510D01*
X114669658Y-76613568D01*
X114382760Y-76556500D01*
X114090240Y-76556500D01*
X113803342Y-76613568D01*
X113533089Y-76725510D01*
X113289868Y-76888025D01*
X113083025Y-77094868D01*
X112920510Y-77338089D01*
X112808568Y-77608342D01*
X112751500Y-77895240D01*
X112751500Y-78187760D01*
X112808568Y-78474658D01*
X112920510Y-78744911D01*
X113083025Y-78988132D01*
X113289868Y-79194975D01*
X113464260Y-79311500D01*
X113289868Y-79428025D01*
X113083025Y-79634868D01*
X112920510Y-79878089D01*
X112808568Y-80148342D01*
X112751500Y-80435240D01*
X112751500Y-80727760D01*
X112808568Y-81014658D01*
X112920510Y-81284911D01*
X113083025Y-81528132D01*
X113289868Y-81734975D01*
X113464260Y-81851500D01*
X113289868Y-81968025D01*
X113083025Y-82174868D01*
X112920510Y-82418089D01*
X112808568Y-82688342D01*
X112751500Y-82975240D01*
X112751500Y-83267760D01*
X112808568Y-83554658D01*
X112920510Y-83824911D01*
X113083025Y-84068132D01*
X113289868Y-84274975D01*
X113464260Y-84391500D01*
X113289868Y-84508025D01*
X113083025Y-84714868D01*
X112920510Y-84958089D01*
X112808568Y-85228342D01*
X112751500Y-85515240D01*
X112751500Y-85807760D01*
X112808568Y-86094658D01*
X112920510Y-86364911D01*
X113083025Y-86608132D01*
X113289868Y-86814975D01*
X113464260Y-86931500D01*
X113289868Y-87048025D01*
X113083025Y-87254868D01*
X112920510Y-87498089D01*
X112808568Y-87768342D01*
X112751500Y-88055240D01*
X112751500Y-88347760D01*
X112808568Y-88634658D01*
X112891766Y-88835516D01*
X112885124Y-88839066D01*
X112769399Y-88934039D01*
X112745601Y-88963037D01*
X111738787Y-89969852D01*
X111709789Y-89993650D01*
X111685991Y-90022648D01*
X111685990Y-90022649D01*
X111614815Y-90109375D01*
X111544243Y-90241405D01*
X111520220Y-90320601D01*
X111500787Y-90384665D01*
X111492454Y-90469266D01*
X111486113Y-90533651D01*
X111489790Y-90570983D01*
X111489789Y-96718879D01*
X111486113Y-96756202D01*
X111489789Y-96793524D01*
X111489789Y-96793534D01*
X111500786Y-96905187D01*
X111537432Y-97025994D01*
X111544243Y-97048448D01*
X111614815Y-97180478D01*
X111634756Y-97204776D01*
X111709788Y-97296203D01*
X111738792Y-97320006D01*
X113291287Y-98872502D01*
X113315086Y-98901501D01*
X113430811Y-98996474D01*
X113562840Y-99067046D01*
X113706101Y-99110503D01*
X113817754Y-99121500D01*
X113817763Y-99121500D01*
X113855086Y-99125176D01*
X113892409Y-99121500D01*
X115440803Y-99121500D01*
X115376695Y-99217444D01*
X115298674Y-99405802D01*
X115258900Y-99605761D01*
X115258900Y-99809639D01*
X115298674Y-100009598D01*
X115376695Y-100197956D01*
X115489963Y-100367474D01*
X115533502Y-100411013D01*
X115530224Y-100444300D01*
X115533900Y-100481622D01*
X115533900Y-100481633D01*
X115544897Y-100593286D01*
X115557258Y-100634033D01*
X115588354Y-100736546D01*
X115658926Y-100868576D01*
X115722548Y-100946099D01*
X115753900Y-100984301D01*
X115782898Y-101008099D01*
X116311400Y-101536602D01*
X116335199Y-101565601D01*
X116450924Y-101660574D01*
X116582953Y-101731146D01*
X116726214Y-101774603D01*
X116837867Y-101785600D01*
X116837876Y-101785600D01*
X116875199Y-101789276D01*
X116912522Y-101785600D01*
X117433928Y-101785600D01*
X117433928Y-102275600D01*
X117450992Y-102448854D01*
X117501528Y-102615450D01*
X117583595Y-102768986D01*
X117694038Y-102903562D01*
X117828614Y-103014005D01*
X117982150Y-103096072D01*
X118148746Y-103146608D01*
X118322000Y-103163672D01*
X119422000Y-103163672D01*
X119595254Y-103146608D01*
X119761850Y-103096072D01*
X119915386Y-103014005D01*
X120049962Y-102903562D01*
X120160405Y-102768986D01*
X120242472Y-102615450D01*
X120293008Y-102448854D01*
X120310072Y-102275600D01*
X120310072Y-101785600D01*
X121822078Y-101785600D01*
X121859400Y-101789276D01*
X121896722Y-101785600D01*
X121896733Y-101785600D01*
X122008386Y-101774603D01*
X122151647Y-101731146D01*
X122283676Y-101660574D01*
X122399401Y-101565601D01*
X122423203Y-101536598D01*
X122931222Y-101028580D01*
X123470461Y-101028580D01*
X123528395Y-101136966D01*
X123638838Y-101271542D01*
X123773414Y-101381985D01*
X123926950Y-101464052D01*
X124093546Y-101514588D01*
X124266800Y-101531652D01*
X124844512Y-101531652D01*
X125187326Y-101805508D01*
X124266800Y-101805508D01*
X124093546Y-101822572D01*
X123926950Y-101873108D01*
X123773414Y-101955175D01*
X123638838Y-102065618D01*
X123528395Y-102200194D01*
X123446328Y-102353730D01*
X123395792Y-102520326D01*
X123378728Y-102693580D01*
X123378728Y-103443580D01*
X123395792Y-103616834D01*
X123446328Y-103783430D01*
X123528395Y-103936966D01*
X123638838Y-104071542D01*
X123773414Y-104181985D01*
X123926950Y-104264052D01*
X124093546Y-104314588D01*
X124196677Y-104324745D01*
X124256826Y-104437276D01*
X124282989Y-104469155D01*
X124351799Y-104553001D01*
X124380803Y-104576804D01*
X126905098Y-107101100D01*
X122967700Y-107101100D01*
X122967700Y-106946361D01*
X122927926Y-106746402D01*
X122849905Y-106558044D01*
X122736637Y-106388526D01*
X122592474Y-106244363D01*
X122422956Y-106131095D01*
X122234598Y-106053074D01*
X122034639Y-106013300D01*
X121830761Y-106013300D01*
X121630802Y-106053074D01*
X121442444Y-106131095D01*
X121272926Y-106244363D01*
X121228989Y-106288300D01*
X120814322Y-106288300D01*
X120776999Y-106284624D01*
X120739677Y-106288300D01*
X120739667Y-106288300D01*
X120628014Y-106299297D01*
X120484753Y-106342754D01*
X120352723Y-106413326D01*
X120310688Y-106447824D01*
X120308867Y-106449318D01*
X120307000Y-105711350D01*
X120148250Y-105552600D01*
X118999000Y-105552600D01*
X118999000Y-107401850D01*
X119157750Y-107560600D01*
X119189708Y-107560791D01*
X118682303Y-108068196D01*
X118653299Y-108091999D01*
X118600928Y-108155814D01*
X118558326Y-108207724D01*
X118501316Y-108314381D01*
X118487754Y-108339754D01*
X118473596Y-108386428D01*
X118413300Y-108386428D01*
X118288818Y-108398688D01*
X118169120Y-108434998D01*
X118058806Y-108493963D01*
X117962115Y-108573315D01*
X117882763Y-108670006D01*
X117843300Y-108743835D01*
X117803837Y-108670006D01*
X117724485Y-108573315D01*
X117627794Y-108493963D01*
X117517480Y-108434998D01*
X117397782Y-108398688D01*
X117273300Y-108386428D01*
X117253300Y-108386428D01*
X117253300Y-108249592D01*
X117363505Y-108084658D01*
X117441526Y-107896300D01*
X117481300Y-107696341D01*
X117481300Y-107492463D01*
X117441526Y-107292504D01*
X117363505Y-107104146D01*
X117250237Y-106934628D01*
X117241209Y-106925600D01*
X117433928Y-106925600D01*
X117446188Y-107050082D01*
X117482498Y-107169780D01*
X117541463Y-107280094D01*
X117620815Y-107376785D01*
X117717506Y-107456137D01*
X117827820Y-107515102D01*
X117947518Y-107551412D01*
X118072000Y-107563672D01*
X118586250Y-107560600D01*
X118745000Y-107401850D01*
X118745000Y-105552600D01*
X117595750Y-105552600D01*
X117437000Y-105711350D01*
X117433928Y-106925600D01*
X117241209Y-106925600D01*
X117106074Y-106790465D01*
X116936556Y-106677197D01*
X116748198Y-106599176D01*
X116548239Y-106559402D01*
X116344361Y-106559402D01*
X116144402Y-106599176D01*
X115956044Y-106677197D01*
X115786526Y-106790465D01*
X115642363Y-106934628D01*
X115529095Y-107104146D01*
X115451074Y-107292504D01*
X115411300Y-107492463D01*
X115411300Y-107696341D01*
X115451074Y-107896300D01*
X115529095Y-108084658D01*
X115642363Y-108254176D01*
X115733301Y-108345114D01*
X115733301Y-108386428D01*
X115713300Y-108386428D01*
X115588818Y-108398688D01*
X115469120Y-108434998D01*
X115403915Y-108469852D01*
X115406672Y-108086800D01*
X115394412Y-107962318D01*
X115358102Y-107842620D01*
X115299137Y-107732306D01*
X115219785Y-107635615D01*
X115123094Y-107556263D01*
X115012780Y-107497298D01*
X114893082Y-107460988D01*
X114768600Y-107448728D01*
X114179350Y-107451800D01*
X114020600Y-107610550D01*
X114020600Y-108672300D01*
X114040600Y-108672300D01*
X114040600Y-108926300D01*
X114020600Y-108926300D01*
X114020600Y-109988050D01*
X114178204Y-110145654D01*
X113900131Y-110423728D01*
X113268600Y-110423728D01*
X113095346Y-110440792D01*
X112928750Y-110491328D01*
X112775214Y-110573395D01*
X112640638Y-110683838D01*
X112530195Y-110818414D01*
X112448128Y-110971950D01*
X112397592Y-111138546D01*
X112380528Y-111311800D01*
X112380528Y-112215184D01*
X112116630Y-111923752D01*
X111625044Y-111165663D01*
X111260989Y-110338734D01*
X111152102Y-109919555D01*
X111149278Y-109511800D01*
X112380528Y-109511800D01*
X112392788Y-109636282D01*
X112429098Y-109755980D01*
X112488063Y-109866294D01*
X112567415Y-109962985D01*
X112664106Y-110042337D01*
X112774420Y-110101302D01*
X112894118Y-110137612D01*
X113018600Y-110149872D01*
X113607850Y-110146800D01*
X113766600Y-109988050D01*
X113766600Y-108926300D01*
X112542350Y-108926300D01*
X112383600Y-109085050D01*
X112380528Y-109511800D01*
X111149278Y-109511800D01*
X111139406Y-108086800D01*
X112380528Y-108086800D01*
X112383600Y-108513550D01*
X112542350Y-108672300D01*
X113766600Y-108672300D01*
X113766600Y-107610550D01*
X113607850Y-107451800D01*
X113018600Y-107448728D01*
X112894118Y-107460988D01*
X112774420Y-107497298D01*
X112664106Y-107556263D01*
X112567415Y-107635615D01*
X112488063Y-107732306D01*
X112429098Y-107842620D01*
X112392788Y-107962318D01*
X112380528Y-108086800D01*
X111139406Y-108086800D01*
X111121741Y-105537260D01*
X111136059Y-105567320D01*
X111310112Y-105800669D01*
X111526345Y-105995578D01*
X111776448Y-106144557D01*
X112050809Y-106241881D01*
X112280700Y-106121214D01*
X112280700Y-104927400D01*
X112534700Y-104927400D01*
X112534700Y-106121214D01*
X112764591Y-106241881D01*
X113038952Y-106144557D01*
X113289055Y-105995578D01*
X113505288Y-105800669D01*
X113679341Y-105567320D01*
X113804525Y-105304499D01*
X113849176Y-105157290D01*
X113727855Y-104927400D01*
X112534700Y-104927400D01*
X112280700Y-104927400D01*
X112260700Y-104927400D01*
X112260700Y-104673400D01*
X112280700Y-104673400D01*
X112280700Y-104653400D01*
X112534700Y-104653400D01*
X112534700Y-104673400D01*
X113727855Y-104673400D01*
X113849176Y-104443510D01*
X113804525Y-104296301D01*
X113679341Y-104033480D01*
X113598875Y-103925600D01*
X117433928Y-103925600D01*
X117437000Y-105139850D01*
X117595750Y-105298600D01*
X118745000Y-105298600D01*
X118745000Y-103449350D01*
X118999000Y-103449350D01*
X118999000Y-105298600D01*
X120148250Y-105298600D01*
X120307000Y-105139850D01*
X120310072Y-103925600D01*
X120297812Y-103801118D01*
X120261502Y-103681420D01*
X120202537Y-103571106D01*
X120123185Y-103474415D01*
X120026494Y-103395063D01*
X119916180Y-103336098D01*
X119796482Y-103299788D01*
X119672000Y-103287528D01*
X119157750Y-103290600D01*
X118999000Y-103449350D01*
X118745000Y-103449350D01*
X118586250Y-103290600D01*
X118072000Y-103287528D01*
X117947518Y-103299788D01*
X117827820Y-103336098D01*
X117717506Y-103395063D01*
X117620815Y-103474415D01*
X117541463Y-103571106D01*
X117482498Y-103681420D01*
X117446188Y-103801118D01*
X117433928Y-103925600D01*
X113598875Y-103925600D01*
X113505288Y-103800131D01*
X113421234Y-103724366D01*
X113501880Y-103699902D01*
X113612194Y-103640937D01*
X113708885Y-103561585D01*
X113788237Y-103464894D01*
X113847202Y-103354580D01*
X113883512Y-103234882D01*
X113895772Y-103110400D01*
X113895772Y-101410400D01*
X113883512Y-101285918D01*
X113847202Y-101166220D01*
X113788237Y-101055906D01*
X113708885Y-100959215D01*
X113612194Y-100879863D01*
X113501880Y-100820898D01*
X113382182Y-100784588D01*
X113257700Y-100772328D01*
X111557700Y-100772328D01*
X111433218Y-100784588D01*
X111313520Y-100820898D01*
X111203206Y-100879863D01*
X111106515Y-100959215D01*
X111090163Y-100979140D01*
X110946800Y-80285837D01*
X110946800Y-74955162D01*
X151978873Y-74965260D01*
G37*
X151978873Y-74965260D02*
X153697288Y-75051253D01*
X155389383Y-75284990D01*
X157054668Y-75665315D01*
X158680467Y-76189330D01*
X160254410Y-76853051D01*
X161764520Y-77651426D01*
X163199286Y-78578367D01*
X164517449Y-79603231D01*
X164722445Y-109294194D01*
X164356824Y-109624966D01*
X162995048Y-110656184D01*
X161548580Y-111564791D01*
X160028429Y-112343870D01*
X158446175Y-112987489D01*
X156813839Y-113490759D01*
X155143844Y-113849849D01*
X153439023Y-114063260D01*
X153147582Y-114082945D01*
X153235756Y-114035814D01*
X153351481Y-113940841D01*
X153375283Y-113911838D01*
X153916844Y-113370278D01*
X153945841Y-113346481D01*
X153976862Y-113308682D01*
X154040814Y-113230757D01*
X154111386Y-113098727D01*
X154116046Y-113083364D01*
X154154843Y-112955466D01*
X154165840Y-112843813D01*
X154165840Y-112843803D01*
X154169516Y-112806480D01*
X154165840Y-112769157D01*
X154165840Y-107687603D01*
X154169516Y-107650280D01*
X154165840Y-107612957D01*
X154165840Y-107612947D01*
X154154843Y-107501294D01*
X154111386Y-107358033D01*
X154040814Y-107226004D01*
X153945841Y-107110279D01*
X153916843Y-107086481D01*
X153286841Y-106456480D01*
X156372402Y-103370920D01*
X159002587Y-103370920D01*
X159013217Y-103390807D01*
X159187792Y-103603528D01*
X159400513Y-103778103D01*
X159592871Y-103880920D01*
X159400513Y-103983737D01*
X159187792Y-104158312D01*
X159013217Y-104371033D01*
X158883496Y-104613725D01*
X158803614Y-104877060D01*
X158776641Y-105150920D01*
X158803614Y-105424780D01*
X158883496Y-105688115D01*
X159013217Y-105930807D01*
X159187792Y-106143528D01*
X159400513Y-106318103D01*
X159643205Y-106447824D01*
X159906540Y-106527706D01*
X160111775Y-106547920D01*
X161249025Y-106547920D01*
X161454260Y-106527706D01*
X161717595Y-106447824D01*
X161960287Y-106318103D01*
X162173008Y-106143528D01*
X162347583Y-105930807D01*
X162477304Y-105688115D01*
X162557186Y-105424780D01*
X162584159Y-105150920D01*
X162557186Y-104877060D01*
X162477304Y-104613725D01*
X162347583Y-104371033D01*
X162173008Y-104158312D01*
X161960287Y-103983737D01*
X161767929Y-103880920D01*
X161960287Y-103778103D01*
X162173008Y-103603528D01*
X162347583Y-103390807D01*
X162477304Y-103148115D01*
X162557186Y-102884780D01*
X162584159Y-102610920D01*
X162557186Y-102337060D01*
X162477304Y-102073725D01*
X162412896Y-101953226D01*
X163714058Y-100652065D01*
X163743050Y-100628272D01*
X163766844Y-100599279D01*
X163766848Y-100599275D01*
X163836340Y-100514598D01*
X163838023Y-100512547D01*
X163908595Y-100380518D01*
X163952052Y-100237257D01*
X163963049Y-100125604D01*
X163963049Y-100125595D01*
X163966725Y-100088272D01*
X163963049Y-100050949D01*
X163963049Y-90125772D01*
X163966725Y-90088449D01*
X163963049Y-90051126D01*
X163963049Y-90051116D01*
X163952052Y-89939463D01*
X163908595Y-89796202D01*
X163904759Y-89789026D01*
X163838023Y-89664172D01*
X163766848Y-89577446D01*
X163743050Y-89548448D01*
X163714052Y-89524650D01*
X162720644Y-88531242D01*
X162696841Y-88502239D01*
X162581116Y-88407266D01*
X162449087Y-88336694D01*
X162305826Y-88293237D01*
X162295197Y-88292190D01*
X162137448Y-88099972D01*
X161924727Y-87925397D01*
X161732369Y-87822580D01*
X161924727Y-87719763D01*
X162137448Y-87545188D01*
X162312023Y-87332467D01*
X162441744Y-87089775D01*
X162521626Y-86826440D01*
X162548599Y-86552580D01*
X162521626Y-86278720D01*
X162441744Y-86015385D01*
X162312023Y-85772693D01*
X162137448Y-85559972D01*
X161924727Y-85385397D01*
X161732369Y-85282580D01*
X161924727Y-85179763D01*
X162137448Y-85005188D01*
X162312023Y-84792467D01*
X162441744Y-84549775D01*
X162521626Y-84286440D01*
X162548599Y-84012580D01*
X162521626Y-83738720D01*
X162441744Y-83475385D01*
X162312023Y-83232693D01*
X162137448Y-83019972D01*
X161924727Y-82845397D01*
X161732369Y-82742580D01*
X161924727Y-82639763D01*
X162137448Y-82465188D01*
X162312023Y-82252467D01*
X162441744Y-82009775D01*
X162521626Y-81746440D01*
X162548599Y-81472580D01*
X162521626Y-81198720D01*
X162441744Y-80935385D01*
X162312023Y-80692693D01*
X162137448Y-80479972D01*
X161924727Y-80305397D01*
X161682035Y-80175676D01*
X161418700Y-80095794D01*
X161213465Y-80075580D01*
X160076215Y-80075580D01*
X159870980Y-80095794D01*
X159607645Y-80175676D01*
X159364953Y-80305397D01*
X159152232Y-80479972D01*
X158977657Y-80692693D01*
X158847936Y-80935385D01*
X158768054Y-81198720D01*
X158741081Y-81472580D01*
X158768054Y-81746440D01*
X158847936Y-82009775D01*
X158977657Y-82252467D01*
X159152232Y-82465188D01*
X159364953Y-82639763D01*
X159557311Y-82742580D01*
X159364953Y-82845397D01*
X159152232Y-83019972D01*
X158977657Y-83232693D01*
X158847936Y-83475385D01*
X158768054Y-83738720D01*
X158741081Y-84012580D01*
X158768054Y-84286440D01*
X158847936Y-84549775D01*
X158977657Y-84792467D01*
X159152232Y-85005188D01*
X159364953Y-85179763D01*
X159557311Y-85282580D01*
X159364953Y-85385397D01*
X159152232Y-85559972D01*
X158977657Y-85772693D01*
X158967027Y-85792580D01*
X149005957Y-85792580D01*
X149010070Y-85750823D01*
X149010070Y-85750814D01*
X149013746Y-85713491D01*
X149010070Y-85676168D01*
X149010070Y-81015492D01*
X149013746Y-80978169D01*
X149010070Y-80940846D01*
X149010070Y-80940837D01*
X148999073Y-80829184D01*
X148955616Y-80685923D01*
X148928290Y-80634800D01*
X148885044Y-80553893D01*
X148813869Y-80467167D01*
X148790071Y-80438169D01*
X148761074Y-80414372D01*
X147921903Y-79575202D01*
X147898101Y-79546199D01*
X147782376Y-79451226D01*
X147650347Y-79380654D01*
X147507086Y-79337197D01*
X147395433Y-79326200D01*
X147395422Y-79326200D01*
X147358100Y-79322524D01*
X147320778Y-79326200D01*
X137653237Y-79326200D01*
X137615912Y-79322524D01*
X137578587Y-79326200D01*
X137578579Y-79326200D01*
X137466926Y-79337197D01*
X137323665Y-79380654D01*
X137191636Y-79451226D01*
X137075911Y-79546199D01*
X137052113Y-79575197D01*
X135149731Y-81477580D01*
X130627192Y-81477580D01*
X130667655Y-81401879D01*
X130711790Y-81256387D01*
X130726692Y-81105080D01*
X130726692Y-80830080D01*
X130711790Y-80678773D01*
X130667655Y-80533281D01*
X130595985Y-80399195D01*
X130499532Y-80281668D01*
X130382005Y-80185215D01*
X130247919Y-80113545D01*
X130102427Y-80069410D01*
X129951120Y-80054508D01*
X129848620Y-80054508D01*
X129848620Y-79546148D01*
X129922786Y-79506505D01*
X130057362Y-79396062D01*
X130167805Y-79261486D01*
X130249872Y-79107950D01*
X130277127Y-79018100D01*
X130591328Y-79018100D01*
X130603588Y-79142582D01*
X130639898Y-79262280D01*
X130698863Y-79372594D01*
X130778215Y-79469285D01*
X130874906Y-79548637D01*
X130985220Y-79607602D01*
X131104918Y-79643912D01*
X131229400Y-79656172D01*
X131656150Y-79653100D01*
X131814900Y-79494350D01*
X131814900Y-78270100D01*
X132068900Y-78270100D01*
X132068900Y-79494350D01*
X132227650Y-79653100D01*
X132654400Y-79656172D01*
X132778882Y-79643912D01*
X132898580Y-79607602D01*
X133008894Y-79548637D01*
X133105585Y-79469285D01*
X133184937Y-79372594D01*
X133243902Y-79262280D01*
X133280212Y-79142582D01*
X133292472Y-79018100D01*
X133289400Y-78428850D01*
X133130650Y-78270100D01*
X132068900Y-78270100D01*
X131814900Y-78270100D01*
X130753150Y-78270100D01*
X130594400Y-78428850D01*
X130591328Y-79018100D01*
X130277127Y-79018100D01*
X130300408Y-78941354D01*
X130317472Y-78768100D01*
X130317472Y-77518100D01*
X130300408Y-77344846D01*
X130277128Y-77268100D01*
X130591328Y-77268100D01*
X130594400Y-77857350D01*
X130753150Y-78016100D01*
X131814900Y-78016100D01*
X131814900Y-76791850D01*
X132068900Y-76791850D01*
X132068900Y-78016100D01*
X133130650Y-78016100D01*
X133289400Y-77857350D01*
X133292472Y-77268100D01*
X133280212Y-77143618D01*
X133243902Y-77023920D01*
X133184937Y-76913606D01*
X133105585Y-76816915D01*
X133008894Y-76737563D01*
X132898580Y-76678598D01*
X132778882Y-76642288D01*
X132654400Y-76630028D01*
X132227650Y-76633100D01*
X132068900Y-76791850D01*
X131814900Y-76791850D01*
X131656150Y-76633100D01*
X131229400Y-76630028D01*
X131104918Y-76642288D01*
X130985220Y-76678598D01*
X130874906Y-76737563D01*
X130778215Y-76816915D01*
X130698863Y-76913606D01*
X130639898Y-77023920D01*
X130603588Y-77143618D01*
X130591328Y-77268100D01*
X130277128Y-77268100D01*
X130249872Y-77178250D01*
X130167805Y-77024714D01*
X130057362Y-76890138D01*
X129922786Y-76779695D01*
X129769250Y-76697628D01*
X129602654Y-76647092D01*
X129429400Y-76630028D01*
X128504400Y-76630028D01*
X128331146Y-76647092D01*
X128164550Y-76697628D01*
X128011014Y-76779695D01*
X127876438Y-76890138D01*
X127765995Y-77024714D01*
X127683928Y-77178250D01*
X127633392Y-77344846D01*
X127629624Y-77383100D01*
X127570723Y-77383100D01*
X127533400Y-77379424D01*
X127496077Y-77383100D01*
X127496067Y-77383100D01*
X127384414Y-77394097D01*
X127241153Y-77437554D01*
X127109124Y-77508126D01*
X126993399Y-77603099D01*
X126969596Y-77632103D01*
X126655788Y-77945911D01*
X126626790Y-77969709D01*
X126602992Y-77998707D01*
X126602991Y-77998708D01*
X126531816Y-78085434D01*
X126461244Y-78217464D01*
X126458204Y-78227487D01*
X126423876Y-78340656D01*
X126417788Y-78360725D01*
X126403114Y-78509710D01*
X126406791Y-78547042D01*
X126406791Y-79833244D01*
X126378894Y-79800745D01*
X126280472Y-79723551D01*
X126168880Y-79667041D01*
X126048408Y-79633388D01*
X125923686Y-79623884D01*
X125823550Y-79626800D01*
X125664800Y-79785550D01*
X125664800Y-80388800D01*
X125684800Y-80388800D01*
X125684800Y-80615550D01*
X125665550Y-80634800D01*
X125664800Y-80634800D01*
X125664800Y-81238800D01*
X125665550Y-81238800D01*
X125684800Y-81258050D01*
X125684800Y-81384800D01*
X125664800Y-81384800D01*
X125664800Y-82038800D01*
X125684800Y-82038800D01*
X125684800Y-82165550D01*
X125665550Y-82184800D01*
X125664800Y-82184800D01*
X125664800Y-82788800D01*
X125665550Y-82788800D01*
X125684800Y-82808050D01*
X125684800Y-83034800D01*
X125664800Y-83034800D01*
X125664800Y-83638050D01*
X125823550Y-83796800D01*
X125923686Y-83799716D01*
X126048408Y-83790212D01*
X126168880Y-83756559D01*
X126280472Y-83700049D01*
X126378894Y-83622855D01*
X126406790Y-83590357D01*
X126406790Y-85584319D01*
X126362853Y-85628256D01*
X126249585Y-85797774D01*
X126171564Y-85986132D01*
X126131790Y-86186091D01*
X126131790Y-86389969D01*
X126171564Y-86589928D01*
X126249585Y-86778286D01*
X126362853Y-86947804D01*
X126507016Y-87091967D01*
X126676534Y-87205235D01*
X126864892Y-87283256D01*
X127064851Y-87323030D01*
X127268729Y-87323030D01*
X127450548Y-87286864D01*
X127450548Y-87455080D01*
X127465450Y-87606387D01*
X127509585Y-87751879D01*
X127581255Y-87885965D01*
X127635925Y-87952580D01*
X127581255Y-88019195D01*
X127509585Y-88153281D01*
X127465450Y-88298773D01*
X127450548Y-88450080D01*
X127450548Y-88725080D01*
X127465450Y-88876387D01*
X127509585Y-89021879D01*
X127581255Y-89155965D01*
X127635925Y-89222580D01*
X127581255Y-89289195D01*
X127509585Y-89423281D01*
X127465450Y-89568773D01*
X127450548Y-89720080D01*
X127450548Y-89995080D01*
X127465450Y-90146387D01*
X127509585Y-90291879D01*
X127581255Y-90425965D01*
X127599266Y-90447911D01*
X127559533Y-90495925D01*
X127500119Y-90605997D01*
X127463321Y-90725546D01*
X127453620Y-90841830D01*
X127612370Y-91000580D01*
X128961620Y-91000580D01*
X128961620Y-90980580D01*
X129215620Y-90980580D01*
X129215620Y-91000580D01*
X130564870Y-91000580D01*
X130723620Y-90841830D01*
X130713919Y-90725546D01*
X130677121Y-90605997D01*
X130617707Y-90495925D01*
X130577974Y-90447911D01*
X130595985Y-90425965D01*
X130667655Y-90291879D01*
X130711790Y-90146387D01*
X130726692Y-89995080D01*
X130726692Y-89720080D01*
X130711790Y-89568773D01*
X130667655Y-89423281D01*
X130595985Y-89289195D01*
X130541315Y-89222580D01*
X130595985Y-89155965D01*
X130667655Y-89021879D01*
X130711790Y-88876387D01*
X130726692Y-88725080D01*
X130726692Y-88450080D01*
X130711790Y-88298773D01*
X130667655Y-88153281D01*
X130595985Y-88019195D01*
X130541315Y-87952580D01*
X130595985Y-87885965D01*
X130667655Y-87751879D01*
X130711790Y-87606387D01*
X130726692Y-87455080D01*
X130726692Y-87180080D01*
X130711790Y-87028773D01*
X130667655Y-86883281D01*
X130595985Y-86749195D01*
X130541315Y-86682580D01*
X130595985Y-86615965D01*
X130667655Y-86481879D01*
X130711790Y-86336387D01*
X130726692Y-86185080D01*
X130726692Y-85910080D01*
X130711790Y-85758773D01*
X130667655Y-85613281D01*
X130595985Y-85479195D01*
X130577974Y-85457249D01*
X130617707Y-85409235D01*
X130677121Y-85299163D01*
X130713919Y-85179614D01*
X130723620Y-85063330D01*
X130564870Y-84904580D01*
X129215620Y-84904580D01*
X129215620Y-84924580D01*
X128961620Y-84924580D01*
X128961620Y-84904580D01*
X128941620Y-84904580D01*
X128941620Y-84650580D01*
X128961620Y-84650580D01*
X128961620Y-84630580D01*
X129215620Y-84630580D01*
X129215620Y-84650580D01*
X130564870Y-84650580D01*
X130723620Y-84491830D01*
X130713919Y-84375546D01*
X130677121Y-84255997D01*
X130617707Y-84145925D01*
X130577974Y-84097911D01*
X130595985Y-84075965D01*
X130667655Y-83941879D01*
X130711790Y-83796387D01*
X130726692Y-83645080D01*
X130726692Y-83370080D01*
X130711790Y-83218773D01*
X130667655Y-83073281D01*
X130627192Y-82997580D01*
X135427210Y-82997580D01*
X135464532Y-83001256D01*
X135501854Y-82997580D01*
X135501865Y-82997580D01*
X135613518Y-82986583D01*
X135756779Y-82943126D01*
X135888808Y-82872554D01*
X136004533Y-82777581D01*
X136028336Y-82748577D01*
X136758601Y-82018312D01*
X136750548Y-82100080D01*
X136750548Y-82375080D01*
X136765450Y-82526387D01*
X136809585Y-82671879D01*
X136881255Y-82805965D01*
X136935925Y-82872580D01*
X136881255Y-82939195D01*
X136809585Y-83073281D01*
X136765450Y-83218773D01*
X136750548Y-83370080D01*
X136750548Y-83503595D01*
X136700599Y-83493660D01*
X136496721Y-83493660D01*
X136296762Y-83533434D01*
X136108404Y-83611455D01*
X135938886Y-83724723D01*
X135794723Y-83868886D01*
X135681455Y-84038404D01*
X135603434Y-84226762D01*
X135563660Y-84426721D01*
X135563660Y-84630599D01*
X135603434Y-84830558D01*
X135681455Y-85018916D01*
X135794723Y-85188434D01*
X135838661Y-85232372D01*
X135838660Y-86490297D01*
X135834984Y-86527620D01*
X135838660Y-86564942D01*
X135838660Y-86564952D01*
X135849657Y-86676605D01*
X135876000Y-86763448D01*
X135893114Y-86819866D01*
X135963686Y-86951896D01*
X135984691Y-86977490D01*
X136058659Y-87067621D01*
X136087662Y-87091423D01*
X136824821Y-87828582D01*
X136848619Y-87857581D01*
X136877617Y-87881379D01*
X136879731Y-87883114D01*
X136881255Y-87885965D01*
X136935925Y-87952580D01*
X136881255Y-88019195D01*
X136809585Y-88153281D01*
X136765450Y-88298773D01*
X136756071Y-88394000D01*
X135603111Y-88394000D01*
X135559174Y-88350063D01*
X135389656Y-88236795D01*
X135201298Y-88158774D01*
X135001339Y-88119000D01*
X134797461Y-88119000D01*
X134597502Y-88158774D01*
X134409144Y-88236795D01*
X134239626Y-88350063D01*
X134095463Y-88494226D01*
X133982195Y-88663744D01*
X133904174Y-88852102D01*
X133864400Y-89052061D01*
X133864400Y-89255939D01*
X133904174Y-89455898D01*
X133982195Y-89644256D01*
X134095463Y-89813774D01*
X134239626Y-89957937D01*
X134409144Y-90071205D01*
X134597502Y-90149226D01*
X134797461Y-90189000D01*
X135001339Y-90189000D01*
X135201298Y-90149226D01*
X135389656Y-90071205D01*
X135559174Y-89957937D01*
X135603111Y-89914000D01*
X136750548Y-89914000D01*
X136750548Y-89995080D01*
X136765450Y-90146387D01*
X136809585Y-90291879D01*
X136881255Y-90425965D01*
X136935925Y-90492580D01*
X136881255Y-90559195D01*
X136809585Y-90693281D01*
X136765450Y-90838773D01*
X136750548Y-90990080D01*
X136750548Y-91265080D01*
X136765450Y-91416387D01*
X136809585Y-91561879D01*
X136881255Y-91695965D01*
X136935925Y-91762580D01*
X136881255Y-91829195D01*
X136809585Y-91963281D01*
X136765450Y-92108773D01*
X136750548Y-92260080D01*
X136750548Y-92307570D01*
X130726692Y-92307570D01*
X130726692Y-92260080D01*
X130711790Y-92108773D01*
X130667655Y-91963281D01*
X130595985Y-91829195D01*
X130577974Y-91807249D01*
X130617707Y-91759235D01*
X130677121Y-91649163D01*
X130713919Y-91529614D01*
X130723620Y-91413330D01*
X130564870Y-91254580D01*
X129215620Y-91254580D01*
X129215620Y-91274580D01*
X128961620Y-91274580D01*
X128961620Y-91254580D01*
X127612370Y-91254580D01*
X127453620Y-91413330D01*
X127463321Y-91529614D01*
X127500119Y-91649163D01*
X127559533Y-91759235D01*
X127599266Y-91807249D01*
X127581255Y-91829195D01*
X127509585Y-91963281D01*
X127465450Y-92108773D01*
X127450548Y-92260080D01*
X127450548Y-92535080D01*
X127465450Y-92686387D01*
X127509585Y-92831879D01*
X127581255Y-92965965D01*
X127635925Y-93032580D01*
X127581255Y-93099195D01*
X127509585Y-93233281D01*
X127465450Y-93378773D01*
X127450548Y-93530080D01*
X127450548Y-93608620D01*
X127121142Y-93608620D01*
X127083819Y-93604944D01*
X127046496Y-93608620D01*
X127046487Y-93608620D01*
X126934834Y-93619617D01*
X126791573Y-93663074D01*
X126659544Y-93733646D01*
X126659542Y-93733647D01*
X126659543Y-93733647D01*
X126572816Y-93804821D01*
X126572812Y-93804825D01*
X126543819Y-93828619D01*
X126520025Y-93857612D01*
X125245019Y-95132620D01*
X123912282Y-95132620D01*
X124297906Y-94746996D01*
X124337509Y-94711691D01*
X124373233Y-94664341D01*
X124410873Y-94618477D01*
X124418251Y-94604674D01*
X124427675Y-94592183D01*
X124453479Y-94538768D01*
X124481445Y-94486447D01*
X124485987Y-94471474D01*
X124492795Y-94457381D01*
X124507684Y-94399948D01*
X124524902Y-94343187D01*
X124526436Y-94327614D01*
X124530363Y-94312465D01*
X124533762Y-94253235D01*
X124539576Y-94194201D01*
X124534376Y-94141401D01*
X124529111Y-94012623D01*
X124588985Y-93963485D01*
X124637495Y-93904376D01*
X124696706Y-93973355D01*
X124795128Y-94050549D01*
X124906720Y-94107059D01*
X125027192Y-94140712D01*
X125151914Y-94150216D01*
X125252050Y-94147300D01*
X125410800Y-93988550D01*
X125410800Y-93385300D01*
X125664800Y-93385300D01*
X125664800Y-93988550D01*
X125823550Y-94147300D01*
X125923686Y-94150216D01*
X126048408Y-94140712D01*
X126168880Y-94107059D01*
X126280472Y-94050549D01*
X126378894Y-93973355D01*
X126460366Y-93878443D01*
X126521756Y-93769460D01*
X126560705Y-93650594D01*
X126572800Y-93544050D01*
X126414050Y-93385300D01*
X125664800Y-93385300D01*
X125410800Y-93385300D01*
X125390800Y-93385300D01*
X125390800Y-93158550D01*
X125410050Y-93139300D01*
X125410800Y-93139300D01*
X125410800Y-92535300D01*
X125410050Y-92535300D01*
X125390800Y-92516050D01*
X125390800Y-92389300D01*
X125410800Y-92389300D01*
X125410800Y-91735300D01*
X125390800Y-91735300D01*
X125390800Y-91608550D01*
X125410050Y-91589300D01*
X125410800Y-91589300D01*
X125410800Y-90985300D01*
X125664800Y-90985300D01*
X125664800Y-91589300D01*
X125665550Y-91589300D01*
X125763550Y-91687300D01*
X125715550Y-91735300D01*
X125664800Y-91735300D01*
X125664800Y-92389300D01*
X125715550Y-92389300D01*
X125763550Y-92437300D01*
X125665550Y-92535300D01*
X125664800Y-92535300D01*
X125664800Y-93139300D01*
X125665550Y-93139300D01*
X125823550Y-93297300D01*
X125923686Y-93300216D01*
X126048408Y-93290712D01*
X126168880Y-93257059D01*
X126280472Y-93200549D01*
X126358564Y-93139300D01*
X126414050Y-93139300D01*
X126572800Y-92980550D01*
X126560705Y-92874006D01*
X126548677Y-92837300D01*
X126560705Y-92800594D01*
X126572800Y-92694050D01*
X126414050Y-92535300D01*
X126358564Y-92535300D01*
X126280472Y-92474051D01*
X126207899Y-92437300D01*
X126280472Y-92400549D01*
X126294814Y-92389300D01*
X126414050Y-92389300D01*
X126572800Y-92230550D01*
X126560705Y-92124006D01*
X126540486Y-92062300D01*
X126560705Y-92000594D01*
X126572800Y-91894050D01*
X126414050Y-91735300D01*
X126294814Y-91735300D01*
X126280472Y-91724051D01*
X126207899Y-91687300D01*
X126280472Y-91650549D01*
X126358564Y-91589300D01*
X126414050Y-91589300D01*
X126572800Y-91430550D01*
X126560705Y-91324006D01*
X126548677Y-91287300D01*
X126560705Y-91250594D01*
X126572800Y-91144050D01*
X126414050Y-90985300D01*
X126358564Y-90985300D01*
X126280472Y-90924051D01*
X126168880Y-90867541D01*
X126048408Y-90833888D01*
X125923686Y-90824384D01*
X125823550Y-90827300D01*
X125665550Y-90985300D01*
X125664800Y-90985300D01*
X125410800Y-90985300D01*
X125410050Y-90985300D01*
X125390800Y-90966050D01*
X125390800Y-90739300D01*
X125410800Y-90739300D01*
X125410800Y-90136050D01*
X125664800Y-90136050D01*
X125664800Y-90739300D01*
X126414050Y-90739300D01*
X126572800Y-90580550D01*
X126560705Y-90474006D01*
X126521756Y-90355140D01*
X126460366Y-90246157D01*
X126378894Y-90151245D01*
X126280472Y-90074051D01*
X126168880Y-90017541D01*
X126048408Y-89983888D01*
X125923686Y-89974384D01*
X125823550Y-89977300D01*
X125664800Y-90136050D01*
X125410800Y-90136050D01*
X125252050Y-89977300D01*
X125151914Y-89974384D01*
X125027192Y-89983888D01*
X124906720Y-90017541D01*
X124795128Y-90074051D01*
X124696706Y-90151245D01*
X124637495Y-90220224D01*
X124588985Y-90161115D01*
X124492294Y-90081763D01*
X124381980Y-90022798D01*
X124262282Y-89986488D01*
X124137800Y-89974228D01*
X123391808Y-89974228D01*
X122091072Y-88591507D01*
X122091072Y-87640000D01*
X122074008Y-87466746D01*
X122023472Y-87300150D01*
X121941405Y-87146614D01*
X121830962Y-87012038D01*
X121810201Y-86995000D01*
X121830962Y-86977962D01*
X121941405Y-86843386D01*
X122023472Y-86689850D01*
X122074008Y-86523254D01*
X122091072Y-86350000D01*
X122091072Y-85993729D01*
X124248804Y-83835998D01*
X124277801Y-83812201D01*
X124304509Y-83779657D01*
X124309814Y-83773193D01*
X124381980Y-83751302D01*
X124492294Y-83692337D01*
X124588985Y-83612985D01*
X124637495Y-83553876D01*
X124696706Y-83622855D01*
X124795128Y-83700049D01*
X124906720Y-83756559D01*
X125027192Y-83790212D01*
X125151914Y-83799716D01*
X125252050Y-83796800D01*
X125410800Y-83638050D01*
X125410800Y-83034800D01*
X125390800Y-83034800D01*
X125390800Y-82808050D01*
X125410050Y-82788800D01*
X125410800Y-82788800D01*
X125410800Y-82184800D01*
X125410050Y-82184800D01*
X125390800Y-82165550D01*
X125390800Y-82038800D01*
X125410800Y-82038800D01*
X125410800Y-81384800D01*
X125390800Y-81384800D01*
X125390800Y-81258050D01*
X125410050Y-81238800D01*
X125410800Y-81238800D01*
X125410800Y-80634800D01*
X125410050Y-80634800D01*
X125390800Y-80615550D01*
X125390800Y-80388800D01*
X125410800Y-80388800D01*
X125410800Y-79785550D01*
X125252050Y-79626800D01*
X125151914Y-79623884D01*
X125027192Y-79633388D01*
X124906720Y-79667041D01*
X124795128Y-79723551D01*
X124696706Y-79800745D01*
X124637495Y-79869724D01*
X124588985Y-79810615D01*
X124492294Y-79731263D01*
X124485738Y-79727759D01*
X124485103Y-79721314D01*
X124441646Y-79578053D01*
X124371074Y-79446024D01*
X124276101Y-79330299D01*
X124247104Y-79306502D01*
X122880271Y-77939669D01*
X123047398Y-77906426D01*
X123235756Y-77828405D01*
X123405274Y-77715137D01*
X123549437Y-77570974D01*
X123662705Y-77401456D01*
X123740726Y-77213098D01*
X123780500Y-77013139D01*
X123780500Y-76809261D01*
X123740726Y-76609302D01*
X123662705Y-76420944D01*
X123549437Y-76251426D01*
X123405274Y-76107263D01*
X123235756Y-75993995D01*
X123047398Y-75915974D01*
X122847439Y-75876200D01*
X122643561Y-75876200D01*
X122481260Y-75908483D01*
X122466878Y-75909900D01*
X119328433Y-75909900D01*
X119291100Y-75906223D01*
X119253767Y-75909900D01*
X119142114Y-75920897D01*
X118998853Y-75964354D01*
X118866824Y-76034926D01*
X118751099Y-76129899D01*
X118656126Y-76245624D01*
X118585554Y-76377653D01*
X118542097Y-76520914D01*
X118531430Y-76629218D01*
X118464754Y-76608992D01*
X118291500Y-76591928D01*
X117366500Y-76591928D01*
X117193246Y-76608992D01*
X117026650Y-76659528D01*
X116873114Y-76741595D01*
X116738538Y-76852038D01*
X116628095Y-76986614D01*
X116546028Y-77140150D01*
X116495492Y-77306746D01*
X116491724Y-77345000D01*
X115555353Y-77345000D01*
X115552490Y-77338089D01*
X115389975Y-77094868D01*
X115183132Y-76888025D01*
X114939911Y-76725510D01*
X114669658Y-76613568D01*
X114382760Y-76556500D01*
X114090240Y-76556500D01*
X113803342Y-76613568D01*
X113533089Y-76725510D01*
X113289868Y-76888025D01*
X113083025Y-77094868D01*
X112920510Y-77338089D01*
X112808568Y-77608342D01*
X112751500Y-77895240D01*
X112751500Y-78187760D01*
X112808568Y-78474658D01*
X112920510Y-78744911D01*
X113083025Y-78988132D01*
X113289868Y-79194975D01*
X113464260Y-79311500D01*
X113289868Y-79428025D01*
X113083025Y-79634868D01*
X112920510Y-79878089D01*
X112808568Y-80148342D01*
X112751500Y-80435240D01*
X112751500Y-80727760D01*
X112808568Y-81014658D01*
X112920510Y-81284911D01*
X113083025Y-81528132D01*
X113289868Y-81734975D01*
X113464260Y-81851500D01*
X113289868Y-81968025D01*
X113083025Y-82174868D01*
X112920510Y-82418089D01*
X112808568Y-82688342D01*
X112751500Y-82975240D01*
X112751500Y-83267760D01*
X112808568Y-83554658D01*
X112920510Y-83824911D01*
X113083025Y-84068132D01*
X113289868Y-84274975D01*
X113464260Y-84391500D01*
X113289868Y-84508025D01*
X113083025Y-84714868D01*
X112920510Y-84958089D01*
X112808568Y-85228342D01*
X112751500Y-85515240D01*
X112751500Y-85807760D01*
X112808568Y-86094658D01*
X112920510Y-86364911D01*
X113083025Y-86608132D01*
X113289868Y-86814975D01*
X113464260Y-86931500D01*
X113289868Y-87048025D01*
X113083025Y-87254868D01*
X112920510Y-87498089D01*
X112808568Y-87768342D01*
X112751500Y-88055240D01*
X112751500Y-88347760D01*
X112808568Y-88634658D01*
X112891766Y-88835516D01*
X112885124Y-88839066D01*
X112769399Y-88934039D01*
X112745601Y-88963037D01*
X111738787Y-89969852D01*
X111709789Y-89993650D01*
X111685991Y-90022648D01*
X111685990Y-90022649D01*
X111614815Y-90109375D01*
X111544243Y-90241405D01*
X111520220Y-90320601D01*
X111500787Y-90384665D01*
X111492454Y-90469266D01*
X111486113Y-90533651D01*
X111489790Y-90570983D01*
X111489789Y-96718879D01*
X111486113Y-96756202D01*
X111489789Y-96793524D01*
X111489789Y-96793534D01*
X111500786Y-96905187D01*
X111537432Y-97025994D01*
X111544243Y-97048448D01*
X111614815Y-97180478D01*
X111634756Y-97204776D01*
X111709788Y-97296203D01*
X111738792Y-97320006D01*
X113291287Y-98872502D01*
X113315086Y-98901501D01*
X113430811Y-98996474D01*
X113562840Y-99067046D01*
X113706101Y-99110503D01*
X113817754Y-99121500D01*
X113817763Y-99121500D01*
X113855086Y-99125176D01*
X113892409Y-99121500D01*
X115440803Y-99121500D01*
X115376695Y-99217444D01*
X115298674Y-99405802D01*
X115258900Y-99605761D01*
X115258900Y-99809639D01*
X115298674Y-100009598D01*
X115376695Y-100197956D01*
X115489963Y-100367474D01*
X115533502Y-100411013D01*
X115530224Y-100444300D01*
X115533900Y-100481622D01*
X115533900Y-100481633D01*
X115544897Y-100593286D01*
X115557258Y-100634033D01*
X115588354Y-100736546D01*
X115658926Y-100868576D01*
X115722548Y-100946099D01*
X115753900Y-100984301D01*
X115782898Y-101008099D01*
X116311400Y-101536602D01*
X116335199Y-101565601D01*
X116450924Y-101660574D01*
X116582953Y-101731146D01*
X116726214Y-101774603D01*
X116837867Y-101785600D01*
X116837876Y-101785600D01*
X116875199Y-101789276D01*
X116912522Y-101785600D01*
X117433928Y-101785600D01*
X117433928Y-102275600D01*
X117450992Y-102448854D01*
X117501528Y-102615450D01*
X117583595Y-102768986D01*
X117694038Y-102903562D01*
X117828614Y-103014005D01*
X117982150Y-103096072D01*
X118148746Y-103146608D01*
X118322000Y-103163672D01*
X119422000Y-103163672D01*
X119595254Y-103146608D01*
X119761850Y-103096072D01*
X119915386Y-103014005D01*
X120049962Y-102903562D01*
X120160405Y-102768986D01*
X120242472Y-102615450D01*
X120293008Y-102448854D01*
X120310072Y-102275600D01*
X120310072Y-101785600D01*
X121822078Y-101785600D01*
X121859400Y-101789276D01*
X121896722Y-101785600D01*
X121896733Y-101785600D01*
X122008386Y-101774603D01*
X122151647Y-101731146D01*
X122283676Y-101660574D01*
X122399401Y-101565601D01*
X122423203Y-101536598D01*
X122931222Y-101028580D01*
X123470461Y-101028580D01*
X123528395Y-101136966D01*
X123638838Y-101271542D01*
X123773414Y-101381985D01*
X123926950Y-101464052D01*
X124093546Y-101514588D01*
X124266800Y-101531652D01*
X124844512Y-101531652D01*
X125187326Y-101805508D01*
X124266800Y-101805508D01*
X124093546Y-101822572D01*
X123926950Y-101873108D01*
X123773414Y-101955175D01*
X123638838Y-102065618D01*
X123528395Y-102200194D01*
X123446328Y-102353730D01*
X123395792Y-102520326D01*
X123378728Y-102693580D01*
X123378728Y-103443580D01*
X123395792Y-103616834D01*
X123446328Y-103783430D01*
X123528395Y-103936966D01*
X123638838Y-104071542D01*
X123773414Y-104181985D01*
X123926950Y-104264052D01*
X124093546Y-104314588D01*
X124196677Y-104324745D01*
X124256826Y-104437276D01*
X124282989Y-104469155D01*
X124351799Y-104553001D01*
X124380803Y-104576804D01*
X126905098Y-107101100D01*
X122967700Y-107101100D01*
X122967700Y-106946361D01*
X122927926Y-106746402D01*
X122849905Y-106558044D01*
X122736637Y-106388526D01*
X122592474Y-106244363D01*
X122422956Y-106131095D01*
X122234598Y-106053074D01*
X122034639Y-106013300D01*
X121830761Y-106013300D01*
X121630802Y-106053074D01*
X121442444Y-106131095D01*
X121272926Y-106244363D01*
X121228989Y-106288300D01*
X120814322Y-106288300D01*
X120776999Y-106284624D01*
X120739677Y-106288300D01*
X120739667Y-106288300D01*
X120628014Y-106299297D01*
X120484753Y-106342754D01*
X120352723Y-106413326D01*
X120310688Y-106447824D01*
X120308867Y-106449318D01*
X120307000Y-105711350D01*
X120148250Y-105552600D01*
X118999000Y-105552600D01*
X118999000Y-107401850D01*
X119157750Y-107560600D01*
X119189708Y-107560791D01*
X118682303Y-108068196D01*
X118653299Y-108091999D01*
X118600928Y-108155814D01*
X118558326Y-108207724D01*
X118501316Y-108314381D01*
X118487754Y-108339754D01*
X118473596Y-108386428D01*
X118413300Y-108386428D01*
X118288818Y-108398688D01*
X118169120Y-108434998D01*
X118058806Y-108493963D01*
X117962115Y-108573315D01*
X117882763Y-108670006D01*
X117843300Y-108743835D01*
X117803837Y-108670006D01*
X117724485Y-108573315D01*
X117627794Y-108493963D01*
X117517480Y-108434998D01*
X117397782Y-108398688D01*
X117273300Y-108386428D01*
X117253300Y-108386428D01*
X117253300Y-108249592D01*
X117363505Y-108084658D01*
X117441526Y-107896300D01*
X117481300Y-107696341D01*
X117481300Y-107492463D01*
X117441526Y-107292504D01*
X117363505Y-107104146D01*
X117250237Y-106934628D01*
X117241209Y-106925600D01*
X117433928Y-106925600D01*
X117446188Y-107050082D01*
X117482498Y-107169780D01*
X117541463Y-107280094D01*
X117620815Y-107376785D01*
X117717506Y-107456137D01*
X117827820Y-107515102D01*
X117947518Y-107551412D01*
X118072000Y-107563672D01*
X118586250Y-107560600D01*
X118745000Y-107401850D01*
X118745000Y-105552600D01*
X117595750Y-105552600D01*
X117437000Y-105711350D01*
X117433928Y-106925600D01*
X117241209Y-106925600D01*
X117106074Y-106790465D01*
X116936556Y-106677197D01*
X116748198Y-106599176D01*
X116548239Y-106559402D01*
X116344361Y-106559402D01*
X116144402Y-106599176D01*
X115956044Y-106677197D01*
X115786526Y-106790465D01*
X115642363Y-106934628D01*
X115529095Y-107104146D01*
X115451074Y-107292504D01*
X115411300Y-107492463D01*
X115411300Y-107696341D01*
X115451074Y-107896300D01*
X115529095Y-108084658D01*
X115642363Y-108254176D01*
X115733301Y-108345114D01*
X115733301Y-108386428D01*
X115713300Y-108386428D01*
X115588818Y-108398688D01*
X115469120Y-108434998D01*
X115403915Y-108469852D01*
X115406672Y-108086800D01*
X115394412Y-107962318D01*
X115358102Y-107842620D01*
X115299137Y-107732306D01*
X115219785Y-107635615D01*
X115123094Y-107556263D01*
X115012780Y-107497298D01*
X114893082Y-107460988D01*
X114768600Y-107448728D01*
X114179350Y-107451800D01*
X114020600Y-107610550D01*
X114020600Y-108672300D01*
X114040600Y-108672300D01*
X114040600Y-108926300D01*
X114020600Y-108926300D01*
X114020600Y-109988050D01*
X114178204Y-110145654D01*
X113900131Y-110423728D01*
X113268600Y-110423728D01*
X113095346Y-110440792D01*
X112928750Y-110491328D01*
X112775214Y-110573395D01*
X112640638Y-110683838D01*
X112530195Y-110818414D01*
X112448128Y-110971950D01*
X112397592Y-111138546D01*
X112380528Y-111311800D01*
X112380528Y-112215184D01*
X112116630Y-111923752D01*
X111625044Y-111165663D01*
X111260989Y-110338734D01*
X111152102Y-109919555D01*
X111149278Y-109511800D01*
X112380528Y-109511800D01*
X112392788Y-109636282D01*
X112429098Y-109755980D01*
X112488063Y-109866294D01*
X112567415Y-109962985D01*
X112664106Y-110042337D01*
X112774420Y-110101302D01*
X112894118Y-110137612D01*
X113018600Y-110149872D01*
X113607850Y-110146800D01*
X113766600Y-109988050D01*
X113766600Y-108926300D01*
X112542350Y-108926300D01*
X112383600Y-109085050D01*
X112380528Y-109511800D01*
X111149278Y-109511800D01*
X111139406Y-108086800D01*
X112380528Y-108086800D01*
X112383600Y-108513550D01*
X112542350Y-108672300D01*
X113766600Y-108672300D01*
X113766600Y-107610550D01*
X113607850Y-107451800D01*
X113018600Y-107448728D01*
X112894118Y-107460988D01*
X112774420Y-107497298D01*
X112664106Y-107556263D01*
X112567415Y-107635615D01*
X112488063Y-107732306D01*
X112429098Y-107842620D01*
X112392788Y-107962318D01*
X112380528Y-108086800D01*
X111139406Y-108086800D01*
X111121741Y-105537260D01*
X111136059Y-105567320D01*
X111310112Y-105800669D01*
X111526345Y-105995578D01*
X111776448Y-106144557D01*
X112050809Y-106241881D01*
X112280700Y-106121214D01*
X112280700Y-104927400D01*
X112534700Y-104927400D01*
X112534700Y-106121214D01*
X112764591Y-106241881D01*
X113038952Y-106144557D01*
X113289055Y-105995578D01*
X113505288Y-105800669D01*
X113679341Y-105567320D01*
X113804525Y-105304499D01*
X113849176Y-105157290D01*
X113727855Y-104927400D01*
X112534700Y-104927400D01*
X112280700Y-104927400D01*
X112260700Y-104927400D01*
X112260700Y-104673400D01*
X112280700Y-104673400D01*
X112280700Y-104653400D01*
X112534700Y-104653400D01*
X112534700Y-104673400D01*
X113727855Y-104673400D01*
X113849176Y-104443510D01*
X113804525Y-104296301D01*
X113679341Y-104033480D01*
X113598875Y-103925600D01*
X117433928Y-103925600D01*
X117437000Y-105139850D01*
X117595750Y-105298600D01*
X118745000Y-105298600D01*
X118745000Y-103449350D01*
X118999000Y-103449350D01*
X118999000Y-105298600D01*
X120148250Y-105298600D01*
X120307000Y-105139850D01*
X120310072Y-103925600D01*
X120297812Y-103801118D01*
X120261502Y-103681420D01*
X120202537Y-103571106D01*
X120123185Y-103474415D01*
X120026494Y-103395063D01*
X119916180Y-103336098D01*
X119796482Y-103299788D01*
X119672000Y-103287528D01*
X119157750Y-103290600D01*
X118999000Y-103449350D01*
X118745000Y-103449350D01*
X118586250Y-103290600D01*
X118072000Y-103287528D01*
X117947518Y-103299788D01*
X117827820Y-103336098D01*
X117717506Y-103395063D01*
X117620815Y-103474415D01*
X117541463Y-103571106D01*
X117482498Y-103681420D01*
X117446188Y-103801118D01*
X117433928Y-103925600D01*
X113598875Y-103925600D01*
X113505288Y-103800131D01*
X113421234Y-103724366D01*
X113501880Y-103699902D01*
X113612194Y-103640937D01*
X113708885Y-103561585D01*
X113788237Y-103464894D01*
X113847202Y-103354580D01*
X113883512Y-103234882D01*
X113895772Y-103110400D01*
X113895772Y-101410400D01*
X113883512Y-101285918D01*
X113847202Y-101166220D01*
X113788237Y-101055906D01*
X113708885Y-100959215D01*
X113612194Y-100879863D01*
X113501880Y-100820898D01*
X113382182Y-100784588D01*
X113257700Y-100772328D01*
X111557700Y-100772328D01*
X111433218Y-100784588D01*
X111313520Y-100820898D01*
X111203206Y-100879863D01*
X111106515Y-100959215D01*
X111090163Y-100979140D01*
X110946800Y-80285837D01*
X110946800Y-74955162D01*
X151978873Y-74965260D01*
G36*
X152645841Y-107965083D02*
G01*
X152645841Y-108209649D01*
X152639814Y-108204703D01*
X152529500Y-108145738D01*
X152409802Y-108109428D01*
X152285320Y-108097168D01*
X151285320Y-108097168D01*
X151160838Y-108109428D01*
X151041140Y-108145738D01*
X150930826Y-108204703D01*
X150834135Y-108284055D01*
X150754783Y-108380746D01*
X150695818Y-108491060D01*
X150659508Y-108610758D01*
X150647248Y-108735240D01*
X150647248Y-109298511D01*
X150537287Y-109408472D01*
X150555072Y-109349842D01*
X150567332Y-109225360D01*
X150564260Y-109211110D01*
X150405510Y-109052360D01*
X149081260Y-109052360D01*
X149081260Y-109072360D01*
X148827260Y-109072360D01*
X148827260Y-109052360D01*
X147503010Y-109052360D01*
X147344260Y-109211110D01*
X147341188Y-109225360D01*
X147353448Y-109349842D01*
X147364869Y-109387491D01*
X147167939Y-109348320D01*
X146964061Y-109348320D01*
X146952240Y-109350671D01*
X146952240Y-108625360D01*
X147341188Y-108625360D01*
X147344260Y-108639610D01*
X147503010Y-108798360D01*
X148827260Y-108798360D01*
X148827260Y-108149110D01*
X149081260Y-108149110D01*
X149081260Y-108798360D01*
X150405510Y-108798360D01*
X150564260Y-108639610D01*
X150567332Y-108625360D01*
X150555072Y-108500878D01*
X150518762Y-108381180D01*
X150459797Y-108270866D01*
X150380445Y-108174175D01*
X150283754Y-108094823D01*
X150173440Y-108035858D01*
X150053742Y-107999548D01*
X149929260Y-107987288D01*
X149240010Y-107990360D01*
X149081260Y-108149110D01*
X148827260Y-108149110D01*
X148668510Y-107990360D01*
X147979260Y-107987288D01*
X147854778Y-107999548D01*
X147735080Y-108035858D01*
X147624766Y-108094823D01*
X147528075Y-108174175D01*
X147448723Y-108270866D01*
X147389758Y-108381180D01*
X147353448Y-108500878D01*
X147341188Y-108625360D01*
X146952240Y-108625360D01*
X146952240Y-107621573D01*
X146955917Y-107584240D01*
X146942493Y-107447941D01*
X152128700Y-107447941D01*
X152645841Y-107965083D01*
G37*
X152645841Y-107965083D02*
X152645841Y-108209649D01*
X152639814Y-108204703D01*
X152529500Y-108145738D01*
X152409802Y-108109428D01*
X152285320Y-108097168D01*
X151285320Y-108097168D01*
X151160838Y-108109428D01*
X151041140Y-108145738D01*
X150930826Y-108204703D01*
X150834135Y-108284055D01*
X150754783Y-108380746D01*
X150695818Y-108491060D01*
X150659508Y-108610758D01*
X150647248Y-108735240D01*
X150647248Y-109298511D01*
X150537287Y-109408472D01*
X150555072Y-109349842D01*
X150567332Y-109225360D01*
X150564260Y-109211110D01*
X150405510Y-109052360D01*
X149081260Y-109052360D01*
X149081260Y-109072360D01*
X148827260Y-109072360D01*
X148827260Y-109052360D01*
X147503010Y-109052360D01*
X147344260Y-109211110D01*
X147341188Y-109225360D01*
X147353448Y-109349842D01*
X147364869Y-109387491D01*
X147167939Y-109348320D01*
X146964061Y-109348320D01*
X146952240Y-109350671D01*
X146952240Y-108625360D01*
X147341188Y-108625360D01*
X147344260Y-108639610D01*
X147503010Y-108798360D01*
X148827260Y-108798360D01*
X148827260Y-108149110D01*
X149081260Y-108149110D01*
X149081260Y-108798360D01*
X150405510Y-108798360D01*
X150564260Y-108639610D01*
X150567332Y-108625360D01*
X150555072Y-108500878D01*
X150518762Y-108381180D01*
X150459797Y-108270866D01*
X150380445Y-108174175D01*
X150283754Y-108094823D01*
X150173440Y-108035858D01*
X150053742Y-107999548D01*
X149929260Y-107987288D01*
X149240010Y-107990360D01*
X149081260Y-108149110D01*
X148827260Y-108149110D01*
X148668510Y-107990360D01*
X147979260Y-107987288D01*
X147854778Y-107999548D01*
X147735080Y-108035858D01*
X147624766Y-108094823D01*
X147528075Y-108174175D01*
X147448723Y-108270866D01*
X147389758Y-108381180D01*
X147353448Y-108500878D01*
X147341188Y-108625360D01*
X146952240Y-108625360D01*
X146952240Y-107621573D01*
X146955917Y-107584240D01*
X146942493Y-107447941D01*
X152128700Y-107447941D01*
X152645841Y-107965083D01*
G36*
X132817900Y-102750950D02*
G01*
X132976650Y-102909700D01*
X134200900Y-102909700D01*
X134200900Y-102889700D01*
X134454900Y-102889700D01*
X134454900Y-102909700D01*
X135679150Y-102909700D01*
X135744878Y-102843972D01*
X135880202Y-102900026D01*
X136080161Y-102939800D01*
X136284039Y-102939800D01*
X136483998Y-102900026D01*
X136672356Y-102822005D01*
X136841874Y-102708737D01*
X136885811Y-102664800D01*
X140492639Y-102664800D01*
X141875379Y-104047541D01*
X141875378Y-106270975D01*
X141871702Y-106308298D01*
X141875378Y-106345620D01*
X141875378Y-106345630D01*
X141886375Y-106457283D01*
X141913340Y-106546175D01*
X141929832Y-106600544D01*
X142000404Y-106732574D01*
X142019673Y-106756053D01*
X142054787Y-106798840D01*
X141917551Y-106798840D01*
X141873614Y-106754903D01*
X141704096Y-106641635D01*
X141515738Y-106563614D01*
X141315779Y-106523840D01*
X141111901Y-106523840D01*
X140911942Y-106563614D01*
X140723584Y-106641635D01*
X140554066Y-106754903D01*
X140409903Y-106899066D01*
X140296635Y-107068584D01*
X140218614Y-107256942D01*
X140178840Y-107456901D01*
X140178840Y-107660779D01*
X140218614Y-107860738D01*
X140296635Y-108049096D01*
X140409903Y-108218614D01*
X140524553Y-108333264D01*
X140460946Y-108367263D01*
X140440796Y-108383800D01*
X135534447Y-108383800D01*
X135592363Y-108220127D01*
X135471864Y-107988100D01*
X134264400Y-107988100D01*
X134264400Y-108008100D01*
X134010400Y-108008100D01*
X134010400Y-107988100D01*
X133990400Y-107988100D01*
X133990400Y-107734100D01*
X134010400Y-107734100D01*
X134010400Y-106527283D01*
X134264400Y-106527283D01*
X134264400Y-107734100D01*
X135471864Y-107734100D01*
X135592363Y-107502073D01*
X135494364Y-107225122D01*
X135344217Y-106972612D01*
X135147693Y-106754246D01*
X134912344Y-106578416D01*
X134647214Y-106451878D01*
X134496426Y-106406142D01*
X134264400Y-106527283D01*
X134010400Y-106527283D01*
X133778374Y-106406142D01*
X133627586Y-106451878D01*
X133362456Y-106578416D01*
X133127107Y-106754246D01*
X132930583Y-106972612D01*
X132871959Y-107071203D01*
X132761439Y-106905798D01*
X132552702Y-106697061D01*
X132307253Y-106533058D01*
X132034525Y-106420090D01*
X131744999Y-106362500D01*
X131449801Y-106362500D01*
X131160275Y-106420090D01*
X130887547Y-106533058D01*
X130642098Y-106697061D01*
X130433361Y-106905798D01*
X130327400Y-107064381D01*
X130221439Y-106905798D01*
X130012702Y-106697061D01*
X129767253Y-106533058D01*
X129494525Y-106420090D01*
X129204999Y-106362500D01*
X128909801Y-106362500D01*
X128620275Y-106420090D01*
X128445914Y-106492313D01*
X126079062Y-104125461D01*
X126144762Y-104071542D01*
X126255205Y-103936966D01*
X126337272Y-103783430D01*
X126387808Y-103616834D01*
X126401612Y-103476681D01*
X126418392Y-103647054D01*
X126468928Y-103813650D01*
X126550995Y-103967186D01*
X126661438Y-104101762D01*
X126796014Y-104212205D01*
X126949550Y-104294272D01*
X127116146Y-104344808D01*
X127289400Y-104361872D01*
X128539400Y-104361872D01*
X128712654Y-104344808D01*
X128879250Y-104294272D01*
X129032786Y-104212205D01*
X129167362Y-104101762D01*
X129277805Y-103967186D01*
X129359872Y-103813650D01*
X129410408Y-103647054D01*
X129425689Y-103491906D01*
X129423928Y-103736500D01*
X129436188Y-103860982D01*
X129472498Y-103980680D01*
X129531463Y-104090994D01*
X129610815Y-104187685D01*
X129707506Y-104267037D01*
X129817820Y-104326002D01*
X129937518Y-104362312D01*
X130062000Y-104374572D01*
X130651250Y-104371500D01*
X130810000Y-104212750D01*
X130810000Y-103151000D01*
X131064000Y-103151000D01*
X131064000Y-104212750D01*
X131222750Y-104371500D01*
X131812000Y-104374572D01*
X131936482Y-104362312D01*
X132056180Y-104326002D01*
X132166494Y-104267037D01*
X132263185Y-104187685D01*
X132342537Y-104090994D01*
X132401502Y-103980680D01*
X132437812Y-103860982D01*
X132448821Y-103749200D01*
X132814828Y-103749200D01*
X132827088Y-103873682D01*
X132863398Y-103993380D01*
X132922363Y-104103694D01*
X133001715Y-104200385D01*
X133098406Y-104279737D01*
X133208720Y-104338702D01*
X133328418Y-104375012D01*
X133452900Y-104387272D01*
X134042150Y-104384200D01*
X134200900Y-104225450D01*
X134200900Y-103163700D01*
X134454900Y-103163700D01*
X134454900Y-104225450D01*
X134613650Y-104384200D01*
X135202900Y-104387272D01*
X135327382Y-104375012D01*
X135447080Y-104338702D01*
X135557394Y-104279737D01*
X135654085Y-104200385D01*
X135733437Y-104103694D01*
X135792402Y-103993380D01*
X135828712Y-103873682D01*
X135840972Y-103749200D01*
X135837900Y-103322450D01*
X135679150Y-103163700D01*
X134454900Y-103163700D01*
X134200900Y-103163700D01*
X132976650Y-103163700D01*
X132817900Y-103322450D01*
X132814828Y-103749200D01*
X132448821Y-103749200D01*
X132450072Y-103736500D01*
X132447000Y-103309750D01*
X132288250Y-103151000D01*
X131064000Y-103151000D01*
X130810000Y-103151000D01*
X130790000Y-103151000D01*
X130790000Y-102897000D01*
X130810000Y-102897000D01*
X130810000Y-102877000D01*
X131064000Y-102877000D01*
X131064000Y-102897000D01*
X132288250Y-102897000D01*
X132447000Y-102738250D01*
X132447529Y-102664800D01*
X132817280Y-102664800D01*
X132817900Y-102750950D01*
G37*
X132817900Y-102750950D02*
X132976650Y-102909700D01*
X134200900Y-102909700D01*
X134200900Y-102889700D01*
X134454900Y-102889700D01*
X134454900Y-102909700D01*
X135679150Y-102909700D01*
X135744878Y-102843972D01*
X135880202Y-102900026D01*
X136080161Y-102939800D01*
X136284039Y-102939800D01*
X136483998Y-102900026D01*
X136672356Y-102822005D01*
X136841874Y-102708737D01*
X136885811Y-102664800D01*
X140492639Y-102664800D01*
X141875379Y-104047541D01*
X141875378Y-106270975D01*
X141871702Y-106308298D01*
X141875378Y-106345620D01*
X141875378Y-106345630D01*
X141886375Y-106457283D01*
X141913340Y-106546175D01*
X141929832Y-106600544D01*
X142000404Y-106732574D01*
X142019673Y-106756053D01*
X142054787Y-106798840D01*
X141917551Y-106798840D01*
X141873614Y-106754903D01*
X141704096Y-106641635D01*
X141515738Y-106563614D01*
X141315779Y-106523840D01*
X141111901Y-106523840D01*
X140911942Y-106563614D01*
X140723584Y-106641635D01*
X140554066Y-106754903D01*
X140409903Y-106899066D01*
X140296635Y-107068584D01*
X140218614Y-107256942D01*
X140178840Y-107456901D01*
X140178840Y-107660779D01*
X140218614Y-107860738D01*
X140296635Y-108049096D01*
X140409903Y-108218614D01*
X140524553Y-108333264D01*
X140460946Y-108367263D01*
X140440796Y-108383800D01*
X135534447Y-108383800D01*
X135592363Y-108220127D01*
X135471864Y-107988100D01*
X134264400Y-107988100D01*
X134264400Y-108008100D01*
X134010400Y-108008100D01*
X134010400Y-107988100D01*
X133990400Y-107988100D01*
X133990400Y-107734100D01*
X134010400Y-107734100D01*
X134010400Y-106527283D01*
X134264400Y-106527283D01*
X134264400Y-107734100D01*
X135471864Y-107734100D01*
X135592363Y-107502073D01*
X135494364Y-107225122D01*
X135344217Y-106972612D01*
X135147693Y-106754246D01*
X134912344Y-106578416D01*
X134647214Y-106451878D01*
X134496426Y-106406142D01*
X134264400Y-106527283D01*
X134010400Y-106527283D01*
X133778374Y-106406142D01*
X133627586Y-106451878D01*
X133362456Y-106578416D01*
X133127107Y-106754246D01*
X132930583Y-106972612D01*
X132871959Y-107071203D01*
X132761439Y-106905798D01*
X132552702Y-106697061D01*
X132307253Y-106533058D01*
X132034525Y-106420090D01*
X131744999Y-106362500D01*
X131449801Y-106362500D01*
X131160275Y-106420090D01*
X130887547Y-106533058D01*
X130642098Y-106697061D01*
X130433361Y-106905798D01*
X130327400Y-107064381D01*
X130221439Y-106905798D01*
X130012702Y-106697061D01*
X129767253Y-106533058D01*
X129494525Y-106420090D01*
X129204999Y-106362500D01*
X128909801Y-106362500D01*
X128620275Y-106420090D01*
X128445914Y-106492313D01*
X126079062Y-104125461D01*
X126144762Y-104071542D01*
X126255205Y-103936966D01*
X126337272Y-103783430D01*
X126387808Y-103616834D01*
X126401612Y-103476681D01*
X126418392Y-103647054D01*
X126468928Y-103813650D01*
X126550995Y-103967186D01*
X126661438Y-104101762D01*
X126796014Y-104212205D01*
X126949550Y-104294272D01*
X127116146Y-104344808D01*
X127289400Y-104361872D01*
X128539400Y-104361872D01*
X128712654Y-104344808D01*
X128879250Y-104294272D01*
X129032786Y-104212205D01*
X129167362Y-104101762D01*
X129277805Y-103967186D01*
X129359872Y-103813650D01*
X129410408Y-103647054D01*
X129425689Y-103491906D01*
X129423928Y-103736500D01*
X129436188Y-103860982D01*
X129472498Y-103980680D01*
X129531463Y-104090994D01*
X129610815Y-104187685D01*
X129707506Y-104267037D01*
X129817820Y-104326002D01*
X129937518Y-104362312D01*
X130062000Y-104374572D01*
X130651250Y-104371500D01*
X130810000Y-104212750D01*
X130810000Y-103151000D01*
X131064000Y-103151000D01*
X131064000Y-104212750D01*
X131222750Y-104371500D01*
X131812000Y-104374572D01*
X131936482Y-104362312D01*
X132056180Y-104326002D01*
X132166494Y-104267037D01*
X132263185Y-104187685D01*
X132342537Y-104090994D01*
X132401502Y-103980680D01*
X132437812Y-103860982D01*
X132448821Y-103749200D01*
X132814828Y-103749200D01*
X132827088Y-103873682D01*
X132863398Y-103993380D01*
X132922363Y-104103694D01*
X133001715Y-104200385D01*
X133098406Y-104279737D01*
X133208720Y-104338702D01*
X133328418Y-104375012D01*
X133452900Y-104387272D01*
X134042150Y-104384200D01*
X134200900Y-104225450D01*
X134200900Y-103163700D01*
X134454900Y-103163700D01*
X134454900Y-104225450D01*
X134613650Y-104384200D01*
X135202900Y-104387272D01*
X135327382Y-104375012D01*
X135447080Y-104338702D01*
X135557394Y-104279737D01*
X135654085Y-104200385D01*
X135733437Y-104103694D01*
X135792402Y-103993380D01*
X135828712Y-103873682D01*
X135840972Y-103749200D01*
X135837900Y-103322450D01*
X135679150Y-103163700D01*
X134454900Y-103163700D01*
X134200900Y-103163700D01*
X132976650Y-103163700D01*
X132817900Y-103322450D01*
X132814828Y-103749200D01*
X132448821Y-103749200D01*
X132450072Y-103736500D01*
X132447000Y-103309750D01*
X132288250Y-103151000D01*
X131064000Y-103151000D01*
X130810000Y-103151000D01*
X130790000Y-103151000D01*
X130790000Y-102897000D01*
X130810000Y-102897000D01*
X130810000Y-102877000D01*
X131064000Y-102877000D01*
X131064000Y-102897000D01*
X132288250Y-102897000D01*
X132447000Y-102738250D01*
X132447529Y-102664800D01*
X132817280Y-102664800D01*
X132817900Y-102750950D01*
G36*
X159013217Y-100850807D02*
G01*
X159187792Y-101063528D01*
X159400513Y-101238103D01*
X159592871Y-101340920D01*
X159400513Y-101443737D01*
X159187792Y-101618312D01*
X159013217Y-101831033D01*
X159002587Y-101850920D01*
X156094925Y-101850920D01*
X156057600Y-101847244D01*
X156020275Y-101850920D01*
X156020267Y-101850920D01*
X155908614Y-101861917D01*
X155765353Y-101905374D01*
X155633324Y-101975946D01*
X155517599Y-102070919D01*
X155493801Y-102099917D01*
X152115789Y-105477930D01*
X147285515Y-105477930D01*
X147172120Y-105277920D01*
X145567400Y-105277920D01*
X145567400Y-105297920D01*
X145313400Y-105297920D01*
X145313400Y-105277920D01*
X145293400Y-105277920D01*
X145293400Y-105023920D01*
X145313400Y-105023920D01*
X145313400Y-105003920D01*
X145567400Y-105003920D01*
X145567400Y-105023920D01*
X147172120Y-105023920D01*
X147294620Y-104807850D01*
X147279662Y-104733644D01*
X147172522Y-104480385D01*
X147018032Y-104252894D01*
X146822129Y-104059914D01*
X146592342Y-103908861D01*
X146525987Y-103881958D01*
X146720287Y-103778103D01*
X146933008Y-103603528D01*
X147107583Y-103390807D01*
X147237304Y-103148115D01*
X147317186Y-102884780D01*
X147344159Y-102610920D01*
X147317186Y-102337060D01*
X147237304Y-102073725D01*
X147107583Y-101831033D01*
X146933008Y-101618312D01*
X146720287Y-101443737D01*
X146527929Y-101340920D01*
X146720287Y-101238103D01*
X146933008Y-101063528D01*
X147107583Y-100850807D01*
X147118213Y-100830920D01*
X159002587Y-100830920D01*
X159013217Y-100850807D01*
G37*
X159013217Y-100850807D02*
X159187792Y-101063528D01*
X159400513Y-101238103D01*
X159592871Y-101340920D01*
X159400513Y-101443737D01*
X159187792Y-101618312D01*
X159013217Y-101831033D01*
X159002587Y-101850920D01*
X156094925Y-101850920D01*
X156057600Y-101847244D01*
X156020275Y-101850920D01*
X156020267Y-101850920D01*
X155908614Y-101861917D01*
X155765353Y-101905374D01*
X155633324Y-101975946D01*
X155517599Y-102070919D01*
X155493801Y-102099917D01*
X152115789Y-105477930D01*
X147285515Y-105477930D01*
X147172120Y-105277920D01*
X145567400Y-105277920D01*
X145567400Y-105297920D01*
X145313400Y-105297920D01*
X145313400Y-105277920D01*
X145293400Y-105277920D01*
X145293400Y-105023920D01*
X145313400Y-105023920D01*
X145313400Y-105003920D01*
X145567400Y-105003920D01*
X145567400Y-105023920D01*
X147172120Y-105023920D01*
X147294620Y-104807850D01*
X147279662Y-104733644D01*
X147172522Y-104480385D01*
X147018032Y-104252894D01*
X146822129Y-104059914D01*
X146592342Y-103908861D01*
X146525987Y-103881958D01*
X146720287Y-103778103D01*
X146933008Y-103603528D01*
X147107583Y-103390807D01*
X147237304Y-103148115D01*
X147317186Y-102884780D01*
X147344159Y-102610920D01*
X147317186Y-102337060D01*
X147237304Y-102073725D01*
X147107583Y-101831033D01*
X146933008Y-101618312D01*
X146720287Y-101443737D01*
X146527929Y-101340920D01*
X146720287Y-101238103D01*
X146933008Y-101063528D01*
X147107583Y-100850807D01*
X147118213Y-100830920D01*
X159002587Y-100830920D01*
X159013217Y-100850807D01*
G36*
X141442520Y-90935002D02*
G01*
X141466319Y-90964001D01*
X141582044Y-91058974D01*
X141714073Y-91129546D01*
X141857334Y-91173003D01*
X141968987Y-91184000D01*
X141968996Y-91184000D01*
X142006319Y-91187676D01*
X142043642Y-91184000D01*
X143578821Y-91184000D01*
X143565578Y-91215304D01*
X143550620Y-91289510D01*
X143673120Y-91505580D01*
X145277840Y-91505580D01*
X145277840Y-91485580D01*
X145531840Y-91485580D01*
X145531840Y-91505580D01*
X147136560Y-91505580D01*
X147259060Y-91289510D01*
X147244102Y-91215304D01*
X147230859Y-91184000D01*
X158821055Y-91184000D01*
X158768054Y-91358720D01*
X158741081Y-91632580D01*
X158768054Y-91906440D01*
X158847936Y-92169775D01*
X158894809Y-92257469D01*
X158884779Y-92267500D01*
X147152029Y-92267500D01*
X147244102Y-92049856D01*
X147259060Y-91975650D01*
X147136560Y-91759580D01*
X145531840Y-91759580D01*
X145531840Y-91779580D01*
X145277840Y-91779580D01*
X145277840Y-91759580D01*
X143673120Y-91759580D01*
X143550620Y-91975650D01*
X143565578Y-92049856D01*
X143657651Y-92267500D01*
X141182780Y-92267500D01*
X140026692Y-91111413D01*
X140026692Y-90990080D01*
X140011790Y-90838773D01*
X139969375Y-90698952D01*
X141206471Y-90698952D01*
X141442520Y-90935002D01*
G37*
X141442520Y-90935002D02*
X141466319Y-90964001D01*
X141582044Y-91058974D01*
X141714073Y-91129546D01*
X141857334Y-91173003D01*
X141968987Y-91184000D01*
X141968996Y-91184000D01*
X142006319Y-91187676D01*
X142043642Y-91184000D01*
X143578821Y-91184000D01*
X143565578Y-91215304D01*
X143550620Y-91289510D01*
X143673120Y-91505580D01*
X145277840Y-91505580D01*
X145277840Y-91485580D01*
X145531840Y-91485580D01*
X145531840Y-91505580D01*
X147136560Y-91505580D01*
X147259060Y-91289510D01*
X147244102Y-91215304D01*
X147230859Y-91184000D01*
X158821055Y-91184000D01*
X158768054Y-91358720D01*
X158741081Y-91632580D01*
X158768054Y-91906440D01*
X158847936Y-92169775D01*
X158894809Y-92257469D01*
X158884779Y-92267500D01*
X147152029Y-92267500D01*
X147244102Y-92049856D01*
X147259060Y-91975650D01*
X147136560Y-91759580D01*
X145531840Y-91759580D01*
X145531840Y-91779580D01*
X145277840Y-91779580D01*
X145277840Y-91759580D01*
X143673120Y-91759580D01*
X143550620Y-91975650D01*
X143565578Y-92049856D01*
X143657651Y-92267500D01*
X141182780Y-92267500D01*
X140026692Y-91111413D01*
X140026692Y-90990080D01*
X140011790Y-90838773D01*
X139969375Y-90698952D01*
X141206471Y-90698952D01*
X141442520Y-90935002D01*
M02*
