G04 #@! TF.GenerationSoftware,KiCad,Pcbnew,5.1.6-1.fc32*
G04 #@! TF.CreationDate,2020-06-02T17:43:18-04:00*
G04 #@! TF.ProjectId,binarydispattiny,62696e61-7279-4646-9973-70617474696e,0.3*
G04 #@! TF.SameCoordinates,Original*
G04 #@! TF.FileFunction,Paste,Bot*
G04 #@! TF.FilePolarity,Positive*
%FSLAX46Y46*%
G04 Gerber Fmt 4.6, Leading zero omitted, Abs format (unit mm)*
G04 Created by KiCad (PCBNEW 5.1.6-1.fc32) date 2020-06-02 17:43:18*
%MOMM*%
%LPD*%
G01*
G04 APERTURE LIST*
%ADD10R,1.500000X0.600000*%
G04 APERTURE END LIST*
D10*
X124898500Y-82804000D03*
X124898500Y-84074000D03*
X124898500Y-85344000D03*
X124898500Y-86614000D03*
X124898500Y-87884000D03*
X124898500Y-89154000D03*
X124898500Y-90424000D03*
X124898500Y-91694000D03*
X117798500Y-91694000D03*
X117798500Y-90424000D03*
X117798500Y-89154000D03*
X117798500Y-87884000D03*
X117798500Y-86614000D03*
X117798500Y-85344000D03*
X117798500Y-84074000D03*
X117798500Y-82804000D03*
G36*
G01*
X134271860Y-86888620D02*
X135521860Y-86888620D01*
G75*
G02*
X135771860Y-87138620I0J-250000D01*
G01*
X135771860Y-88063620D01*
G75*
G02*
X135521860Y-88313620I-250000J0D01*
G01*
X134271860Y-88313620D01*
G75*
G02*
X134021860Y-88063620I0J250000D01*
G01*
X134021860Y-87138620D01*
G75*
G02*
X134271860Y-86888620I250000J0D01*
G01*
G37*
G36*
G01*
X134271860Y-83913620D02*
X135521860Y-83913620D01*
G75*
G02*
X135771860Y-84163620I0J-250000D01*
G01*
X135771860Y-85088620D01*
G75*
G02*
X135521860Y-85338620I-250000J0D01*
G01*
X134271860Y-85338620D01*
G75*
G02*
X134021860Y-85088620I0J250000D01*
G01*
X134021860Y-84163620D01*
G75*
G02*
X134271860Y-83913620I250000J0D01*
G01*
G37*
G36*
G01*
X115072000Y-104191100D02*
X116322000Y-104191100D01*
G75*
G02*
X116572000Y-104441100I0J-250000D01*
G01*
X116572000Y-105366100D01*
G75*
G02*
X116322000Y-105616100I-250000J0D01*
G01*
X115072000Y-105616100D01*
G75*
G02*
X114822000Y-105366100I0J250000D01*
G01*
X114822000Y-104441100D01*
G75*
G02*
X115072000Y-104191100I250000J0D01*
G01*
G37*
G36*
G01*
X115072000Y-101216100D02*
X116322000Y-101216100D01*
G75*
G02*
X116572000Y-101466100I0J-250000D01*
G01*
X116572000Y-102391100D01*
G75*
G02*
X116322000Y-102641100I-250000J0D01*
G01*
X115072000Y-102641100D01*
G75*
G02*
X114822000Y-102391100I0J250000D01*
G01*
X114822000Y-101466100D01*
G75*
G02*
X115072000Y-101216100I250000J0D01*
G01*
G37*
G36*
G01*
X120028000Y-81079500D02*
X120028000Y-79829500D01*
G75*
G02*
X120278000Y-79579500I250000J0D01*
G01*
X121203000Y-79579500D01*
G75*
G02*
X121453000Y-79829500I0J-250000D01*
G01*
X121453000Y-81079500D01*
G75*
G02*
X121203000Y-81329500I-250000J0D01*
G01*
X120278000Y-81329500D01*
G75*
G02*
X120028000Y-81079500I0J250000D01*
G01*
G37*
G36*
G01*
X117053000Y-81079500D02*
X117053000Y-79829500D01*
G75*
G02*
X117303000Y-79579500I250000J0D01*
G01*
X118228000Y-79579500D01*
G75*
G02*
X118478000Y-79829500I0J-250000D01*
G01*
X118478000Y-81079500D01*
G75*
G02*
X118228000Y-81329500I-250000J0D01*
G01*
X117303000Y-81329500D01*
G75*
G02*
X117053000Y-81079500I0J250000D01*
G01*
G37*
G36*
G01*
X144393560Y-109575760D02*
X144393560Y-108325760D01*
G75*
G02*
X144643560Y-108075760I250000J0D01*
G01*
X145568560Y-108075760D01*
G75*
G02*
X145818560Y-108325760I0J-250000D01*
G01*
X145818560Y-109575760D01*
G75*
G02*
X145568560Y-109825760I-250000J0D01*
G01*
X144643560Y-109825760D01*
G75*
G02*
X144393560Y-109575760I0J250000D01*
G01*
G37*
G36*
G01*
X147368560Y-109575760D02*
X147368560Y-108325760D01*
G75*
G02*
X147618560Y-108075760I250000J0D01*
G01*
X148543560Y-108075760D01*
G75*
G02*
X148793560Y-108325760I0J-250000D01*
G01*
X148793560Y-109575760D01*
G75*
G02*
X148543560Y-109825760I-250000J0D01*
G01*
X147618560Y-109825760D01*
G75*
G02*
X147368560Y-109575760I0J250000D01*
G01*
G37*
G36*
G01*
X131731860Y-86879400D02*
X132981860Y-86879400D01*
G75*
G02*
X133231860Y-87129400I0J-250000D01*
G01*
X133231860Y-88054400D01*
G75*
G02*
X132981860Y-88304400I-250000J0D01*
G01*
X131731860Y-88304400D01*
G75*
G02*
X131481860Y-88054400I0J250000D01*
G01*
X131481860Y-87129400D01*
G75*
G02*
X131731860Y-86879400I250000J0D01*
G01*
G37*
G36*
G01*
X131731860Y-83904400D02*
X132981860Y-83904400D01*
G75*
G02*
X133231860Y-84154400I0J-250000D01*
G01*
X133231860Y-85079400D01*
G75*
G02*
X132981860Y-85329400I-250000J0D01*
G01*
X131731860Y-85329400D01*
G75*
G02*
X131481860Y-85079400I0J250000D01*
G01*
X131481860Y-84154400D01*
G75*
G02*
X131731860Y-83904400I250000J0D01*
G01*
G37*
M02*
