G04 #@! TF.GenerationSoftware,KiCad,Pcbnew,5.1.6-1.fc32*
G04 #@! TF.CreationDate,2020-06-02T17:43:18-04:00*
G04 #@! TF.ProjectId,binarydispattiny,62696e61-7279-4646-9973-70617474696e,0.3*
G04 #@! TF.SameCoordinates,Original*
G04 #@! TF.FileFunction,Soldermask,Top*
G04 #@! TF.FilePolarity,Negative*
%FSLAX46Y46*%
G04 Gerber Fmt 4.6, Leading zero omitted, Abs format (unit mm)*
G04 Created by KiCad (PCBNEW 5.1.6-1.fc32) date 2020-06-02 17:43:18*
%MOMM*%
%LPD*%
G01*
G04 APERTURE LIST*
%ADD10C,0.100000*%
G04 APERTURE END LIST*
D10*
G36*
X152346480Y-113926440D02*
G01*
X151244480Y-113926440D01*
X151244480Y-112824440D01*
X152346480Y-112824440D01*
X152346480Y-113926440D01*
G37*
G36*
X149889188Y-112387124D02*
G01*
X149910269Y-112393520D01*
X149929705Y-112403908D01*
X149946736Y-112417884D01*
X149960712Y-112434915D01*
X149971100Y-112454351D01*
X149977496Y-112475432D01*
X149980260Y-112503500D01*
X149980260Y-112967220D01*
X149977496Y-112995288D01*
X149971100Y-113016369D01*
X149960712Y-113035805D01*
X149946736Y-113052836D01*
X149929705Y-113066812D01*
X149910269Y-113077200D01*
X149889188Y-113083596D01*
X149861120Y-113086360D01*
X148047400Y-113086360D01*
X148019332Y-113083596D01*
X147998251Y-113077200D01*
X147978815Y-113066812D01*
X147961784Y-113052836D01*
X147947808Y-113035805D01*
X147937420Y-113016369D01*
X147931024Y-112995288D01*
X147928260Y-112967220D01*
X147928260Y-112503500D01*
X147931024Y-112475432D01*
X147937420Y-112454351D01*
X147947808Y-112434915D01*
X147961784Y-112417884D01*
X147978815Y-112403908D01*
X147998251Y-112393520D01*
X148019332Y-112387124D01*
X148047400Y-112384360D01*
X149861120Y-112384360D01*
X149889188Y-112387124D01*
G37*
G36*
X144939188Y-112387124D02*
G01*
X144960269Y-112393520D01*
X144979705Y-112403908D01*
X144996736Y-112417884D01*
X145010712Y-112434915D01*
X145021100Y-112454351D01*
X145027496Y-112475432D01*
X145030260Y-112503500D01*
X145030260Y-112967220D01*
X145027496Y-112995288D01*
X145021100Y-113016369D01*
X145010712Y-113035805D01*
X144996736Y-113052836D01*
X144979705Y-113066812D01*
X144960269Y-113077200D01*
X144939188Y-113083596D01*
X144911120Y-113086360D01*
X143097400Y-113086360D01*
X143069332Y-113083596D01*
X143048251Y-113077200D01*
X143028815Y-113066812D01*
X143011784Y-113052836D01*
X142997808Y-113035805D01*
X142987420Y-113016369D01*
X142981024Y-112995288D01*
X142978260Y-112967220D01*
X142978260Y-112503500D01*
X142981024Y-112475432D01*
X142987420Y-112454351D01*
X142997808Y-112434915D01*
X143011784Y-112417884D01*
X143028815Y-112403908D01*
X143048251Y-112393520D01*
X143069332Y-112387124D01*
X143097400Y-112384360D01*
X144911120Y-112384360D01*
X144939188Y-112387124D01*
G37*
G36*
X122670162Y-111040381D02*
G01*
X122705081Y-111050974D01*
X122737263Y-111068176D01*
X122765473Y-111091327D01*
X122788624Y-111119537D01*
X122805826Y-111151719D01*
X122816419Y-111186638D01*
X122820600Y-111229095D01*
X122820600Y-112370305D01*
X122816419Y-112412762D01*
X122805826Y-112447681D01*
X122788624Y-112479863D01*
X122765473Y-112508073D01*
X122737263Y-112531224D01*
X122705081Y-112548426D01*
X122670162Y-112559019D01*
X122627705Y-112563200D01*
X121161495Y-112563200D01*
X121119038Y-112559019D01*
X121084119Y-112548426D01*
X121051937Y-112531224D01*
X121023727Y-112508073D01*
X121000576Y-112479863D01*
X120983374Y-112447681D01*
X120972781Y-112412762D01*
X120968600Y-112370305D01*
X120968600Y-111229095D01*
X120972781Y-111186638D01*
X120983374Y-111151719D01*
X121000576Y-111119537D01*
X121023727Y-111091327D01*
X121051937Y-111068176D01*
X121084119Y-111050974D01*
X121119038Y-111040381D01*
X121161495Y-111036200D01*
X122627705Y-111036200D01*
X122670162Y-111040381D01*
G37*
G36*
X114669162Y-111014981D02*
G01*
X114704081Y-111025574D01*
X114736263Y-111042776D01*
X114764473Y-111065927D01*
X114787624Y-111094137D01*
X114804826Y-111126319D01*
X114815419Y-111161238D01*
X114819600Y-111203695D01*
X114819600Y-112344905D01*
X114815419Y-112387362D01*
X114804826Y-112422281D01*
X114787624Y-112454463D01*
X114764473Y-112482673D01*
X114736263Y-112505824D01*
X114704081Y-112523026D01*
X114669162Y-112533619D01*
X114626705Y-112537800D01*
X113160495Y-112537800D01*
X113118038Y-112533619D01*
X113083119Y-112523026D01*
X113050937Y-112505824D01*
X113022727Y-112482673D01*
X112999576Y-112454463D01*
X112982374Y-112422281D01*
X112971781Y-112387362D01*
X112967600Y-112344905D01*
X112967600Y-111203695D01*
X112971781Y-111161238D01*
X112982374Y-111126319D01*
X112999576Y-111094137D01*
X113022727Y-111065927D01*
X113050937Y-111042776D01*
X113083119Y-111025574D01*
X113118038Y-111014981D01*
X113160495Y-111010800D01*
X114626705Y-111010800D01*
X114669162Y-111014981D01*
G37*
G36*
X141866440Y-112036680D02*
G01*
X140764440Y-112036680D01*
X140764440Y-110934680D01*
X141866440Y-110934680D01*
X141866440Y-112036680D01*
G37*
G36*
X152346480Y-111863960D02*
G01*
X151244480Y-111863960D01*
X151244480Y-110761960D01*
X152346480Y-110761960D01*
X152346480Y-111863960D01*
G37*
G36*
X149889188Y-111117124D02*
G01*
X149910269Y-111123520D01*
X149929705Y-111133908D01*
X149946736Y-111147884D01*
X149960712Y-111164915D01*
X149971100Y-111184351D01*
X149977496Y-111205432D01*
X149980260Y-111233500D01*
X149980260Y-111697220D01*
X149977496Y-111725288D01*
X149971100Y-111746369D01*
X149960712Y-111765805D01*
X149946736Y-111782836D01*
X149929705Y-111796812D01*
X149910269Y-111807200D01*
X149889188Y-111813596D01*
X149861120Y-111816360D01*
X148047400Y-111816360D01*
X148019332Y-111813596D01*
X147998251Y-111807200D01*
X147978815Y-111796812D01*
X147961784Y-111782836D01*
X147947808Y-111765805D01*
X147937420Y-111746369D01*
X147931024Y-111725288D01*
X147928260Y-111697220D01*
X147928260Y-111233500D01*
X147931024Y-111205432D01*
X147937420Y-111184351D01*
X147947808Y-111164915D01*
X147961784Y-111147884D01*
X147978815Y-111133908D01*
X147998251Y-111123520D01*
X148019332Y-111117124D01*
X148047400Y-111114360D01*
X149861120Y-111114360D01*
X149889188Y-111117124D01*
G37*
G36*
X144939188Y-111117124D02*
G01*
X144960269Y-111123520D01*
X144979705Y-111133908D01*
X144996736Y-111147884D01*
X145010712Y-111164915D01*
X145021100Y-111184351D01*
X145027496Y-111205432D01*
X145030260Y-111233500D01*
X145030260Y-111697220D01*
X145027496Y-111725288D01*
X145021100Y-111746369D01*
X145010712Y-111765805D01*
X144996736Y-111782836D01*
X144979705Y-111796812D01*
X144960269Y-111807200D01*
X144939188Y-111813596D01*
X144911120Y-111816360D01*
X143097400Y-111816360D01*
X143069332Y-111813596D01*
X143048251Y-111807200D01*
X143028815Y-111796812D01*
X143011784Y-111782836D01*
X142997808Y-111765805D01*
X142987420Y-111746369D01*
X142981024Y-111725288D01*
X142978260Y-111697220D01*
X142978260Y-111233500D01*
X142981024Y-111205432D01*
X142987420Y-111184351D01*
X142997808Y-111164915D01*
X143011784Y-111147884D01*
X143028815Y-111133908D01*
X143048251Y-111123520D01*
X143069332Y-111117124D01*
X143097400Y-111114360D01*
X144911120Y-111114360D01*
X144939188Y-111117124D01*
G37*
G36*
X120024300Y-111625500D02*
G01*
X118362300Y-111625500D01*
X118362300Y-108973500D01*
X120024300Y-108973500D01*
X120024300Y-111625500D01*
G37*
G36*
X117324300Y-111625500D02*
G01*
X115662300Y-111625500D01*
X115662300Y-108973500D01*
X117324300Y-108973500D01*
X117324300Y-111625500D01*
G37*
G36*
X134404178Y-109521647D02*
G01*
X134570624Y-109590591D01*
X134720422Y-109690683D01*
X134847817Y-109818078D01*
X134947909Y-109967876D01*
X135016853Y-110134322D01*
X135052000Y-110311018D01*
X135052000Y-110491182D01*
X135016853Y-110667878D01*
X134947909Y-110834324D01*
X134847817Y-110984122D01*
X134720422Y-111111517D01*
X134570624Y-111211609D01*
X134404178Y-111280553D01*
X134227482Y-111315700D01*
X134047318Y-111315700D01*
X133870622Y-111280553D01*
X133704176Y-111211609D01*
X133554378Y-111111517D01*
X133426983Y-110984122D01*
X133326891Y-110834324D01*
X133257947Y-110667878D01*
X133222800Y-110491182D01*
X133222800Y-110311018D01*
X133257947Y-110134322D01*
X133326891Y-109967876D01*
X133426983Y-109818078D01*
X133554378Y-109690683D01*
X133704176Y-109590591D01*
X133870622Y-109521647D01*
X134047318Y-109486500D01*
X134227482Y-109486500D01*
X134404178Y-109521647D01*
G37*
G36*
X131864178Y-109521647D02*
G01*
X132030624Y-109590591D01*
X132180422Y-109690683D01*
X132307817Y-109818078D01*
X132407909Y-109967876D01*
X132476853Y-110134322D01*
X132512000Y-110311018D01*
X132512000Y-110491182D01*
X132476853Y-110667878D01*
X132407909Y-110834324D01*
X132307817Y-110984122D01*
X132180422Y-111111517D01*
X132030624Y-111211609D01*
X131864178Y-111280553D01*
X131687482Y-111315700D01*
X131507318Y-111315700D01*
X131330622Y-111280553D01*
X131164176Y-111211609D01*
X131014378Y-111111517D01*
X130886983Y-110984122D01*
X130786891Y-110834324D01*
X130717947Y-110667878D01*
X130682800Y-110491182D01*
X130682800Y-110311018D01*
X130717947Y-110134322D01*
X130786891Y-109967876D01*
X130886983Y-109818078D01*
X131014378Y-109690683D01*
X131164176Y-109590591D01*
X131330622Y-109521647D01*
X131507318Y-109486500D01*
X131687482Y-109486500D01*
X131864178Y-109521647D01*
G37*
G36*
X129972000Y-111315700D02*
G01*
X128142800Y-111315700D01*
X128142800Y-109486500D01*
X129972000Y-109486500D01*
X129972000Y-111315700D01*
G37*
G36*
X149889188Y-109847124D02*
G01*
X149910269Y-109853520D01*
X149929705Y-109863908D01*
X149946736Y-109877884D01*
X149960712Y-109894915D01*
X149971100Y-109914351D01*
X149977496Y-109935432D01*
X149980260Y-109963500D01*
X149980260Y-110427220D01*
X149977496Y-110455288D01*
X149971100Y-110476369D01*
X149960712Y-110495805D01*
X149946736Y-110512836D01*
X149929705Y-110526812D01*
X149910269Y-110537200D01*
X149889188Y-110543596D01*
X149861120Y-110546360D01*
X148047400Y-110546360D01*
X148019332Y-110543596D01*
X147998251Y-110537200D01*
X147978815Y-110526812D01*
X147961784Y-110512836D01*
X147947808Y-110495805D01*
X147937420Y-110476369D01*
X147931024Y-110455288D01*
X147928260Y-110427220D01*
X147928260Y-109963500D01*
X147931024Y-109935432D01*
X147937420Y-109914351D01*
X147947808Y-109894915D01*
X147961784Y-109877884D01*
X147978815Y-109863908D01*
X147998251Y-109853520D01*
X148019332Y-109847124D01*
X148047400Y-109844360D01*
X149861120Y-109844360D01*
X149889188Y-109847124D01*
G37*
G36*
X144939188Y-109847124D02*
G01*
X144960269Y-109853520D01*
X144979705Y-109863908D01*
X144996736Y-109877884D01*
X145010712Y-109894915D01*
X145021100Y-109914351D01*
X145027496Y-109935432D01*
X145030260Y-109963500D01*
X145030260Y-110427220D01*
X145027496Y-110455288D01*
X145021100Y-110476369D01*
X145010712Y-110495805D01*
X144996736Y-110512836D01*
X144979705Y-110526812D01*
X144960269Y-110537200D01*
X144939188Y-110543596D01*
X144911120Y-110546360D01*
X143097400Y-110546360D01*
X143069332Y-110543596D01*
X143048251Y-110537200D01*
X143028815Y-110526812D01*
X143011784Y-110512836D01*
X142997808Y-110495805D01*
X142987420Y-110476369D01*
X142981024Y-110455288D01*
X142978260Y-110427220D01*
X142978260Y-109963500D01*
X142981024Y-109935432D01*
X142987420Y-109914351D01*
X142997808Y-109894915D01*
X143011784Y-109877884D01*
X143028815Y-109863908D01*
X143048251Y-109853520D01*
X143069332Y-109847124D01*
X143097400Y-109844360D01*
X144911120Y-109844360D01*
X144939188Y-109847124D01*
G37*
G36*
X141866440Y-109948800D02*
G01*
X140764440Y-109948800D01*
X140764440Y-108846800D01*
X141866440Y-108846800D01*
X141866440Y-109948800D01*
G37*
G36*
X152336320Y-109786240D02*
G01*
X151234320Y-109786240D01*
X151234320Y-108684240D01*
X152336320Y-108684240D01*
X152336320Y-109786240D01*
G37*
G36*
X122670162Y-108065381D02*
G01*
X122705081Y-108075974D01*
X122737263Y-108093176D01*
X122765473Y-108116327D01*
X122788624Y-108144537D01*
X122805826Y-108176719D01*
X122816419Y-108211638D01*
X122820600Y-108254095D01*
X122820600Y-109395305D01*
X122816419Y-109437762D01*
X122805826Y-109472681D01*
X122788624Y-109504863D01*
X122765473Y-109533073D01*
X122737263Y-109556224D01*
X122705081Y-109573426D01*
X122670162Y-109584019D01*
X122627705Y-109588200D01*
X121161495Y-109588200D01*
X121119038Y-109584019D01*
X121084119Y-109573426D01*
X121051937Y-109556224D01*
X121023727Y-109533073D01*
X121000576Y-109504863D01*
X120983374Y-109472681D01*
X120972781Y-109437762D01*
X120968600Y-109395305D01*
X120968600Y-108254095D01*
X120972781Y-108211638D01*
X120983374Y-108176719D01*
X121000576Y-108144537D01*
X121023727Y-108116327D01*
X121051937Y-108093176D01*
X121084119Y-108075974D01*
X121119038Y-108065381D01*
X121161495Y-108061200D01*
X122627705Y-108061200D01*
X122670162Y-108065381D01*
G37*
G36*
X114669162Y-108039981D02*
G01*
X114704081Y-108050574D01*
X114736263Y-108067776D01*
X114764473Y-108090927D01*
X114787624Y-108119137D01*
X114804826Y-108151319D01*
X114815419Y-108186238D01*
X114819600Y-108228695D01*
X114819600Y-109369905D01*
X114815419Y-109412362D01*
X114804826Y-109447281D01*
X114787624Y-109479463D01*
X114764473Y-109507673D01*
X114736263Y-109530824D01*
X114704081Y-109548026D01*
X114669162Y-109558619D01*
X114626705Y-109562800D01*
X113160495Y-109562800D01*
X113118038Y-109558619D01*
X113083119Y-109548026D01*
X113050937Y-109530824D01*
X113022727Y-109507673D01*
X112999576Y-109479463D01*
X112982374Y-109447281D01*
X112971781Y-109412362D01*
X112967600Y-109369905D01*
X112967600Y-108228695D01*
X112971781Y-108186238D01*
X112982374Y-108151319D01*
X112999576Y-108119137D01*
X113022727Y-108090927D01*
X113050937Y-108067776D01*
X113083119Y-108050574D01*
X113118038Y-108039981D01*
X113160495Y-108035800D01*
X114626705Y-108035800D01*
X114669162Y-108039981D01*
G37*
G36*
X149889188Y-108577124D02*
G01*
X149910269Y-108583520D01*
X149929705Y-108593908D01*
X149946736Y-108607884D01*
X149960712Y-108624915D01*
X149971100Y-108644351D01*
X149977496Y-108665432D01*
X149980260Y-108693500D01*
X149980260Y-109157220D01*
X149977496Y-109185288D01*
X149971100Y-109206369D01*
X149960712Y-109225805D01*
X149946736Y-109242836D01*
X149929705Y-109256812D01*
X149910269Y-109267200D01*
X149889188Y-109273596D01*
X149861120Y-109276360D01*
X148047400Y-109276360D01*
X148019332Y-109273596D01*
X147998251Y-109267200D01*
X147978815Y-109256812D01*
X147961784Y-109242836D01*
X147947808Y-109225805D01*
X147937420Y-109206369D01*
X147931024Y-109185288D01*
X147928260Y-109157220D01*
X147928260Y-108693500D01*
X147931024Y-108665432D01*
X147937420Y-108644351D01*
X147947808Y-108624915D01*
X147961784Y-108607884D01*
X147978815Y-108593908D01*
X147998251Y-108583520D01*
X148019332Y-108577124D01*
X148047400Y-108574360D01*
X149861120Y-108574360D01*
X149889188Y-108577124D01*
G37*
G36*
X144939188Y-108577124D02*
G01*
X144960269Y-108583520D01*
X144979705Y-108593908D01*
X144996736Y-108607884D01*
X145010712Y-108624915D01*
X145021100Y-108644351D01*
X145027496Y-108665432D01*
X145030260Y-108693500D01*
X145030260Y-109157220D01*
X145027496Y-109185288D01*
X145021100Y-109206369D01*
X145010712Y-109225805D01*
X144996736Y-109242836D01*
X144979705Y-109256812D01*
X144960269Y-109267200D01*
X144939188Y-109273596D01*
X144911120Y-109276360D01*
X143097400Y-109276360D01*
X143069332Y-109273596D01*
X143048251Y-109267200D01*
X143028815Y-109256812D01*
X143011784Y-109242836D01*
X142997808Y-109225805D01*
X142987420Y-109206369D01*
X142981024Y-109185288D01*
X142978260Y-109157220D01*
X142978260Y-108693500D01*
X142981024Y-108665432D01*
X142987420Y-108644351D01*
X142997808Y-108624915D01*
X143011784Y-108607884D01*
X143028815Y-108593908D01*
X143048251Y-108583520D01*
X143069332Y-108577124D01*
X143097400Y-108574360D01*
X144911120Y-108574360D01*
X144939188Y-108577124D01*
G37*
G36*
X131864178Y-106981647D02*
G01*
X132030624Y-107050591D01*
X132180422Y-107150683D01*
X132307817Y-107278078D01*
X132407909Y-107427876D01*
X132476853Y-107594322D01*
X132512000Y-107771018D01*
X132512000Y-107951182D01*
X132476853Y-108127878D01*
X132407909Y-108294324D01*
X132307817Y-108444122D01*
X132180422Y-108571517D01*
X132030624Y-108671609D01*
X131864178Y-108740553D01*
X131687482Y-108775700D01*
X131507318Y-108775700D01*
X131330622Y-108740553D01*
X131164176Y-108671609D01*
X131014378Y-108571517D01*
X130886983Y-108444122D01*
X130786891Y-108294324D01*
X130717947Y-108127878D01*
X130682800Y-107951182D01*
X130682800Y-107771018D01*
X130717947Y-107594322D01*
X130786891Y-107427876D01*
X130886983Y-107278078D01*
X131014378Y-107150683D01*
X131164176Y-107050591D01*
X131330622Y-106981647D01*
X131507318Y-106946500D01*
X131687482Y-106946500D01*
X131864178Y-106981647D01*
G37*
G36*
X134404178Y-106981647D02*
G01*
X134570624Y-107050591D01*
X134720422Y-107150683D01*
X134847817Y-107278078D01*
X134947909Y-107427876D01*
X135016853Y-107594322D01*
X135052000Y-107771018D01*
X135052000Y-107951182D01*
X135016853Y-108127878D01*
X134947909Y-108294324D01*
X134847817Y-108444122D01*
X134720422Y-108571517D01*
X134570624Y-108671609D01*
X134404178Y-108740553D01*
X134227482Y-108775700D01*
X134047318Y-108775700D01*
X133870622Y-108740553D01*
X133704176Y-108671609D01*
X133554378Y-108571517D01*
X133426983Y-108444122D01*
X133326891Y-108294324D01*
X133257947Y-108127878D01*
X133222800Y-107951182D01*
X133222800Y-107771018D01*
X133257947Y-107594322D01*
X133326891Y-107427876D01*
X133426983Y-107278078D01*
X133554378Y-107150683D01*
X133704176Y-107050591D01*
X133870622Y-106981647D01*
X134047318Y-106946500D01*
X134227482Y-106946500D01*
X134404178Y-106981647D01*
G37*
G36*
X129324178Y-106981647D02*
G01*
X129490624Y-107050591D01*
X129640422Y-107150683D01*
X129767817Y-107278078D01*
X129867909Y-107427876D01*
X129936853Y-107594322D01*
X129972000Y-107771018D01*
X129972000Y-107951182D01*
X129936853Y-108127878D01*
X129867909Y-108294324D01*
X129767817Y-108444122D01*
X129640422Y-108571517D01*
X129490624Y-108671609D01*
X129324178Y-108740553D01*
X129147482Y-108775700D01*
X128967318Y-108775700D01*
X128790622Y-108740553D01*
X128624176Y-108671609D01*
X128474378Y-108571517D01*
X128346983Y-108444122D01*
X128246891Y-108294324D01*
X128177947Y-108127878D01*
X128142800Y-107951182D01*
X128142800Y-107771018D01*
X128177947Y-107594322D01*
X128246891Y-107427876D01*
X128346983Y-107278078D01*
X128474378Y-107150683D01*
X128624176Y-107050591D01*
X128790622Y-106981647D01*
X128967318Y-106946500D01*
X129147482Y-106946500D01*
X129324178Y-106981647D01*
G37*
G36*
X119577997Y-103878651D02*
G01*
X119611652Y-103888861D01*
X119642665Y-103905438D01*
X119669851Y-103927749D01*
X119692162Y-103954935D01*
X119708739Y-103985948D01*
X119718949Y-104019603D01*
X119723000Y-104060738D01*
X119723000Y-106790462D01*
X119718949Y-106831597D01*
X119708739Y-106865252D01*
X119692162Y-106896265D01*
X119669851Y-106923451D01*
X119642665Y-106945762D01*
X119611652Y-106962339D01*
X119577997Y-106972549D01*
X119536862Y-106976600D01*
X118207138Y-106976600D01*
X118166003Y-106972549D01*
X118132348Y-106962339D01*
X118101335Y-106945762D01*
X118074149Y-106923451D01*
X118051838Y-106896265D01*
X118035261Y-106865252D01*
X118025051Y-106831597D01*
X118021000Y-106790462D01*
X118021000Y-104060738D01*
X118025051Y-104019603D01*
X118035261Y-103985948D01*
X118051838Y-103954935D01*
X118074149Y-103927749D01*
X118101335Y-103905438D01*
X118132348Y-103888861D01*
X118166003Y-103878651D01*
X118207138Y-103874600D01*
X119536862Y-103874600D01*
X119577997Y-103878651D01*
G37*
G36*
X161260147Y-104341841D02*
G01*
X161339776Y-104349684D01*
X161493027Y-104396172D01*
X161493030Y-104396173D01*
X161634263Y-104471664D01*
X161758059Y-104573261D01*
X161859656Y-104697057D01*
X161935147Y-104838290D01*
X161935148Y-104838293D01*
X161981636Y-104991544D01*
X161997333Y-105150920D01*
X161981636Y-105310296D01*
X161962083Y-105374753D01*
X161935147Y-105463550D01*
X161859656Y-105604783D01*
X161758059Y-105728579D01*
X161634263Y-105830176D01*
X161493030Y-105905667D01*
X161493027Y-105905668D01*
X161339776Y-105952156D01*
X161260147Y-105959999D01*
X161220334Y-105963920D01*
X160140466Y-105963920D01*
X160100653Y-105959999D01*
X160021024Y-105952156D01*
X159867773Y-105905668D01*
X159867770Y-105905667D01*
X159726537Y-105830176D01*
X159602741Y-105728579D01*
X159501144Y-105604783D01*
X159425653Y-105463550D01*
X159398717Y-105374753D01*
X159379164Y-105310296D01*
X159363467Y-105150920D01*
X159379164Y-104991544D01*
X159425652Y-104838293D01*
X159425653Y-104838290D01*
X159501144Y-104697057D01*
X159602741Y-104573261D01*
X159726537Y-104471664D01*
X159867770Y-104396173D01*
X159867773Y-104396172D01*
X160021024Y-104349684D01*
X160100653Y-104341841D01*
X160140466Y-104337920D01*
X161220334Y-104337920D01*
X161260147Y-104341841D01*
G37*
G36*
X146020147Y-104341841D02*
G01*
X146099776Y-104349684D01*
X146253027Y-104396172D01*
X146253030Y-104396173D01*
X146394263Y-104471664D01*
X146518059Y-104573261D01*
X146619656Y-104697057D01*
X146695147Y-104838290D01*
X146695148Y-104838293D01*
X146741636Y-104991544D01*
X146757333Y-105150920D01*
X146741636Y-105310296D01*
X146722083Y-105374753D01*
X146695147Y-105463550D01*
X146619656Y-105604783D01*
X146518059Y-105728579D01*
X146394263Y-105830176D01*
X146253030Y-105905667D01*
X146253027Y-105905668D01*
X146099776Y-105952156D01*
X146020147Y-105959999D01*
X145980334Y-105963920D01*
X144900466Y-105963920D01*
X144860653Y-105959999D01*
X144781024Y-105952156D01*
X144627773Y-105905668D01*
X144627770Y-105905667D01*
X144486537Y-105830176D01*
X144362741Y-105728579D01*
X144261144Y-105604783D01*
X144185653Y-105463550D01*
X144158717Y-105374753D01*
X144139164Y-105310296D01*
X144123467Y-105150920D01*
X144139164Y-104991544D01*
X144185652Y-104838293D01*
X144185653Y-104838290D01*
X144261144Y-104697057D01*
X144362741Y-104573261D01*
X144486537Y-104471664D01*
X144627770Y-104396173D01*
X144627773Y-104396172D01*
X144781024Y-104349684D01*
X144860653Y-104341841D01*
X144900466Y-104337920D01*
X145980334Y-104337920D01*
X146020147Y-104341841D01*
G37*
G36*
X112521212Y-103904327D02*
G01*
X112670512Y-103934024D01*
X112834484Y-104001944D01*
X112982054Y-104100547D01*
X113107553Y-104226046D01*
X113206156Y-104373616D01*
X113274076Y-104537588D01*
X113308700Y-104711659D01*
X113308700Y-104889141D01*
X113274076Y-105063212D01*
X113206156Y-105227184D01*
X113107553Y-105374754D01*
X112982054Y-105500253D01*
X112834484Y-105598856D01*
X112670512Y-105666776D01*
X112521212Y-105696473D01*
X112496442Y-105701400D01*
X112318958Y-105701400D01*
X112294188Y-105696473D01*
X112144888Y-105666776D01*
X111980916Y-105598856D01*
X111833346Y-105500253D01*
X111707847Y-105374754D01*
X111609244Y-105227184D01*
X111541324Y-105063212D01*
X111506700Y-104889141D01*
X111506700Y-104711659D01*
X111541324Y-104537588D01*
X111609244Y-104373616D01*
X111707847Y-104226046D01*
X111833346Y-104100547D01*
X111980916Y-104001944D01*
X112144888Y-103934024D01*
X112294188Y-103904327D01*
X112318958Y-103899400D01*
X112496442Y-103899400D01*
X112521212Y-103904327D01*
G37*
G36*
X135103462Y-102277381D02*
G01*
X135138381Y-102287974D01*
X135170563Y-102305176D01*
X135198773Y-102328327D01*
X135221924Y-102356537D01*
X135239126Y-102388719D01*
X135249719Y-102423638D01*
X135253900Y-102466095D01*
X135253900Y-103607305D01*
X135249719Y-103649762D01*
X135239126Y-103684681D01*
X135221924Y-103716863D01*
X135198773Y-103745073D01*
X135170563Y-103768224D01*
X135138381Y-103785426D01*
X135103462Y-103796019D01*
X135061005Y-103800200D01*
X133594795Y-103800200D01*
X133552338Y-103796019D01*
X133517419Y-103785426D01*
X133485237Y-103768224D01*
X133457027Y-103745073D01*
X133433876Y-103716863D01*
X133416674Y-103684681D01*
X133406081Y-103649762D01*
X133401900Y-103607305D01*
X133401900Y-102466095D01*
X133406081Y-102423638D01*
X133416674Y-102388719D01*
X133433876Y-102356537D01*
X133457027Y-102328327D01*
X133485237Y-102305176D01*
X133517419Y-102287974D01*
X133552338Y-102277381D01*
X133594795Y-102273200D01*
X135061005Y-102273200D01*
X135103462Y-102277381D01*
G37*
G36*
X131712562Y-102264681D02*
G01*
X131747481Y-102275274D01*
X131779663Y-102292476D01*
X131807873Y-102315627D01*
X131831024Y-102343837D01*
X131848226Y-102376019D01*
X131858819Y-102410938D01*
X131863000Y-102453395D01*
X131863000Y-103594605D01*
X131858819Y-103637062D01*
X131848226Y-103671981D01*
X131831024Y-103704163D01*
X131807873Y-103732373D01*
X131779663Y-103755524D01*
X131747481Y-103772726D01*
X131712562Y-103783319D01*
X131670105Y-103787500D01*
X130203895Y-103787500D01*
X130161438Y-103783319D01*
X130126519Y-103772726D01*
X130094337Y-103755524D01*
X130066127Y-103732373D01*
X130042976Y-103704163D01*
X130025774Y-103671981D01*
X130015181Y-103637062D01*
X130011000Y-103594605D01*
X130011000Y-102453395D01*
X130015181Y-102410938D01*
X130025774Y-102376019D01*
X130042976Y-102343837D01*
X130066127Y-102315627D01*
X130094337Y-102292476D01*
X130126519Y-102275274D01*
X130161438Y-102264681D01*
X130203895Y-102260500D01*
X131670105Y-102260500D01*
X131712562Y-102264681D01*
G37*
G36*
X128689962Y-102251981D02*
G01*
X128724881Y-102262574D01*
X128757063Y-102279776D01*
X128785273Y-102302927D01*
X128808424Y-102331137D01*
X128825626Y-102363319D01*
X128836219Y-102398238D01*
X128840400Y-102440695D01*
X128840400Y-103581905D01*
X128836219Y-103624362D01*
X128825626Y-103659281D01*
X128808424Y-103691463D01*
X128785273Y-103719673D01*
X128757063Y-103742824D01*
X128724881Y-103760026D01*
X128689962Y-103770619D01*
X128647505Y-103774800D01*
X127181295Y-103774800D01*
X127138838Y-103770619D01*
X127103919Y-103760026D01*
X127071737Y-103742824D01*
X127043527Y-103719673D01*
X127020376Y-103691463D01*
X127003174Y-103659281D01*
X126992581Y-103624362D01*
X126988400Y-103581905D01*
X126988400Y-102440695D01*
X126992581Y-102398238D01*
X127003174Y-102363319D01*
X127020376Y-102331137D01*
X127043527Y-102302927D01*
X127071737Y-102279776D01*
X127103919Y-102262574D01*
X127138838Y-102251981D01*
X127181295Y-102247800D01*
X128647505Y-102247800D01*
X128689962Y-102251981D01*
G37*
G36*
X125660404Y-102396927D02*
G01*
X125696944Y-102408012D01*
X125730621Y-102426013D01*
X125760141Y-102450239D01*
X125784367Y-102479759D01*
X125802368Y-102513436D01*
X125813453Y-102549976D01*
X125817800Y-102594118D01*
X125817800Y-103543042D01*
X125813453Y-103587184D01*
X125802368Y-103623724D01*
X125784367Y-103657401D01*
X125760141Y-103686921D01*
X125730621Y-103711147D01*
X125696944Y-103729148D01*
X125660404Y-103740233D01*
X125616262Y-103744580D01*
X124167338Y-103744580D01*
X124123196Y-103740233D01*
X124086656Y-103729148D01*
X124052979Y-103711147D01*
X124023459Y-103686921D01*
X123999233Y-103657401D01*
X123981232Y-103623724D01*
X123970147Y-103587184D01*
X123965800Y-103543042D01*
X123965800Y-102594118D01*
X123970147Y-102549976D01*
X123981232Y-102513436D01*
X123999233Y-102479759D01*
X124023459Y-102450239D01*
X124052979Y-102426013D01*
X124086656Y-102408012D01*
X124123196Y-102396927D01*
X124167338Y-102392580D01*
X125616262Y-102392580D01*
X125660404Y-102396927D01*
G37*
G36*
X146020147Y-101801841D02*
G01*
X146099776Y-101809684D01*
X146253027Y-101856172D01*
X146253030Y-101856173D01*
X146394263Y-101931664D01*
X146518059Y-102033261D01*
X146619656Y-102157057D01*
X146695147Y-102298290D01*
X146695148Y-102298293D01*
X146741636Y-102451544D01*
X146757333Y-102610920D01*
X146741636Y-102770296D01*
X146695148Y-102923547D01*
X146695147Y-102923550D01*
X146619656Y-103064783D01*
X146518059Y-103188579D01*
X146394263Y-103290176D01*
X146253030Y-103365667D01*
X146253027Y-103365668D01*
X146099776Y-103412156D01*
X146020147Y-103419999D01*
X145980334Y-103423920D01*
X144900466Y-103423920D01*
X144860653Y-103419999D01*
X144781024Y-103412156D01*
X144627773Y-103365668D01*
X144627770Y-103365667D01*
X144486537Y-103290176D01*
X144362741Y-103188579D01*
X144261144Y-103064783D01*
X144185653Y-102923550D01*
X144185652Y-102923547D01*
X144139164Y-102770296D01*
X144123467Y-102610920D01*
X144139164Y-102451544D01*
X144185652Y-102298293D01*
X144185653Y-102298290D01*
X144261144Y-102157057D01*
X144362741Y-102033261D01*
X144486537Y-101931664D01*
X144627770Y-101856173D01*
X144627773Y-101856172D01*
X144781024Y-101809684D01*
X144860653Y-101801841D01*
X144900466Y-101797920D01*
X145980334Y-101797920D01*
X146020147Y-101801841D01*
G37*
G36*
X161260147Y-101801841D02*
G01*
X161339776Y-101809684D01*
X161493027Y-101856172D01*
X161493030Y-101856173D01*
X161634263Y-101931664D01*
X161758059Y-102033261D01*
X161859656Y-102157057D01*
X161935147Y-102298290D01*
X161935148Y-102298293D01*
X161981636Y-102451544D01*
X161997333Y-102610920D01*
X161981636Y-102770296D01*
X161935148Y-102923547D01*
X161935147Y-102923550D01*
X161859656Y-103064783D01*
X161758059Y-103188579D01*
X161634263Y-103290176D01*
X161493030Y-103365667D01*
X161493027Y-103365668D01*
X161339776Y-103412156D01*
X161260147Y-103419999D01*
X161220334Y-103423920D01*
X160140466Y-103423920D01*
X160100653Y-103419999D01*
X160021024Y-103412156D01*
X159867773Y-103365668D01*
X159867770Y-103365667D01*
X159726537Y-103290176D01*
X159602741Y-103188579D01*
X159501144Y-103064783D01*
X159425653Y-102923550D01*
X159425652Y-102923547D01*
X159379164Y-102770296D01*
X159363467Y-102610920D01*
X159379164Y-102451544D01*
X159425652Y-102298293D01*
X159425653Y-102298290D01*
X159501144Y-102157057D01*
X159602741Y-102033261D01*
X159726537Y-101931664D01*
X159867770Y-101856173D01*
X159867773Y-101856172D01*
X160021024Y-101809684D01*
X160100653Y-101801841D01*
X160140466Y-101797920D01*
X161220334Y-101797920D01*
X161260147Y-101801841D01*
G37*
G36*
X113308700Y-103161400D02*
G01*
X111506700Y-103161400D01*
X111506700Y-101359400D01*
X113308700Y-101359400D01*
X113308700Y-103161400D01*
G37*
G36*
X119577997Y-99478651D02*
G01*
X119611652Y-99488861D01*
X119642665Y-99505438D01*
X119669851Y-99527749D01*
X119692162Y-99554935D01*
X119708739Y-99585948D01*
X119718949Y-99619603D01*
X119723000Y-99660738D01*
X119723000Y-102390462D01*
X119718949Y-102431597D01*
X119708739Y-102465252D01*
X119692162Y-102496265D01*
X119669851Y-102523451D01*
X119642665Y-102545762D01*
X119611652Y-102562339D01*
X119577997Y-102572549D01*
X119536862Y-102576600D01*
X118207138Y-102576600D01*
X118166003Y-102572549D01*
X118132348Y-102562339D01*
X118101335Y-102545762D01*
X118074149Y-102523451D01*
X118051838Y-102496265D01*
X118035261Y-102465252D01*
X118025051Y-102431597D01*
X118021000Y-102390462D01*
X118021000Y-99660738D01*
X118025051Y-99619603D01*
X118035261Y-99585948D01*
X118051838Y-99554935D01*
X118074149Y-99527749D01*
X118101335Y-99505438D01*
X118132348Y-99488861D01*
X118166003Y-99478651D01*
X118207138Y-99474600D01*
X119536862Y-99474600D01*
X119577997Y-99478651D01*
G37*
G36*
X125660404Y-99596927D02*
G01*
X125696944Y-99608012D01*
X125730621Y-99626013D01*
X125760141Y-99650239D01*
X125784367Y-99679759D01*
X125802368Y-99713436D01*
X125813453Y-99749976D01*
X125817800Y-99794118D01*
X125817800Y-100743042D01*
X125813453Y-100787184D01*
X125802368Y-100823724D01*
X125784367Y-100857401D01*
X125760141Y-100886921D01*
X125730621Y-100911147D01*
X125696944Y-100929148D01*
X125660404Y-100940233D01*
X125616262Y-100944580D01*
X124167338Y-100944580D01*
X124123196Y-100940233D01*
X124086656Y-100929148D01*
X124052979Y-100911147D01*
X124023459Y-100886921D01*
X123999233Y-100857401D01*
X123981232Y-100823724D01*
X123970147Y-100787184D01*
X123965800Y-100743042D01*
X123965800Y-99794118D01*
X123970147Y-99749976D01*
X123981232Y-99713436D01*
X123999233Y-99679759D01*
X124023459Y-99650239D01*
X124052979Y-99626013D01*
X124086656Y-99608012D01*
X124123196Y-99596927D01*
X124167338Y-99592580D01*
X125616262Y-99592580D01*
X125660404Y-99596927D01*
G37*
G36*
X161260147Y-99261841D02*
G01*
X161339776Y-99269684D01*
X161493027Y-99316172D01*
X161493030Y-99316173D01*
X161634263Y-99391664D01*
X161758059Y-99493261D01*
X161859656Y-99617057D01*
X161935147Y-99758290D01*
X161935148Y-99758293D01*
X161981636Y-99911544D01*
X161997333Y-100070920D01*
X161981636Y-100230296D01*
X161935148Y-100383547D01*
X161935147Y-100383550D01*
X161859656Y-100524783D01*
X161758059Y-100648579D01*
X161634263Y-100750176D01*
X161493030Y-100825667D01*
X161493027Y-100825668D01*
X161339776Y-100872156D01*
X161260147Y-100879999D01*
X161220334Y-100883920D01*
X160140466Y-100883920D01*
X160100653Y-100879999D01*
X160021024Y-100872156D01*
X159867773Y-100825668D01*
X159867770Y-100825667D01*
X159726537Y-100750176D01*
X159602741Y-100648579D01*
X159501144Y-100524783D01*
X159425653Y-100383550D01*
X159425652Y-100383547D01*
X159379164Y-100230296D01*
X159363467Y-100070920D01*
X159379164Y-99911544D01*
X159425652Y-99758293D01*
X159425653Y-99758290D01*
X159501144Y-99617057D01*
X159602741Y-99493261D01*
X159726537Y-99391664D01*
X159867770Y-99316173D01*
X159867773Y-99316172D01*
X160021024Y-99269684D01*
X160100653Y-99261841D01*
X160140466Y-99257920D01*
X161220334Y-99257920D01*
X161260147Y-99261841D01*
G37*
G36*
X146020147Y-99261841D02*
G01*
X146099776Y-99269684D01*
X146253027Y-99316172D01*
X146253030Y-99316173D01*
X146394263Y-99391664D01*
X146518059Y-99493261D01*
X146619656Y-99617057D01*
X146695147Y-99758290D01*
X146695148Y-99758293D01*
X146741636Y-99911544D01*
X146757333Y-100070920D01*
X146741636Y-100230296D01*
X146695148Y-100383547D01*
X146695147Y-100383550D01*
X146619656Y-100524783D01*
X146518059Y-100648579D01*
X146394263Y-100750176D01*
X146253030Y-100825667D01*
X146253027Y-100825668D01*
X146099776Y-100872156D01*
X146020147Y-100879999D01*
X145980334Y-100883920D01*
X144900466Y-100883920D01*
X144860653Y-100879999D01*
X144781024Y-100872156D01*
X144627773Y-100825668D01*
X144627770Y-100825667D01*
X144486537Y-100750176D01*
X144362741Y-100648579D01*
X144261144Y-100524783D01*
X144185653Y-100383550D01*
X144185652Y-100383547D01*
X144139164Y-100230296D01*
X144123467Y-100070920D01*
X144139164Y-99911544D01*
X144185652Y-99758293D01*
X144185653Y-99758290D01*
X144261144Y-99617057D01*
X144362741Y-99493261D01*
X144486537Y-99391664D01*
X144627770Y-99316173D01*
X144627773Y-99316172D01*
X144781024Y-99269684D01*
X144860653Y-99261841D01*
X144900466Y-99257920D01*
X145980334Y-99257920D01*
X146020147Y-99261841D01*
G37*
G36*
X135103462Y-99302381D02*
G01*
X135138381Y-99312974D01*
X135170563Y-99330176D01*
X135198773Y-99353327D01*
X135221924Y-99381537D01*
X135239126Y-99413719D01*
X135249719Y-99448638D01*
X135253900Y-99491095D01*
X135253900Y-100632305D01*
X135249719Y-100674762D01*
X135239126Y-100709681D01*
X135221924Y-100741863D01*
X135198773Y-100770073D01*
X135170563Y-100793224D01*
X135138381Y-100810426D01*
X135103462Y-100821019D01*
X135061005Y-100825200D01*
X133594795Y-100825200D01*
X133552338Y-100821019D01*
X133517419Y-100810426D01*
X133485237Y-100793224D01*
X133457027Y-100770073D01*
X133433876Y-100741863D01*
X133416674Y-100709681D01*
X133406081Y-100674762D01*
X133401900Y-100632305D01*
X133401900Y-99491095D01*
X133406081Y-99448638D01*
X133416674Y-99413719D01*
X133433876Y-99381537D01*
X133457027Y-99353327D01*
X133485237Y-99330176D01*
X133517419Y-99312974D01*
X133552338Y-99302381D01*
X133594795Y-99298200D01*
X135061005Y-99298200D01*
X135103462Y-99302381D01*
G37*
G36*
X131712562Y-99289681D02*
G01*
X131747481Y-99300274D01*
X131779663Y-99317476D01*
X131807873Y-99340627D01*
X131831024Y-99368837D01*
X131848226Y-99401019D01*
X131858819Y-99435938D01*
X131863000Y-99478395D01*
X131863000Y-100619605D01*
X131858819Y-100662062D01*
X131848226Y-100696981D01*
X131831024Y-100729163D01*
X131807873Y-100757373D01*
X131779663Y-100780524D01*
X131747481Y-100797726D01*
X131712562Y-100808319D01*
X131670105Y-100812500D01*
X130203895Y-100812500D01*
X130161438Y-100808319D01*
X130126519Y-100797726D01*
X130094337Y-100780524D01*
X130066127Y-100757373D01*
X130042976Y-100729163D01*
X130025774Y-100696981D01*
X130015181Y-100662062D01*
X130011000Y-100619605D01*
X130011000Y-99478395D01*
X130015181Y-99435938D01*
X130025774Y-99401019D01*
X130042976Y-99368837D01*
X130066127Y-99340627D01*
X130094337Y-99317476D01*
X130126519Y-99300274D01*
X130161438Y-99289681D01*
X130203895Y-99285500D01*
X131670105Y-99285500D01*
X131712562Y-99289681D01*
G37*
G36*
X128689962Y-99276981D02*
G01*
X128724881Y-99287574D01*
X128757063Y-99304776D01*
X128785273Y-99327927D01*
X128808424Y-99356137D01*
X128825626Y-99388319D01*
X128836219Y-99423238D01*
X128840400Y-99465695D01*
X128840400Y-100606905D01*
X128836219Y-100649362D01*
X128825626Y-100684281D01*
X128808424Y-100716463D01*
X128785273Y-100744673D01*
X128757063Y-100767824D01*
X128724881Y-100785026D01*
X128689962Y-100795619D01*
X128647505Y-100799800D01*
X127181295Y-100799800D01*
X127138838Y-100795619D01*
X127103919Y-100785026D01*
X127071737Y-100767824D01*
X127043527Y-100744673D01*
X127020376Y-100716463D01*
X127003174Y-100684281D01*
X126992581Y-100649362D01*
X126988400Y-100606905D01*
X126988400Y-99465695D01*
X126992581Y-99423238D01*
X127003174Y-99388319D01*
X127020376Y-99356137D01*
X127043527Y-99327927D01*
X127071737Y-99304776D01*
X127103919Y-99287574D01*
X127138838Y-99276981D01*
X127181295Y-99272800D01*
X128647505Y-99272800D01*
X128689962Y-99276981D01*
G37*
G36*
X146020147Y-96721841D02*
G01*
X146099776Y-96729684D01*
X146219006Y-96765852D01*
X146253030Y-96776173D01*
X146394263Y-96851664D01*
X146518059Y-96953261D01*
X146619656Y-97077057D01*
X146695147Y-97218290D01*
X146695148Y-97218293D01*
X146741636Y-97371544D01*
X146757333Y-97530920D01*
X146741636Y-97690296D01*
X146695148Y-97843547D01*
X146695147Y-97843550D01*
X146619656Y-97984783D01*
X146518059Y-98108579D01*
X146394263Y-98210176D01*
X146253030Y-98285667D01*
X146253027Y-98285668D01*
X146099776Y-98332156D01*
X146020147Y-98339999D01*
X145980334Y-98343920D01*
X144900466Y-98343920D01*
X144860653Y-98339999D01*
X144781024Y-98332156D01*
X144627773Y-98285668D01*
X144627770Y-98285667D01*
X144486537Y-98210176D01*
X144362741Y-98108579D01*
X144261144Y-97984783D01*
X144185653Y-97843550D01*
X144185652Y-97843547D01*
X144139164Y-97690296D01*
X144123467Y-97530920D01*
X144139164Y-97371544D01*
X144185652Y-97218293D01*
X144185653Y-97218290D01*
X144261144Y-97077057D01*
X144362741Y-96953261D01*
X144486537Y-96851664D01*
X144627770Y-96776173D01*
X144661794Y-96765852D01*
X144781024Y-96729684D01*
X144860653Y-96721841D01*
X144900466Y-96717920D01*
X145980334Y-96717920D01*
X146020147Y-96721841D01*
G37*
G36*
X161260147Y-96721841D02*
G01*
X161339776Y-96729684D01*
X161459006Y-96765852D01*
X161493030Y-96776173D01*
X161634263Y-96851664D01*
X161758059Y-96953261D01*
X161859656Y-97077057D01*
X161935147Y-97218290D01*
X161935148Y-97218293D01*
X161981636Y-97371544D01*
X161997333Y-97530920D01*
X161981636Y-97690296D01*
X161935148Y-97843547D01*
X161935147Y-97843550D01*
X161859656Y-97984783D01*
X161758059Y-98108579D01*
X161634263Y-98210176D01*
X161493030Y-98285667D01*
X161493027Y-98285668D01*
X161339776Y-98332156D01*
X161260147Y-98339999D01*
X161220334Y-98343920D01*
X160140466Y-98343920D01*
X160100653Y-98339999D01*
X160021024Y-98332156D01*
X159867773Y-98285668D01*
X159867770Y-98285667D01*
X159726537Y-98210176D01*
X159602741Y-98108579D01*
X159501144Y-97984783D01*
X159425653Y-97843550D01*
X159425652Y-97843547D01*
X159379164Y-97690296D01*
X159363467Y-97530920D01*
X159379164Y-97371544D01*
X159425652Y-97218293D01*
X159425653Y-97218290D01*
X159501144Y-97077057D01*
X159602741Y-96953261D01*
X159726537Y-96851664D01*
X159867770Y-96776173D01*
X159901794Y-96765852D01*
X160021024Y-96729684D01*
X160100653Y-96721841D01*
X160140466Y-96717920D01*
X161220334Y-96717920D01*
X161260147Y-96721841D01*
G37*
G36*
X121353562Y-94963181D02*
G01*
X121388481Y-94973774D01*
X121420663Y-94990976D01*
X121448873Y-95014127D01*
X121472024Y-95042337D01*
X121489226Y-95074519D01*
X121499819Y-95109438D01*
X121504000Y-95151895D01*
X121504000Y-96618105D01*
X121499819Y-96660562D01*
X121489226Y-96695481D01*
X121472024Y-96727663D01*
X121448873Y-96755873D01*
X121420663Y-96779024D01*
X121388481Y-96796226D01*
X121353562Y-96806819D01*
X121311105Y-96811000D01*
X120169895Y-96811000D01*
X120127438Y-96806819D01*
X120092519Y-96796226D01*
X120060337Y-96779024D01*
X120032127Y-96755873D01*
X120008976Y-96727663D01*
X119991774Y-96695481D01*
X119981181Y-96660562D01*
X119977000Y-96618105D01*
X119977000Y-95151895D01*
X119981181Y-95109438D01*
X119991774Y-95074519D01*
X120008976Y-95042337D01*
X120032127Y-95014127D01*
X120060337Y-94990976D01*
X120092519Y-94973774D01*
X120127438Y-94963181D01*
X120169895Y-94959000D01*
X121311105Y-94959000D01*
X121353562Y-94963181D01*
G37*
G36*
X118378562Y-94963181D02*
G01*
X118413481Y-94973774D01*
X118445663Y-94990976D01*
X118473873Y-95014127D01*
X118497024Y-95042337D01*
X118514226Y-95074519D01*
X118524819Y-95109438D01*
X118529000Y-95151895D01*
X118529000Y-96618105D01*
X118524819Y-96660562D01*
X118514226Y-96695481D01*
X118497024Y-96727663D01*
X118473873Y-96755873D01*
X118445663Y-96779024D01*
X118413481Y-96796226D01*
X118378562Y-96806819D01*
X118336105Y-96811000D01*
X117194895Y-96811000D01*
X117152438Y-96806819D01*
X117117519Y-96796226D01*
X117085337Y-96779024D01*
X117057127Y-96755873D01*
X117033976Y-96727663D01*
X117016774Y-96695481D01*
X117006181Y-96660562D01*
X117002000Y-96618105D01*
X117002000Y-95151895D01*
X117006181Y-95109438D01*
X117016774Y-95074519D01*
X117033976Y-95042337D01*
X117057127Y-95014127D01*
X117085337Y-94990976D01*
X117117519Y-94973774D01*
X117152438Y-94963181D01*
X117194895Y-94959000D01*
X118336105Y-94959000D01*
X118378562Y-94963181D01*
G37*
G36*
X115137500Y-96722500D02*
G01*
X113335500Y-96722500D01*
X113335500Y-94920500D01*
X115137500Y-94920500D01*
X115137500Y-96722500D01*
G37*
G36*
X146753400Y-95803920D02*
G01*
X144127400Y-95803920D01*
X144127400Y-94177920D01*
X146753400Y-94177920D01*
X146753400Y-95803920D01*
G37*
G36*
X161260147Y-94181841D02*
G01*
X161339776Y-94189684D01*
X161459006Y-94225852D01*
X161493030Y-94236173D01*
X161634263Y-94311664D01*
X161758059Y-94413261D01*
X161859656Y-94537057D01*
X161935147Y-94678290D01*
X161935148Y-94678293D01*
X161981636Y-94831544D01*
X161997333Y-94990920D01*
X161981636Y-95150296D01*
X161949762Y-95255370D01*
X161935147Y-95303550D01*
X161859656Y-95444783D01*
X161758059Y-95568579D01*
X161634263Y-95670176D01*
X161493030Y-95745667D01*
X161493027Y-95745668D01*
X161339776Y-95792156D01*
X161260147Y-95799999D01*
X161220334Y-95803920D01*
X160140466Y-95803920D01*
X160100653Y-95799999D01*
X160021024Y-95792156D01*
X159867773Y-95745668D01*
X159867770Y-95745667D01*
X159726537Y-95670176D01*
X159602741Y-95568579D01*
X159501144Y-95444783D01*
X159425653Y-95303550D01*
X159411038Y-95255370D01*
X159379164Y-95150296D01*
X159363467Y-94990920D01*
X159379164Y-94831544D01*
X159425652Y-94678293D01*
X159425653Y-94678290D01*
X159501144Y-94537057D01*
X159602741Y-94413261D01*
X159726537Y-94311664D01*
X159867770Y-94236173D01*
X159901794Y-94225852D01*
X160021024Y-94189684D01*
X160100653Y-94181841D01*
X160140466Y-94177920D01*
X161220334Y-94177920D01*
X161260147Y-94181841D01*
G37*
G36*
X139358607Y-94614104D02*
G01*
X139377350Y-94619790D01*
X139394617Y-94629019D01*
X139409756Y-94641444D01*
X139422181Y-94656583D01*
X139431410Y-94673850D01*
X139437096Y-94692593D01*
X139439620Y-94718220D01*
X139439620Y-95156940D01*
X139437096Y-95182567D01*
X139431410Y-95201310D01*
X139422181Y-95218577D01*
X139409756Y-95233716D01*
X139394617Y-95246141D01*
X139377350Y-95255370D01*
X139358607Y-95261056D01*
X139332980Y-95263580D01*
X137444260Y-95263580D01*
X137418633Y-95261056D01*
X137399890Y-95255370D01*
X137382623Y-95246141D01*
X137367484Y-95233716D01*
X137355059Y-95218577D01*
X137345830Y-95201310D01*
X137340144Y-95182567D01*
X137337620Y-95156940D01*
X137337620Y-94718220D01*
X137340144Y-94692593D01*
X137345830Y-94673850D01*
X137355059Y-94656583D01*
X137367484Y-94641444D01*
X137382623Y-94629019D01*
X137399890Y-94619790D01*
X137418633Y-94614104D01*
X137444260Y-94611580D01*
X139332980Y-94611580D01*
X139358607Y-94614104D01*
G37*
G36*
X130058607Y-94614104D02*
G01*
X130077350Y-94619790D01*
X130094617Y-94629019D01*
X130109756Y-94641444D01*
X130122181Y-94656583D01*
X130131410Y-94673850D01*
X130137096Y-94692593D01*
X130139620Y-94718220D01*
X130139620Y-95156940D01*
X130137096Y-95182567D01*
X130131410Y-95201310D01*
X130122181Y-95218577D01*
X130109756Y-95233716D01*
X130094617Y-95246141D01*
X130077350Y-95255370D01*
X130058607Y-95261056D01*
X130032980Y-95263580D01*
X128144260Y-95263580D01*
X128118633Y-95261056D01*
X128099890Y-95255370D01*
X128082623Y-95246141D01*
X128067484Y-95233716D01*
X128055059Y-95218577D01*
X128045830Y-95201310D01*
X128040144Y-95182567D01*
X128037620Y-95156940D01*
X128037620Y-94718220D01*
X128040144Y-94692593D01*
X128045830Y-94673850D01*
X128055059Y-94656583D01*
X128067484Y-94641444D01*
X128082623Y-94629019D01*
X128099890Y-94619790D01*
X128118633Y-94614104D01*
X128144260Y-94611580D01*
X130032980Y-94611580D01*
X130058607Y-94614104D01*
G37*
G36*
X121353562Y-92423181D02*
G01*
X121388481Y-92433774D01*
X121420663Y-92450976D01*
X121448873Y-92474127D01*
X121472024Y-92502337D01*
X121489226Y-92534519D01*
X121499819Y-92569438D01*
X121504000Y-92611895D01*
X121504000Y-94078105D01*
X121499819Y-94120562D01*
X121489226Y-94155481D01*
X121472024Y-94187663D01*
X121448873Y-94215873D01*
X121420663Y-94239024D01*
X121388481Y-94256226D01*
X121353562Y-94266819D01*
X121311105Y-94271000D01*
X120169895Y-94271000D01*
X120127438Y-94266819D01*
X120092519Y-94256226D01*
X120060337Y-94239024D01*
X120032127Y-94215873D01*
X120008976Y-94187663D01*
X119991774Y-94155481D01*
X119981181Y-94120562D01*
X119977000Y-94078105D01*
X119977000Y-92611895D01*
X119981181Y-92569438D01*
X119991774Y-92534519D01*
X120008976Y-92502337D01*
X120032127Y-92474127D01*
X120060337Y-92450976D01*
X120092519Y-92433774D01*
X120127438Y-92423181D01*
X120169895Y-92419000D01*
X121311105Y-92419000D01*
X121353562Y-92423181D01*
G37*
G36*
X118378562Y-92423181D02*
G01*
X118413481Y-92433774D01*
X118445663Y-92450976D01*
X118473873Y-92474127D01*
X118497024Y-92502337D01*
X118514226Y-92534519D01*
X118524819Y-92569438D01*
X118529000Y-92611895D01*
X118529000Y-94078105D01*
X118524819Y-94120562D01*
X118514226Y-94155481D01*
X118497024Y-94187663D01*
X118473873Y-94215873D01*
X118445663Y-94239024D01*
X118413481Y-94256226D01*
X118378562Y-94266819D01*
X118336105Y-94271000D01*
X117194895Y-94271000D01*
X117152438Y-94266819D01*
X117117519Y-94256226D01*
X117085337Y-94239024D01*
X117057127Y-94215873D01*
X117033976Y-94187663D01*
X117016774Y-94155481D01*
X117006181Y-94120562D01*
X117002000Y-94078105D01*
X117002000Y-92611895D01*
X117006181Y-92569438D01*
X117016774Y-92534519D01*
X117033976Y-92502337D01*
X117057127Y-92474127D01*
X117085337Y-92450976D01*
X117117519Y-92433774D01*
X117152438Y-92423181D01*
X117194895Y-92419000D01*
X118336105Y-92419000D01*
X118378562Y-92423181D01*
G37*
G36*
X114350012Y-92385427D02*
G01*
X114499312Y-92415124D01*
X114663284Y-92483044D01*
X114810854Y-92581647D01*
X114936353Y-92707146D01*
X115034956Y-92854716D01*
X115102876Y-93018688D01*
X115132573Y-93167988D01*
X115137500Y-93192758D01*
X115137500Y-93370242D01*
X115133705Y-93389322D01*
X115102876Y-93544312D01*
X115034956Y-93708284D01*
X114936353Y-93855854D01*
X114810854Y-93981353D01*
X114663284Y-94079956D01*
X114499312Y-94147876D01*
X114350012Y-94177573D01*
X114325242Y-94182500D01*
X114147758Y-94182500D01*
X114122988Y-94177573D01*
X113973688Y-94147876D01*
X113809716Y-94079956D01*
X113662146Y-93981353D01*
X113536647Y-93855854D01*
X113438044Y-93708284D01*
X113370124Y-93544312D01*
X113339295Y-93389322D01*
X113335500Y-93370242D01*
X113335500Y-93192758D01*
X113340427Y-93167988D01*
X113370124Y-93018688D01*
X113438044Y-92854716D01*
X113536647Y-92707146D01*
X113662146Y-92581647D01*
X113809716Y-92483044D01*
X113973688Y-92415124D01*
X114122988Y-92385427D01*
X114147758Y-92380500D01*
X114325242Y-92380500D01*
X114350012Y-92385427D01*
G37*
G36*
X139358607Y-93344104D02*
G01*
X139377350Y-93349790D01*
X139394617Y-93359019D01*
X139409756Y-93371444D01*
X139422181Y-93386583D01*
X139431410Y-93403850D01*
X139437096Y-93422593D01*
X139439620Y-93448220D01*
X139439620Y-93886940D01*
X139437096Y-93912567D01*
X139431410Y-93931310D01*
X139422181Y-93948577D01*
X139409756Y-93963716D01*
X139394617Y-93976141D01*
X139377350Y-93985370D01*
X139358607Y-93991056D01*
X139332980Y-93993580D01*
X137444260Y-93993580D01*
X137418633Y-93991056D01*
X137399890Y-93985370D01*
X137382623Y-93976141D01*
X137367484Y-93963716D01*
X137355059Y-93948577D01*
X137345830Y-93931310D01*
X137340144Y-93912567D01*
X137337620Y-93886940D01*
X137337620Y-93448220D01*
X137340144Y-93422593D01*
X137345830Y-93403850D01*
X137355059Y-93386583D01*
X137367484Y-93371444D01*
X137382623Y-93359019D01*
X137399890Y-93349790D01*
X137418633Y-93344104D01*
X137444260Y-93341580D01*
X139332980Y-93341580D01*
X139358607Y-93344104D01*
G37*
G36*
X130058607Y-93344104D02*
G01*
X130077350Y-93349790D01*
X130094617Y-93359019D01*
X130109756Y-93371444D01*
X130122181Y-93386583D01*
X130131410Y-93403850D01*
X130137096Y-93422593D01*
X130139620Y-93448220D01*
X130139620Y-93886940D01*
X130137096Y-93912567D01*
X130131410Y-93931310D01*
X130122181Y-93948577D01*
X130109756Y-93963716D01*
X130094617Y-93976141D01*
X130077350Y-93985370D01*
X130058607Y-93991056D01*
X130032980Y-93993580D01*
X128144260Y-93993580D01*
X128118633Y-93991056D01*
X128099890Y-93985370D01*
X128082623Y-93976141D01*
X128067484Y-93963716D01*
X128055059Y-93948577D01*
X128045830Y-93931310D01*
X128040144Y-93912567D01*
X128037620Y-93886940D01*
X128037620Y-93448220D01*
X128040144Y-93422593D01*
X128045830Y-93403850D01*
X128055059Y-93386583D01*
X128067484Y-93371444D01*
X128082623Y-93359019D01*
X128099890Y-93349790D01*
X128118633Y-93344104D01*
X128144260Y-93341580D01*
X130032980Y-93341580D01*
X130058607Y-93344104D01*
G37*
G36*
X125988800Y-93563300D02*
G01*
X125086800Y-93563300D01*
X125086800Y-92211300D01*
X125988800Y-92211300D01*
X125988800Y-93563300D01*
G37*
G36*
X124188800Y-93563300D02*
G01*
X123286800Y-93563300D01*
X123286800Y-92211300D01*
X124188800Y-92211300D01*
X124188800Y-93563300D01*
G37*
G36*
X130058607Y-92074104D02*
G01*
X130077350Y-92079790D01*
X130094617Y-92089019D01*
X130109756Y-92101444D01*
X130122181Y-92116583D01*
X130131410Y-92133850D01*
X130137096Y-92152593D01*
X130139620Y-92178220D01*
X130139620Y-92616940D01*
X130137096Y-92642567D01*
X130131410Y-92661310D01*
X130122181Y-92678577D01*
X130109756Y-92693716D01*
X130094617Y-92706141D01*
X130077350Y-92715370D01*
X130058607Y-92721056D01*
X130032980Y-92723580D01*
X128144260Y-92723580D01*
X128118633Y-92721056D01*
X128099890Y-92715370D01*
X128082623Y-92706141D01*
X128067484Y-92693716D01*
X128055059Y-92678577D01*
X128045830Y-92661310D01*
X128040144Y-92642567D01*
X128037620Y-92616940D01*
X128037620Y-92178220D01*
X128040144Y-92152593D01*
X128045830Y-92133850D01*
X128055059Y-92116583D01*
X128067484Y-92101444D01*
X128082623Y-92089019D01*
X128099890Y-92079790D01*
X128118633Y-92074104D01*
X128144260Y-92071580D01*
X130032980Y-92071580D01*
X130058607Y-92074104D01*
G37*
G36*
X139358607Y-92074104D02*
G01*
X139377350Y-92079790D01*
X139394617Y-92089019D01*
X139409756Y-92101444D01*
X139422181Y-92116583D01*
X139431410Y-92133850D01*
X139437096Y-92152593D01*
X139439620Y-92178220D01*
X139439620Y-92616940D01*
X139437096Y-92642567D01*
X139431410Y-92661310D01*
X139422181Y-92678577D01*
X139409756Y-92693716D01*
X139394617Y-92706141D01*
X139377350Y-92715370D01*
X139358607Y-92721056D01*
X139332980Y-92723580D01*
X137444260Y-92723580D01*
X137418633Y-92721056D01*
X137399890Y-92715370D01*
X137382623Y-92706141D01*
X137367484Y-92693716D01*
X137355059Y-92678577D01*
X137345830Y-92661310D01*
X137340144Y-92642567D01*
X137337620Y-92616940D01*
X137337620Y-92178220D01*
X137340144Y-92152593D01*
X137345830Y-92133850D01*
X137355059Y-92116583D01*
X137367484Y-92101444D01*
X137382623Y-92089019D01*
X137399890Y-92079790D01*
X137418633Y-92074104D01*
X137444260Y-92071580D01*
X139332980Y-92071580D01*
X139358607Y-92074104D01*
G37*
G36*
X161224587Y-90823501D02*
G01*
X161304216Y-90831344D01*
X161411374Y-90863850D01*
X161457470Y-90877833D01*
X161598703Y-90953324D01*
X161722499Y-91054921D01*
X161824096Y-91178717D01*
X161899587Y-91319950D01*
X161899588Y-91319953D01*
X161946076Y-91473204D01*
X161961773Y-91632580D01*
X161946076Y-91791956D01*
X161909267Y-91913300D01*
X161899587Y-91945210D01*
X161824096Y-92086443D01*
X161722499Y-92210239D01*
X161598703Y-92311836D01*
X161457470Y-92387327D01*
X161457467Y-92387328D01*
X161304216Y-92433816D01*
X161247601Y-92439392D01*
X161184774Y-92445580D01*
X160104906Y-92445580D01*
X160042079Y-92439392D01*
X159985464Y-92433816D01*
X159832213Y-92387328D01*
X159832210Y-92387327D01*
X159690977Y-92311836D01*
X159567181Y-92210239D01*
X159465584Y-92086443D01*
X159390093Y-91945210D01*
X159380413Y-91913300D01*
X159343604Y-91791956D01*
X159327907Y-91632580D01*
X159343604Y-91473204D01*
X159390092Y-91319953D01*
X159390093Y-91319950D01*
X159465584Y-91178717D01*
X159567181Y-91054921D01*
X159690977Y-90953324D01*
X159832210Y-90877833D01*
X159878306Y-90863850D01*
X159985464Y-90831344D01*
X160065093Y-90823501D01*
X160104906Y-90819580D01*
X161184774Y-90819580D01*
X161224587Y-90823501D01*
G37*
G36*
X145984587Y-90823501D02*
G01*
X146064216Y-90831344D01*
X146171374Y-90863850D01*
X146217470Y-90877833D01*
X146358703Y-90953324D01*
X146482499Y-91054921D01*
X146584096Y-91178717D01*
X146659587Y-91319950D01*
X146659588Y-91319953D01*
X146706076Y-91473204D01*
X146721773Y-91632580D01*
X146706076Y-91791956D01*
X146669267Y-91913300D01*
X146659587Y-91945210D01*
X146584096Y-92086443D01*
X146482499Y-92210239D01*
X146358703Y-92311836D01*
X146217470Y-92387327D01*
X146217467Y-92387328D01*
X146064216Y-92433816D01*
X146007601Y-92439392D01*
X145944774Y-92445580D01*
X144864906Y-92445580D01*
X144802079Y-92439392D01*
X144745464Y-92433816D01*
X144592213Y-92387328D01*
X144592210Y-92387327D01*
X144450977Y-92311836D01*
X144327181Y-92210239D01*
X144225584Y-92086443D01*
X144150093Y-91945210D01*
X144140413Y-91913300D01*
X144103604Y-91791956D01*
X144087907Y-91632580D01*
X144103604Y-91473204D01*
X144150092Y-91319953D01*
X144150093Y-91319950D01*
X144225584Y-91178717D01*
X144327181Y-91054921D01*
X144450977Y-90953324D01*
X144592210Y-90877833D01*
X144638306Y-90863850D01*
X144745464Y-90831344D01*
X144825093Y-90823501D01*
X144864906Y-90819580D01*
X145944774Y-90819580D01*
X145984587Y-90823501D01*
G37*
G36*
X125988800Y-91913300D02*
G01*
X125086800Y-91913300D01*
X125086800Y-90561300D01*
X125988800Y-90561300D01*
X125988800Y-91913300D01*
G37*
G36*
X124188800Y-91913300D02*
G01*
X123286800Y-91913300D01*
X123286800Y-90561300D01*
X124188800Y-90561300D01*
X124188800Y-91913300D01*
G37*
G36*
X118378562Y-89883181D02*
G01*
X118413481Y-89893774D01*
X118445663Y-89910976D01*
X118473873Y-89934127D01*
X118497024Y-89962337D01*
X118514226Y-89994519D01*
X118524819Y-90029438D01*
X118529000Y-90071895D01*
X118529000Y-91538105D01*
X118524819Y-91580562D01*
X118514226Y-91615481D01*
X118497024Y-91647663D01*
X118473873Y-91675873D01*
X118445663Y-91699024D01*
X118413481Y-91716226D01*
X118378562Y-91726819D01*
X118336105Y-91731000D01*
X117194895Y-91731000D01*
X117152438Y-91726819D01*
X117117519Y-91716226D01*
X117085337Y-91699024D01*
X117057127Y-91675873D01*
X117033976Y-91647663D01*
X117016774Y-91615481D01*
X117006181Y-91580562D01*
X117002000Y-91538105D01*
X117002000Y-90071895D01*
X117006181Y-90029438D01*
X117016774Y-89994519D01*
X117033976Y-89962337D01*
X117057127Y-89934127D01*
X117085337Y-89910976D01*
X117117519Y-89893774D01*
X117152438Y-89883181D01*
X117194895Y-89879000D01*
X118336105Y-89879000D01*
X118378562Y-89883181D01*
G37*
G36*
X121353562Y-89883181D02*
G01*
X121388481Y-89893774D01*
X121420663Y-89910976D01*
X121448873Y-89934127D01*
X121472024Y-89962337D01*
X121489226Y-89994519D01*
X121499819Y-90029438D01*
X121504000Y-90071895D01*
X121504000Y-91538105D01*
X121499819Y-91580562D01*
X121489226Y-91615481D01*
X121472024Y-91647663D01*
X121448873Y-91675873D01*
X121420663Y-91699024D01*
X121388481Y-91716226D01*
X121353562Y-91726819D01*
X121311105Y-91731000D01*
X120169895Y-91731000D01*
X120127438Y-91726819D01*
X120092519Y-91716226D01*
X120060337Y-91699024D01*
X120032127Y-91675873D01*
X120008976Y-91647663D01*
X119991774Y-91615481D01*
X119981181Y-91580562D01*
X119977000Y-91538105D01*
X119977000Y-90071895D01*
X119981181Y-90029438D01*
X119991774Y-89994519D01*
X120008976Y-89962337D01*
X120032127Y-89934127D01*
X120060337Y-89910976D01*
X120092519Y-89893774D01*
X120127438Y-89883181D01*
X120169895Y-89879000D01*
X121311105Y-89879000D01*
X121353562Y-89883181D01*
G37*
G36*
X114350012Y-89845427D02*
G01*
X114499312Y-89875124D01*
X114663284Y-89943044D01*
X114810854Y-90041647D01*
X114936353Y-90167146D01*
X115034956Y-90314716D01*
X115102876Y-90478688D01*
X115119308Y-90561300D01*
X115137500Y-90652758D01*
X115137500Y-90830242D01*
X115133705Y-90849322D01*
X115102876Y-91004312D01*
X115034956Y-91168284D01*
X114936353Y-91315854D01*
X114810854Y-91441353D01*
X114663284Y-91539956D01*
X114499312Y-91607876D01*
X114350012Y-91637573D01*
X114325242Y-91642500D01*
X114147758Y-91642500D01*
X114122988Y-91637573D01*
X113973688Y-91607876D01*
X113809716Y-91539956D01*
X113662146Y-91441353D01*
X113536647Y-91315854D01*
X113438044Y-91168284D01*
X113370124Y-91004312D01*
X113339295Y-90849322D01*
X113335500Y-90830242D01*
X113335500Y-90652758D01*
X113353692Y-90561300D01*
X113370124Y-90478688D01*
X113438044Y-90314716D01*
X113536647Y-90167146D01*
X113662146Y-90041647D01*
X113809716Y-89943044D01*
X113973688Y-89875124D01*
X114122988Y-89845427D01*
X114147758Y-89840500D01*
X114325242Y-89840500D01*
X114350012Y-89845427D01*
G37*
G36*
X130058607Y-90804104D02*
G01*
X130077350Y-90809790D01*
X130094617Y-90819019D01*
X130109756Y-90831444D01*
X130122181Y-90846583D01*
X130131410Y-90863850D01*
X130137096Y-90882593D01*
X130139620Y-90908220D01*
X130139620Y-91346940D01*
X130137096Y-91372567D01*
X130131410Y-91391310D01*
X130122181Y-91408577D01*
X130109756Y-91423716D01*
X130094617Y-91436141D01*
X130077350Y-91445370D01*
X130058607Y-91451056D01*
X130032980Y-91453580D01*
X128144260Y-91453580D01*
X128118633Y-91451056D01*
X128099890Y-91445370D01*
X128082623Y-91436141D01*
X128067484Y-91423716D01*
X128055059Y-91408577D01*
X128045830Y-91391310D01*
X128040144Y-91372567D01*
X128037620Y-91346940D01*
X128037620Y-90908220D01*
X128040144Y-90882593D01*
X128045830Y-90863850D01*
X128055059Y-90846583D01*
X128067484Y-90831444D01*
X128082623Y-90819019D01*
X128099890Y-90809790D01*
X128118633Y-90804104D01*
X128144260Y-90801580D01*
X130032980Y-90801580D01*
X130058607Y-90804104D01*
G37*
G36*
X139358607Y-90804104D02*
G01*
X139377350Y-90809790D01*
X139394617Y-90819019D01*
X139409756Y-90831444D01*
X139422181Y-90846583D01*
X139431410Y-90863850D01*
X139437096Y-90882593D01*
X139439620Y-90908220D01*
X139439620Y-91346940D01*
X139437096Y-91372567D01*
X139431410Y-91391310D01*
X139422181Y-91408577D01*
X139409756Y-91423716D01*
X139394617Y-91436141D01*
X139377350Y-91445370D01*
X139358607Y-91451056D01*
X139332980Y-91453580D01*
X137444260Y-91453580D01*
X137418633Y-91451056D01*
X137399890Y-91445370D01*
X137382623Y-91436141D01*
X137367484Y-91423716D01*
X137355059Y-91408577D01*
X137345830Y-91391310D01*
X137340144Y-91372567D01*
X137337620Y-91346940D01*
X137337620Y-90908220D01*
X137340144Y-90882593D01*
X137345830Y-90863850D01*
X137355059Y-90846583D01*
X137367484Y-90831444D01*
X137382623Y-90819019D01*
X137399890Y-90809790D01*
X137418633Y-90804104D01*
X137444260Y-90801580D01*
X139332980Y-90801580D01*
X139358607Y-90804104D01*
G37*
G36*
X139358607Y-89534104D02*
G01*
X139377350Y-89539790D01*
X139394617Y-89549019D01*
X139409756Y-89561444D01*
X139422181Y-89576583D01*
X139431410Y-89593850D01*
X139437096Y-89612593D01*
X139439620Y-89638220D01*
X139439620Y-90076940D01*
X139437096Y-90102567D01*
X139431410Y-90121310D01*
X139422181Y-90138577D01*
X139409756Y-90153716D01*
X139394617Y-90166141D01*
X139377350Y-90175370D01*
X139358607Y-90181056D01*
X139332980Y-90183580D01*
X137444260Y-90183580D01*
X137418633Y-90181056D01*
X137399890Y-90175370D01*
X137382623Y-90166141D01*
X137367484Y-90153716D01*
X137355059Y-90138577D01*
X137345830Y-90121310D01*
X137340144Y-90102567D01*
X137337620Y-90076940D01*
X137337620Y-89638220D01*
X137340144Y-89612593D01*
X137345830Y-89593850D01*
X137355059Y-89576583D01*
X137367484Y-89561444D01*
X137382623Y-89549019D01*
X137399890Y-89539790D01*
X137418633Y-89534104D01*
X137444260Y-89531580D01*
X139332980Y-89531580D01*
X139358607Y-89534104D01*
G37*
G36*
X130058607Y-89534104D02*
G01*
X130077350Y-89539790D01*
X130094617Y-89549019D01*
X130109756Y-89561444D01*
X130122181Y-89576583D01*
X130131410Y-89593850D01*
X130137096Y-89612593D01*
X130139620Y-89638220D01*
X130139620Y-90076940D01*
X130137096Y-90102567D01*
X130131410Y-90121310D01*
X130122181Y-90138577D01*
X130109756Y-90153716D01*
X130094617Y-90166141D01*
X130077350Y-90175370D01*
X130058607Y-90181056D01*
X130032980Y-90183580D01*
X128144260Y-90183580D01*
X128118633Y-90181056D01*
X128099890Y-90175370D01*
X128082623Y-90166141D01*
X128067484Y-90153716D01*
X128055059Y-90138577D01*
X128045830Y-90121310D01*
X128040144Y-90102567D01*
X128037620Y-90076940D01*
X128037620Y-89638220D01*
X128040144Y-89612593D01*
X128045830Y-89593850D01*
X128055059Y-89576583D01*
X128067484Y-89561444D01*
X128082623Y-89549019D01*
X128099890Y-89539790D01*
X128118633Y-89534104D01*
X128144260Y-89531580D01*
X130032980Y-89531580D01*
X130058607Y-89534104D01*
G37*
G36*
X161224587Y-88283501D02*
G01*
X161304216Y-88291344D01*
X161411374Y-88323850D01*
X161457470Y-88337833D01*
X161598703Y-88413324D01*
X161722499Y-88514921D01*
X161824096Y-88638717D01*
X161899587Y-88779950D01*
X161899588Y-88779953D01*
X161946076Y-88933204D01*
X161961773Y-89092580D01*
X161946076Y-89251956D01*
X161899588Y-89405207D01*
X161899587Y-89405210D01*
X161824096Y-89546443D01*
X161722499Y-89670239D01*
X161598703Y-89771836D01*
X161457470Y-89847327D01*
X161457467Y-89847328D01*
X161304216Y-89893816D01*
X161247601Y-89899392D01*
X161184774Y-89905580D01*
X160104906Y-89905580D01*
X160042079Y-89899392D01*
X159985464Y-89893816D01*
X159832213Y-89847328D01*
X159832210Y-89847327D01*
X159690977Y-89771836D01*
X159567181Y-89670239D01*
X159465584Y-89546443D01*
X159390093Y-89405210D01*
X159390092Y-89405207D01*
X159343604Y-89251956D01*
X159327907Y-89092580D01*
X159343604Y-88933204D01*
X159390092Y-88779953D01*
X159390093Y-88779950D01*
X159465584Y-88638717D01*
X159567181Y-88514921D01*
X159690977Y-88413324D01*
X159832210Y-88337833D01*
X159878306Y-88323850D01*
X159985464Y-88291344D01*
X160065093Y-88283501D01*
X160104906Y-88279580D01*
X161184774Y-88279580D01*
X161224587Y-88283501D01*
G37*
G36*
X145984587Y-88283501D02*
G01*
X146064216Y-88291344D01*
X146171374Y-88323850D01*
X146217470Y-88337833D01*
X146358703Y-88413324D01*
X146482499Y-88514921D01*
X146584096Y-88638717D01*
X146659587Y-88779950D01*
X146659588Y-88779953D01*
X146706076Y-88933204D01*
X146721773Y-89092580D01*
X146706076Y-89251956D01*
X146659588Y-89405207D01*
X146659587Y-89405210D01*
X146584096Y-89546443D01*
X146482499Y-89670239D01*
X146358703Y-89771836D01*
X146217470Y-89847327D01*
X146217467Y-89847328D01*
X146064216Y-89893816D01*
X146007601Y-89899392D01*
X145944774Y-89905580D01*
X144864906Y-89905580D01*
X144802079Y-89899392D01*
X144745464Y-89893816D01*
X144592213Y-89847328D01*
X144592210Y-89847327D01*
X144450977Y-89771836D01*
X144327181Y-89670239D01*
X144225584Y-89546443D01*
X144150093Y-89405210D01*
X144150092Y-89405207D01*
X144103604Y-89251956D01*
X144087907Y-89092580D01*
X144103604Y-88933204D01*
X144150092Y-88779953D01*
X144150093Y-88779950D01*
X144225584Y-88638717D01*
X144327181Y-88514921D01*
X144450977Y-88413324D01*
X144592210Y-88337833D01*
X144638306Y-88323850D01*
X144745464Y-88291344D01*
X144825093Y-88283501D01*
X144864906Y-88279580D01*
X145944774Y-88279580D01*
X145984587Y-88283501D01*
G37*
G36*
X121353562Y-87343181D02*
G01*
X121388481Y-87353774D01*
X121420663Y-87370976D01*
X121448873Y-87394127D01*
X121472024Y-87422337D01*
X121489226Y-87454519D01*
X121499819Y-87489438D01*
X121504000Y-87531895D01*
X121504000Y-88998105D01*
X121499819Y-89040562D01*
X121489226Y-89075481D01*
X121472024Y-89107663D01*
X121448873Y-89135873D01*
X121420663Y-89159024D01*
X121388481Y-89176226D01*
X121353562Y-89186819D01*
X121311105Y-89191000D01*
X120169895Y-89191000D01*
X120127438Y-89186819D01*
X120092519Y-89176226D01*
X120060337Y-89159024D01*
X120032127Y-89135873D01*
X120008976Y-89107663D01*
X119991774Y-89075481D01*
X119981181Y-89040562D01*
X119977000Y-88998105D01*
X119977000Y-87531895D01*
X119981181Y-87489438D01*
X119991774Y-87454519D01*
X120008976Y-87422337D01*
X120032127Y-87394127D01*
X120060337Y-87370976D01*
X120092519Y-87353774D01*
X120127438Y-87343181D01*
X120169895Y-87339000D01*
X121311105Y-87339000D01*
X121353562Y-87343181D01*
G37*
G36*
X118378562Y-87343181D02*
G01*
X118413481Y-87353774D01*
X118445663Y-87370976D01*
X118473873Y-87394127D01*
X118497024Y-87422337D01*
X118514226Y-87454519D01*
X118524819Y-87489438D01*
X118529000Y-87531895D01*
X118529000Y-88998105D01*
X118524819Y-89040562D01*
X118514226Y-89075481D01*
X118497024Y-89107663D01*
X118473873Y-89135873D01*
X118445663Y-89159024D01*
X118413481Y-89176226D01*
X118378562Y-89186819D01*
X118336105Y-89191000D01*
X117194895Y-89191000D01*
X117152438Y-89186819D01*
X117117519Y-89176226D01*
X117085337Y-89159024D01*
X117057127Y-89135873D01*
X117033976Y-89107663D01*
X117016774Y-89075481D01*
X117006181Y-89040562D01*
X117002000Y-88998105D01*
X117002000Y-87531895D01*
X117006181Y-87489438D01*
X117016774Y-87454519D01*
X117033976Y-87422337D01*
X117057127Y-87394127D01*
X117085337Y-87370976D01*
X117117519Y-87353774D01*
X117152438Y-87343181D01*
X117194895Y-87339000D01*
X118336105Y-87339000D01*
X118378562Y-87343181D01*
G37*
G36*
X114350012Y-87305427D02*
G01*
X114499312Y-87335124D01*
X114663284Y-87403044D01*
X114810854Y-87501647D01*
X114936353Y-87627146D01*
X115034956Y-87774716D01*
X115102876Y-87938688D01*
X115132573Y-88087988D01*
X115137500Y-88112758D01*
X115137500Y-88290242D01*
X115133705Y-88309322D01*
X115102876Y-88464312D01*
X115034956Y-88628284D01*
X114936353Y-88775854D01*
X114810854Y-88901353D01*
X114663284Y-88999956D01*
X114499312Y-89067876D01*
X114350012Y-89097573D01*
X114325242Y-89102500D01*
X114147758Y-89102500D01*
X114122988Y-89097573D01*
X113973688Y-89067876D01*
X113809716Y-88999956D01*
X113662146Y-88901353D01*
X113536647Y-88775854D01*
X113438044Y-88628284D01*
X113370124Y-88464312D01*
X113339295Y-88309322D01*
X113335500Y-88290242D01*
X113335500Y-88112758D01*
X113340427Y-88087988D01*
X113370124Y-87938688D01*
X113438044Y-87774716D01*
X113536647Y-87627146D01*
X113662146Y-87501647D01*
X113809716Y-87403044D01*
X113973688Y-87335124D01*
X114122988Y-87305427D01*
X114147758Y-87300500D01*
X114325242Y-87300500D01*
X114350012Y-87305427D01*
G37*
G36*
X139358607Y-88264104D02*
G01*
X139377350Y-88269790D01*
X139394617Y-88279019D01*
X139409756Y-88291444D01*
X139422181Y-88306583D01*
X139431410Y-88323850D01*
X139437096Y-88342593D01*
X139439620Y-88368220D01*
X139439620Y-88806940D01*
X139437096Y-88832567D01*
X139431410Y-88851310D01*
X139422181Y-88868577D01*
X139409756Y-88883716D01*
X139394617Y-88896141D01*
X139377350Y-88905370D01*
X139358607Y-88911056D01*
X139332980Y-88913580D01*
X137444260Y-88913580D01*
X137418633Y-88911056D01*
X137399890Y-88905370D01*
X137382623Y-88896141D01*
X137367484Y-88883716D01*
X137355059Y-88868577D01*
X137345830Y-88851310D01*
X137340144Y-88832567D01*
X137337620Y-88806940D01*
X137337620Y-88368220D01*
X137340144Y-88342593D01*
X137345830Y-88323850D01*
X137355059Y-88306583D01*
X137367484Y-88291444D01*
X137382623Y-88279019D01*
X137399890Y-88269790D01*
X137418633Y-88264104D01*
X137444260Y-88261580D01*
X139332980Y-88261580D01*
X139358607Y-88264104D01*
G37*
G36*
X130058607Y-88264104D02*
G01*
X130077350Y-88269790D01*
X130094617Y-88279019D01*
X130109756Y-88291444D01*
X130122181Y-88306583D01*
X130131410Y-88323850D01*
X130137096Y-88342593D01*
X130139620Y-88368220D01*
X130139620Y-88806940D01*
X130137096Y-88832567D01*
X130131410Y-88851310D01*
X130122181Y-88868577D01*
X130109756Y-88883716D01*
X130094617Y-88896141D01*
X130077350Y-88905370D01*
X130058607Y-88911056D01*
X130032980Y-88913580D01*
X128144260Y-88913580D01*
X128118633Y-88911056D01*
X128099890Y-88905370D01*
X128082623Y-88896141D01*
X128067484Y-88883716D01*
X128055059Y-88868577D01*
X128045830Y-88851310D01*
X128040144Y-88832567D01*
X128037620Y-88806940D01*
X128037620Y-88368220D01*
X128040144Y-88342593D01*
X128045830Y-88323850D01*
X128055059Y-88306583D01*
X128067484Y-88291444D01*
X128082623Y-88279019D01*
X128099890Y-88269790D01*
X128118633Y-88264104D01*
X128144260Y-88261580D01*
X130032980Y-88261580D01*
X130058607Y-88264104D01*
G37*
G36*
X130058607Y-86994104D02*
G01*
X130077350Y-86999790D01*
X130094617Y-87009019D01*
X130109756Y-87021444D01*
X130122181Y-87036583D01*
X130131410Y-87053850D01*
X130137096Y-87072593D01*
X130139620Y-87098220D01*
X130139620Y-87536940D01*
X130137096Y-87562567D01*
X130131410Y-87581310D01*
X130122181Y-87598577D01*
X130109756Y-87613716D01*
X130094617Y-87626141D01*
X130077350Y-87635370D01*
X130058607Y-87641056D01*
X130032980Y-87643580D01*
X128144260Y-87643580D01*
X128118633Y-87641056D01*
X128099890Y-87635370D01*
X128082623Y-87626141D01*
X128067484Y-87613716D01*
X128055059Y-87598577D01*
X128045830Y-87581310D01*
X128040144Y-87562567D01*
X128037620Y-87536940D01*
X128037620Y-87098220D01*
X128040144Y-87072593D01*
X128045830Y-87053850D01*
X128055059Y-87036583D01*
X128067484Y-87021444D01*
X128082623Y-87009019D01*
X128099890Y-86999790D01*
X128118633Y-86994104D01*
X128144260Y-86991580D01*
X130032980Y-86991580D01*
X130058607Y-86994104D01*
G37*
G36*
X139358607Y-86994104D02*
G01*
X139377350Y-86999790D01*
X139394617Y-87009019D01*
X139409756Y-87021444D01*
X139422181Y-87036583D01*
X139431410Y-87053850D01*
X139437096Y-87072593D01*
X139439620Y-87098220D01*
X139439620Y-87536940D01*
X139437096Y-87562567D01*
X139431410Y-87581310D01*
X139422181Y-87598577D01*
X139409756Y-87613716D01*
X139394617Y-87626141D01*
X139377350Y-87635370D01*
X139358607Y-87641056D01*
X139332980Y-87643580D01*
X137444260Y-87643580D01*
X137418633Y-87641056D01*
X137399890Y-87635370D01*
X137382623Y-87626141D01*
X137367484Y-87613716D01*
X137355059Y-87598577D01*
X137345830Y-87581310D01*
X137340144Y-87562567D01*
X137337620Y-87536940D01*
X137337620Y-87098220D01*
X137340144Y-87072593D01*
X137345830Y-87053850D01*
X137355059Y-87036583D01*
X137367484Y-87021444D01*
X137382623Y-87009019D01*
X137399890Y-86999790D01*
X137418633Y-86994104D01*
X137444260Y-86991580D01*
X139332980Y-86991580D01*
X139358607Y-86994104D01*
G37*
G36*
X145984587Y-85743501D02*
G01*
X146064216Y-85751344D01*
X146171374Y-85783850D01*
X146217470Y-85797833D01*
X146358703Y-85873324D01*
X146482499Y-85974921D01*
X146584096Y-86098717D01*
X146659587Y-86239950D01*
X146659588Y-86239953D01*
X146706076Y-86393204D01*
X146721773Y-86552580D01*
X146706076Y-86711956D01*
X146659588Y-86865207D01*
X146659587Y-86865210D01*
X146584096Y-87006443D01*
X146482499Y-87130239D01*
X146358703Y-87231836D01*
X146217470Y-87307327D01*
X146217467Y-87307328D01*
X146064216Y-87353816D01*
X146007601Y-87359392D01*
X145944774Y-87365580D01*
X144864906Y-87365580D01*
X144802079Y-87359392D01*
X144745464Y-87353816D01*
X144592213Y-87307328D01*
X144592210Y-87307327D01*
X144450977Y-87231836D01*
X144327181Y-87130239D01*
X144225584Y-87006443D01*
X144150093Y-86865210D01*
X144150092Y-86865207D01*
X144103604Y-86711956D01*
X144087907Y-86552580D01*
X144103604Y-86393204D01*
X144150092Y-86239953D01*
X144150093Y-86239950D01*
X144225584Y-86098717D01*
X144327181Y-85974921D01*
X144450977Y-85873324D01*
X144592210Y-85797833D01*
X144638306Y-85783850D01*
X144745464Y-85751344D01*
X144825093Y-85743501D01*
X144864906Y-85739580D01*
X145944774Y-85739580D01*
X145984587Y-85743501D01*
G37*
G36*
X161224587Y-85743501D02*
G01*
X161304216Y-85751344D01*
X161411374Y-85783850D01*
X161457470Y-85797833D01*
X161598703Y-85873324D01*
X161722499Y-85974921D01*
X161824096Y-86098717D01*
X161899587Y-86239950D01*
X161899588Y-86239953D01*
X161946076Y-86393204D01*
X161961773Y-86552580D01*
X161946076Y-86711956D01*
X161899588Y-86865207D01*
X161899587Y-86865210D01*
X161824096Y-87006443D01*
X161722499Y-87130239D01*
X161598703Y-87231836D01*
X161457470Y-87307327D01*
X161457467Y-87307328D01*
X161304216Y-87353816D01*
X161247601Y-87359392D01*
X161184774Y-87365580D01*
X160104906Y-87365580D01*
X160042079Y-87359392D01*
X159985464Y-87353816D01*
X159832213Y-87307328D01*
X159832210Y-87307327D01*
X159690977Y-87231836D01*
X159567181Y-87130239D01*
X159465584Y-87006443D01*
X159390093Y-86865210D01*
X159390092Y-86865207D01*
X159343604Y-86711956D01*
X159327907Y-86552580D01*
X159343604Y-86393204D01*
X159390092Y-86239953D01*
X159390093Y-86239950D01*
X159465584Y-86098717D01*
X159567181Y-85974921D01*
X159690977Y-85873324D01*
X159832210Y-85797833D01*
X159878306Y-85783850D01*
X159985464Y-85751344D01*
X160065093Y-85743501D01*
X160104906Y-85739580D01*
X161184774Y-85739580D01*
X161224587Y-85743501D01*
G37*
G36*
X121353562Y-84803181D02*
G01*
X121388481Y-84813774D01*
X121420663Y-84830976D01*
X121448873Y-84854127D01*
X121472024Y-84882337D01*
X121489226Y-84914519D01*
X121499819Y-84949438D01*
X121504000Y-84991895D01*
X121504000Y-86458105D01*
X121499819Y-86500562D01*
X121489226Y-86535481D01*
X121472024Y-86567663D01*
X121448873Y-86595873D01*
X121420663Y-86619024D01*
X121388481Y-86636226D01*
X121353562Y-86646819D01*
X121311105Y-86651000D01*
X120169895Y-86651000D01*
X120127438Y-86646819D01*
X120092519Y-86636226D01*
X120060337Y-86619024D01*
X120032127Y-86595873D01*
X120008976Y-86567663D01*
X119991774Y-86535481D01*
X119981181Y-86500562D01*
X119977000Y-86458105D01*
X119977000Y-84991895D01*
X119981181Y-84949438D01*
X119991774Y-84914519D01*
X120008976Y-84882337D01*
X120032127Y-84854127D01*
X120060337Y-84830976D01*
X120092519Y-84813774D01*
X120127438Y-84803181D01*
X120169895Y-84799000D01*
X121311105Y-84799000D01*
X121353562Y-84803181D01*
G37*
G36*
X118378562Y-84803181D02*
G01*
X118413481Y-84813774D01*
X118445663Y-84830976D01*
X118473873Y-84854127D01*
X118497024Y-84882337D01*
X118514226Y-84914519D01*
X118524819Y-84949438D01*
X118529000Y-84991895D01*
X118529000Y-86458105D01*
X118524819Y-86500562D01*
X118514226Y-86535481D01*
X118497024Y-86567663D01*
X118473873Y-86595873D01*
X118445663Y-86619024D01*
X118413481Y-86636226D01*
X118378562Y-86646819D01*
X118336105Y-86651000D01*
X117194895Y-86651000D01*
X117152438Y-86646819D01*
X117117519Y-86636226D01*
X117085337Y-86619024D01*
X117057127Y-86595873D01*
X117033976Y-86567663D01*
X117016774Y-86535481D01*
X117006181Y-86500562D01*
X117002000Y-86458105D01*
X117002000Y-84991895D01*
X117006181Y-84949438D01*
X117016774Y-84914519D01*
X117033976Y-84882337D01*
X117057127Y-84854127D01*
X117085337Y-84830976D01*
X117117519Y-84813774D01*
X117152438Y-84803181D01*
X117194895Y-84799000D01*
X118336105Y-84799000D01*
X118378562Y-84803181D01*
G37*
G36*
X114350012Y-84765427D02*
G01*
X114499312Y-84795124D01*
X114663284Y-84863044D01*
X114810854Y-84961647D01*
X114936353Y-85087146D01*
X115034956Y-85234716D01*
X115102876Y-85398688D01*
X115132573Y-85547988D01*
X115137500Y-85572758D01*
X115137500Y-85750242D01*
X115133705Y-85769322D01*
X115102876Y-85924312D01*
X115034956Y-86088284D01*
X114936353Y-86235854D01*
X114810854Y-86361353D01*
X114663284Y-86459956D01*
X114499312Y-86527876D01*
X114350012Y-86557573D01*
X114325242Y-86562500D01*
X114147758Y-86562500D01*
X114122988Y-86557573D01*
X113973688Y-86527876D01*
X113809716Y-86459956D01*
X113662146Y-86361353D01*
X113536647Y-86235854D01*
X113438044Y-86088284D01*
X113370124Y-85924312D01*
X113339295Y-85769322D01*
X113335500Y-85750242D01*
X113335500Y-85572758D01*
X113340427Y-85547988D01*
X113370124Y-85398688D01*
X113438044Y-85234716D01*
X113536647Y-85087146D01*
X113662146Y-84961647D01*
X113809716Y-84863044D01*
X113973688Y-84795124D01*
X114122988Y-84765427D01*
X114147758Y-84760500D01*
X114325242Y-84760500D01*
X114350012Y-84765427D01*
G37*
G36*
X139358607Y-85724104D02*
G01*
X139377350Y-85729790D01*
X139394617Y-85739019D01*
X139409756Y-85751444D01*
X139422181Y-85766583D01*
X139431410Y-85783850D01*
X139437096Y-85802593D01*
X139439620Y-85828220D01*
X139439620Y-86266940D01*
X139437096Y-86292567D01*
X139431410Y-86311310D01*
X139422181Y-86328577D01*
X139409756Y-86343716D01*
X139394617Y-86356141D01*
X139377350Y-86365370D01*
X139358607Y-86371056D01*
X139332980Y-86373580D01*
X137444260Y-86373580D01*
X137418633Y-86371056D01*
X137399890Y-86365370D01*
X137382623Y-86356141D01*
X137367484Y-86343716D01*
X137355059Y-86328577D01*
X137345830Y-86311310D01*
X137340144Y-86292567D01*
X137337620Y-86266940D01*
X137337620Y-85828220D01*
X137340144Y-85802593D01*
X137345830Y-85783850D01*
X137355059Y-85766583D01*
X137367484Y-85751444D01*
X137382623Y-85739019D01*
X137399890Y-85729790D01*
X137418633Y-85724104D01*
X137444260Y-85721580D01*
X139332980Y-85721580D01*
X139358607Y-85724104D01*
G37*
G36*
X130058607Y-85724104D02*
G01*
X130077350Y-85729790D01*
X130094617Y-85739019D01*
X130109756Y-85751444D01*
X130122181Y-85766583D01*
X130131410Y-85783850D01*
X130137096Y-85802593D01*
X130139620Y-85828220D01*
X130139620Y-86266940D01*
X130137096Y-86292567D01*
X130131410Y-86311310D01*
X130122181Y-86328577D01*
X130109756Y-86343716D01*
X130094617Y-86356141D01*
X130077350Y-86365370D01*
X130058607Y-86371056D01*
X130032980Y-86373580D01*
X128144260Y-86373580D01*
X128118633Y-86371056D01*
X128099890Y-86365370D01*
X128082623Y-86356141D01*
X128067484Y-86343716D01*
X128055059Y-86328577D01*
X128045830Y-86311310D01*
X128040144Y-86292567D01*
X128037620Y-86266940D01*
X128037620Y-85828220D01*
X128040144Y-85802593D01*
X128045830Y-85783850D01*
X128055059Y-85766583D01*
X128067484Y-85751444D01*
X128082623Y-85739019D01*
X128099890Y-85729790D01*
X128118633Y-85724104D01*
X128144260Y-85721580D01*
X130032980Y-85721580D01*
X130058607Y-85724104D01*
G37*
G36*
X139358607Y-84454104D02*
G01*
X139377350Y-84459790D01*
X139394617Y-84469019D01*
X139409756Y-84481444D01*
X139422181Y-84496583D01*
X139431410Y-84513850D01*
X139437096Y-84532593D01*
X139439620Y-84558220D01*
X139439620Y-84996940D01*
X139437096Y-85022567D01*
X139431410Y-85041310D01*
X139422181Y-85058577D01*
X139409756Y-85073716D01*
X139394617Y-85086141D01*
X139377350Y-85095370D01*
X139358607Y-85101056D01*
X139332980Y-85103580D01*
X137444260Y-85103580D01*
X137418633Y-85101056D01*
X137399890Y-85095370D01*
X137382623Y-85086141D01*
X137367484Y-85073716D01*
X137355059Y-85058577D01*
X137345830Y-85041310D01*
X137340144Y-85022567D01*
X137337620Y-84996940D01*
X137337620Y-84558220D01*
X137340144Y-84532593D01*
X137345830Y-84513850D01*
X137355059Y-84496583D01*
X137367484Y-84481444D01*
X137382623Y-84469019D01*
X137399890Y-84459790D01*
X137418633Y-84454104D01*
X137444260Y-84451580D01*
X139332980Y-84451580D01*
X139358607Y-84454104D01*
G37*
G36*
X130058607Y-84454104D02*
G01*
X130077350Y-84459790D01*
X130094617Y-84469019D01*
X130109756Y-84481444D01*
X130122181Y-84496583D01*
X130131410Y-84513850D01*
X130137096Y-84532593D01*
X130139620Y-84558220D01*
X130139620Y-84996940D01*
X130137096Y-85022567D01*
X130131410Y-85041310D01*
X130122181Y-85058577D01*
X130109756Y-85073716D01*
X130094617Y-85086141D01*
X130077350Y-85095370D01*
X130058607Y-85101056D01*
X130032980Y-85103580D01*
X128144260Y-85103580D01*
X128118633Y-85101056D01*
X128099890Y-85095370D01*
X128082623Y-85086141D01*
X128067484Y-85073716D01*
X128055059Y-85058577D01*
X128045830Y-85041310D01*
X128040144Y-85022567D01*
X128037620Y-84996940D01*
X128037620Y-84558220D01*
X128040144Y-84532593D01*
X128045830Y-84513850D01*
X128055059Y-84496583D01*
X128067484Y-84481444D01*
X128082623Y-84469019D01*
X128099890Y-84459790D01*
X128118633Y-84454104D01*
X128144260Y-84451580D01*
X130032980Y-84451580D01*
X130058607Y-84454104D01*
G37*
G36*
X145984587Y-83203501D02*
G01*
X146064216Y-83211344D01*
X146171374Y-83243850D01*
X146217470Y-83257833D01*
X146358703Y-83333324D01*
X146482499Y-83434921D01*
X146584096Y-83558717D01*
X146659587Y-83699950D01*
X146659588Y-83699953D01*
X146706076Y-83853204D01*
X146721773Y-84012580D01*
X146706076Y-84171956D01*
X146659588Y-84325207D01*
X146659587Y-84325210D01*
X146584096Y-84466443D01*
X146482499Y-84590239D01*
X146358703Y-84691836D01*
X146217470Y-84767327D01*
X146217467Y-84767328D01*
X146064216Y-84813816D01*
X146007601Y-84819392D01*
X145944774Y-84825580D01*
X144864906Y-84825580D01*
X144802079Y-84819392D01*
X144745464Y-84813816D01*
X144592213Y-84767328D01*
X144592210Y-84767327D01*
X144450977Y-84691836D01*
X144327181Y-84590239D01*
X144225584Y-84466443D01*
X144150093Y-84325210D01*
X144150092Y-84325207D01*
X144103604Y-84171956D01*
X144087907Y-84012580D01*
X144103604Y-83853204D01*
X144150092Y-83699953D01*
X144150093Y-83699950D01*
X144225584Y-83558717D01*
X144327181Y-83434921D01*
X144450977Y-83333324D01*
X144592210Y-83257833D01*
X144638306Y-83243850D01*
X144745464Y-83211344D01*
X144825093Y-83203501D01*
X144864906Y-83199580D01*
X145944774Y-83199580D01*
X145984587Y-83203501D01*
G37*
G36*
X161224587Y-83203501D02*
G01*
X161304216Y-83211344D01*
X161411374Y-83243850D01*
X161457470Y-83257833D01*
X161598703Y-83333324D01*
X161722499Y-83434921D01*
X161824096Y-83558717D01*
X161899587Y-83699950D01*
X161899588Y-83699953D01*
X161946076Y-83853204D01*
X161961773Y-84012580D01*
X161946076Y-84171956D01*
X161899588Y-84325207D01*
X161899587Y-84325210D01*
X161824096Y-84466443D01*
X161722499Y-84590239D01*
X161598703Y-84691836D01*
X161457470Y-84767327D01*
X161457467Y-84767328D01*
X161304216Y-84813816D01*
X161247601Y-84819392D01*
X161184774Y-84825580D01*
X160104906Y-84825580D01*
X160042079Y-84819392D01*
X159985464Y-84813816D01*
X159832213Y-84767328D01*
X159832210Y-84767327D01*
X159690977Y-84691836D01*
X159567181Y-84590239D01*
X159465584Y-84466443D01*
X159390093Y-84325210D01*
X159390092Y-84325207D01*
X159343604Y-84171956D01*
X159327907Y-84012580D01*
X159343604Y-83853204D01*
X159390092Y-83699953D01*
X159390093Y-83699950D01*
X159465584Y-83558717D01*
X159567181Y-83434921D01*
X159690977Y-83333324D01*
X159832210Y-83257833D01*
X159878306Y-83243850D01*
X159985464Y-83211344D01*
X160065093Y-83203501D01*
X160104906Y-83199580D01*
X161184774Y-83199580D01*
X161224587Y-83203501D01*
G37*
G36*
X121417062Y-82263181D02*
G01*
X121451981Y-82273774D01*
X121484163Y-82290976D01*
X121512373Y-82314127D01*
X121535524Y-82342337D01*
X121552726Y-82374519D01*
X121563319Y-82409438D01*
X121567500Y-82451895D01*
X121567500Y-83918105D01*
X121563319Y-83960562D01*
X121552726Y-83995481D01*
X121535524Y-84027663D01*
X121512373Y-84055873D01*
X121484163Y-84079024D01*
X121451981Y-84096226D01*
X121417062Y-84106819D01*
X121374605Y-84111000D01*
X120233395Y-84111000D01*
X120190938Y-84106819D01*
X120156019Y-84096226D01*
X120123837Y-84079024D01*
X120095627Y-84055873D01*
X120072476Y-84027663D01*
X120055274Y-83995481D01*
X120044681Y-83960562D01*
X120040500Y-83918105D01*
X120040500Y-82451895D01*
X120044681Y-82409438D01*
X120055274Y-82374519D01*
X120072476Y-82342337D01*
X120095627Y-82314127D01*
X120123837Y-82290976D01*
X120156019Y-82273774D01*
X120190938Y-82263181D01*
X120233395Y-82259000D01*
X121374605Y-82259000D01*
X121417062Y-82263181D01*
G37*
G36*
X118442062Y-82263181D02*
G01*
X118476981Y-82273774D01*
X118509163Y-82290976D01*
X118537373Y-82314127D01*
X118560524Y-82342337D01*
X118577726Y-82374519D01*
X118588319Y-82409438D01*
X118592500Y-82451895D01*
X118592500Y-83918105D01*
X118588319Y-83960562D01*
X118577726Y-83995481D01*
X118560524Y-84027663D01*
X118537373Y-84055873D01*
X118509163Y-84079024D01*
X118476981Y-84096226D01*
X118442062Y-84106819D01*
X118399605Y-84111000D01*
X117258395Y-84111000D01*
X117215938Y-84106819D01*
X117181019Y-84096226D01*
X117148837Y-84079024D01*
X117120627Y-84055873D01*
X117097476Y-84027663D01*
X117080274Y-83995481D01*
X117069681Y-83960562D01*
X117065500Y-83918105D01*
X117065500Y-82451895D01*
X117069681Y-82409438D01*
X117080274Y-82374519D01*
X117097476Y-82342337D01*
X117120627Y-82314127D01*
X117148837Y-82290976D01*
X117181019Y-82273774D01*
X117215938Y-82263181D01*
X117258395Y-82259000D01*
X118399605Y-82259000D01*
X118442062Y-82263181D01*
G37*
G36*
X114350012Y-82225427D02*
G01*
X114499312Y-82255124D01*
X114663284Y-82323044D01*
X114810854Y-82421647D01*
X114936353Y-82547146D01*
X115034956Y-82694716D01*
X115102876Y-82858688D01*
X115132573Y-83007988D01*
X115137500Y-83032758D01*
X115137500Y-83210242D01*
X115133705Y-83229322D01*
X115102876Y-83384312D01*
X115034956Y-83548284D01*
X114936353Y-83695854D01*
X114810854Y-83821353D01*
X114663284Y-83919956D01*
X114499312Y-83987876D01*
X114350012Y-84017573D01*
X114325242Y-84022500D01*
X114147758Y-84022500D01*
X114122988Y-84017573D01*
X113973688Y-83987876D01*
X113809716Y-83919956D01*
X113662146Y-83821353D01*
X113536647Y-83695854D01*
X113438044Y-83548284D01*
X113370124Y-83384312D01*
X113339295Y-83229322D01*
X113335500Y-83210242D01*
X113335500Y-83032758D01*
X113340427Y-83007988D01*
X113370124Y-82858688D01*
X113438044Y-82694716D01*
X113536647Y-82547146D01*
X113662146Y-82421647D01*
X113809716Y-82323044D01*
X113973688Y-82255124D01*
X114122988Y-82225427D01*
X114147758Y-82220500D01*
X114325242Y-82220500D01*
X114350012Y-82225427D01*
G37*
G36*
X130058607Y-83184104D02*
G01*
X130077350Y-83189790D01*
X130094617Y-83199019D01*
X130109756Y-83211444D01*
X130122181Y-83226583D01*
X130131410Y-83243850D01*
X130137096Y-83262593D01*
X130139620Y-83288220D01*
X130139620Y-83726940D01*
X130137096Y-83752567D01*
X130131410Y-83771310D01*
X130122181Y-83788577D01*
X130109756Y-83803716D01*
X130094617Y-83816141D01*
X130077350Y-83825370D01*
X130058607Y-83831056D01*
X130032980Y-83833580D01*
X128144260Y-83833580D01*
X128118633Y-83831056D01*
X128099890Y-83825370D01*
X128082623Y-83816141D01*
X128067484Y-83803716D01*
X128055059Y-83788577D01*
X128045830Y-83771310D01*
X128040144Y-83752567D01*
X128037620Y-83726940D01*
X128037620Y-83288220D01*
X128040144Y-83262593D01*
X128045830Y-83243850D01*
X128055059Y-83226583D01*
X128067484Y-83211444D01*
X128082623Y-83199019D01*
X128099890Y-83189790D01*
X128118633Y-83184104D01*
X128144260Y-83181580D01*
X130032980Y-83181580D01*
X130058607Y-83184104D01*
G37*
G36*
X139358607Y-83184104D02*
G01*
X139377350Y-83189790D01*
X139394617Y-83199019D01*
X139409756Y-83211444D01*
X139422181Y-83226583D01*
X139431410Y-83243850D01*
X139437096Y-83262593D01*
X139439620Y-83288220D01*
X139439620Y-83726940D01*
X139437096Y-83752567D01*
X139431410Y-83771310D01*
X139422181Y-83788577D01*
X139409756Y-83803716D01*
X139394617Y-83816141D01*
X139377350Y-83825370D01*
X139358607Y-83831056D01*
X139332980Y-83833580D01*
X137444260Y-83833580D01*
X137418633Y-83831056D01*
X137399890Y-83825370D01*
X137382623Y-83816141D01*
X137367484Y-83803716D01*
X137355059Y-83788577D01*
X137345830Y-83771310D01*
X137340144Y-83752567D01*
X137337620Y-83726940D01*
X137337620Y-83288220D01*
X137340144Y-83262593D01*
X137345830Y-83243850D01*
X137355059Y-83226583D01*
X137367484Y-83211444D01*
X137382623Y-83199019D01*
X137399890Y-83189790D01*
X137418633Y-83184104D01*
X137444260Y-83181580D01*
X139332980Y-83181580D01*
X139358607Y-83184104D01*
G37*
G36*
X125988800Y-83212800D02*
G01*
X125086800Y-83212800D01*
X125086800Y-81860800D01*
X125988800Y-81860800D01*
X125988800Y-83212800D01*
G37*
G36*
X124188800Y-83212800D02*
G01*
X123286800Y-83212800D01*
X123286800Y-81860800D01*
X124188800Y-81860800D01*
X124188800Y-83212800D01*
G37*
G36*
X130058607Y-81914104D02*
G01*
X130077350Y-81919790D01*
X130094617Y-81929019D01*
X130109756Y-81941444D01*
X130122181Y-81956583D01*
X130131410Y-81973850D01*
X130137096Y-81992593D01*
X130139620Y-82018220D01*
X130139620Y-82456940D01*
X130137096Y-82482567D01*
X130131410Y-82501310D01*
X130122181Y-82518577D01*
X130109756Y-82533716D01*
X130094617Y-82546141D01*
X130077350Y-82555370D01*
X130058607Y-82561056D01*
X130032980Y-82563580D01*
X128144260Y-82563580D01*
X128118633Y-82561056D01*
X128099890Y-82555370D01*
X128082623Y-82546141D01*
X128067484Y-82533716D01*
X128055059Y-82518577D01*
X128045830Y-82501310D01*
X128040144Y-82482567D01*
X128037620Y-82456940D01*
X128037620Y-82018220D01*
X128040144Y-81992593D01*
X128045830Y-81973850D01*
X128055059Y-81956583D01*
X128067484Y-81941444D01*
X128082623Y-81929019D01*
X128099890Y-81919790D01*
X128118633Y-81914104D01*
X128144260Y-81911580D01*
X130032980Y-81911580D01*
X130058607Y-81914104D01*
G37*
G36*
X139358607Y-81914104D02*
G01*
X139377350Y-81919790D01*
X139394617Y-81929019D01*
X139409756Y-81941444D01*
X139422181Y-81956583D01*
X139431410Y-81973850D01*
X139437096Y-81992593D01*
X139439620Y-82018220D01*
X139439620Y-82456940D01*
X139437096Y-82482567D01*
X139431410Y-82501310D01*
X139422181Y-82518577D01*
X139409756Y-82533716D01*
X139394617Y-82546141D01*
X139377350Y-82555370D01*
X139358607Y-82561056D01*
X139332980Y-82563580D01*
X137444260Y-82563580D01*
X137418633Y-82561056D01*
X137399890Y-82555370D01*
X137382623Y-82546141D01*
X137367484Y-82533716D01*
X137355059Y-82518577D01*
X137345830Y-82501310D01*
X137340144Y-82482567D01*
X137337620Y-82456940D01*
X137337620Y-82018220D01*
X137340144Y-81992593D01*
X137345830Y-81973850D01*
X137355059Y-81956583D01*
X137367484Y-81941444D01*
X137382623Y-81929019D01*
X137399890Y-81919790D01*
X137418633Y-81914104D01*
X137444260Y-81911580D01*
X139332980Y-81911580D01*
X139358607Y-81914104D01*
G37*
G36*
X161224587Y-80663501D02*
G01*
X161304216Y-80671344D01*
X161411374Y-80703850D01*
X161457470Y-80717833D01*
X161598703Y-80793324D01*
X161722499Y-80894921D01*
X161824096Y-81018717D01*
X161899587Y-81159950D01*
X161899588Y-81159953D01*
X161946076Y-81313204D01*
X161961773Y-81472580D01*
X161946076Y-81631956D01*
X161899588Y-81785207D01*
X161899587Y-81785210D01*
X161824096Y-81926443D01*
X161722499Y-82050239D01*
X161598703Y-82151836D01*
X161457470Y-82227327D01*
X161457467Y-82227328D01*
X161304216Y-82273816D01*
X161247601Y-82279392D01*
X161184774Y-82285580D01*
X160104906Y-82285580D01*
X160042079Y-82279392D01*
X159985464Y-82273816D01*
X159832213Y-82227328D01*
X159832210Y-82227327D01*
X159690977Y-82151836D01*
X159567181Y-82050239D01*
X159465584Y-81926443D01*
X159390093Y-81785210D01*
X159390092Y-81785207D01*
X159343604Y-81631956D01*
X159327907Y-81472580D01*
X159343604Y-81313204D01*
X159390092Y-81159953D01*
X159390093Y-81159950D01*
X159465584Y-81018717D01*
X159567181Y-80894921D01*
X159690977Y-80793324D01*
X159832210Y-80717833D01*
X159878306Y-80703850D01*
X159985464Y-80671344D01*
X160065093Y-80663501D01*
X160104906Y-80659580D01*
X161184774Y-80659580D01*
X161224587Y-80663501D01*
G37*
G36*
X146717840Y-82285580D02*
G01*
X144091840Y-82285580D01*
X144091840Y-80659580D01*
X146717840Y-80659580D01*
X146717840Y-82285580D01*
G37*
G36*
X118442062Y-79723181D02*
G01*
X118476981Y-79733774D01*
X118509163Y-79750976D01*
X118537373Y-79774127D01*
X118560524Y-79802337D01*
X118577726Y-79834519D01*
X118588319Y-79869438D01*
X118592500Y-79911895D01*
X118592500Y-81378105D01*
X118588319Y-81420562D01*
X118577726Y-81455481D01*
X118560524Y-81487663D01*
X118537373Y-81515873D01*
X118509163Y-81539024D01*
X118476981Y-81556226D01*
X118442062Y-81566819D01*
X118399605Y-81571000D01*
X117258395Y-81571000D01*
X117215938Y-81566819D01*
X117181019Y-81556226D01*
X117148837Y-81539024D01*
X117120627Y-81515873D01*
X117097476Y-81487663D01*
X117080274Y-81455481D01*
X117069681Y-81420562D01*
X117065500Y-81378105D01*
X117065500Y-79911895D01*
X117069681Y-79869438D01*
X117080274Y-79834519D01*
X117097476Y-79802337D01*
X117120627Y-79774127D01*
X117148837Y-79750976D01*
X117181019Y-79733774D01*
X117215938Y-79723181D01*
X117258395Y-79719000D01*
X118399605Y-79719000D01*
X118442062Y-79723181D01*
G37*
G36*
X121417062Y-79723181D02*
G01*
X121451981Y-79733774D01*
X121484163Y-79750976D01*
X121512373Y-79774127D01*
X121535524Y-79802337D01*
X121552726Y-79834519D01*
X121563319Y-79869438D01*
X121567500Y-79911895D01*
X121567500Y-81378105D01*
X121563319Y-81420562D01*
X121552726Y-81455481D01*
X121535524Y-81487663D01*
X121512373Y-81515873D01*
X121484163Y-81539024D01*
X121451981Y-81556226D01*
X121417062Y-81566819D01*
X121374605Y-81571000D01*
X120233395Y-81571000D01*
X120190938Y-81566819D01*
X120156019Y-81556226D01*
X120123837Y-81539024D01*
X120095627Y-81515873D01*
X120072476Y-81487663D01*
X120055274Y-81455481D01*
X120044681Y-81420562D01*
X120040500Y-81378105D01*
X120040500Y-79911895D01*
X120044681Y-79869438D01*
X120055274Y-79834519D01*
X120072476Y-79802337D01*
X120095627Y-79774127D01*
X120123837Y-79750976D01*
X120156019Y-79733774D01*
X120190938Y-79723181D01*
X120233395Y-79719000D01*
X121374605Y-79719000D01*
X121417062Y-79723181D01*
G37*
G36*
X125988800Y-81562800D02*
G01*
X125086800Y-81562800D01*
X125086800Y-80210800D01*
X125988800Y-80210800D01*
X125988800Y-81562800D01*
G37*
G36*
X124188800Y-81562800D02*
G01*
X123286800Y-81562800D01*
X123286800Y-80210800D01*
X124188800Y-80210800D01*
X124188800Y-81562800D01*
G37*
G36*
X114350012Y-79685427D02*
G01*
X114499312Y-79715124D01*
X114663284Y-79783044D01*
X114810854Y-79881647D01*
X114936353Y-80007146D01*
X115034956Y-80154716D01*
X115102876Y-80318688D01*
X115132573Y-80467988D01*
X115137500Y-80492758D01*
X115137500Y-80670242D01*
X115133705Y-80689322D01*
X115102876Y-80844312D01*
X115034956Y-81008284D01*
X114936353Y-81155854D01*
X114810854Y-81281353D01*
X114663284Y-81379956D01*
X114499312Y-81447876D01*
X114350012Y-81477573D01*
X114325242Y-81482500D01*
X114147758Y-81482500D01*
X114122988Y-81477573D01*
X113973688Y-81447876D01*
X113809716Y-81379956D01*
X113662146Y-81281353D01*
X113536647Y-81155854D01*
X113438044Y-81008284D01*
X113370124Y-80844312D01*
X113339295Y-80689322D01*
X113335500Y-80670242D01*
X113335500Y-80492758D01*
X113340427Y-80467988D01*
X113370124Y-80318688D01*
X113438044Y-80154716D01*
X113536647Y-80007146D01*
X113662146Y-79881647D01*
X113809716Y-79783044D01*
X113973688Y-79715124D01*
X114122988Y-79685427D01*
X114147758Y-79680500D01*
X114325242Y-79680500D01*
X114350012Y-79685427D01*
G37*
G36*
X130058607Y-80644104D02*
G01*
X130077350Y-80649790D01*
X130094617Y-80659019D01*
X130109756Y-80671444D01*
X130122181Y-80686583D01*
X130131410Y-80703850D01*
X130137096Y-80722593D01*
X130139620Y-80748220D01*
X130139620Y-81186940D01*
X130137096Y-81212567D01*
X130131410Y-81231310D01*
X130122181Y-81248577D01*
X130109756Y-81263716D01*
X130094617Y-81276141D01*
X130077350Y-81285370D01*
X130058607Y-81291056D01*
X130032980Y-81293580D01*
X128144260Y-81293580D01*
X128118633Y-81291056D01*
X128099890Y-81285370D01*
X128082623Y-81276141D01*
X128067484Y-81263716D01*
X128055059Y-81248577D01*
X128045830Y-81231310D01*
X128040144Y-81212567D01*
X128037620Y-81186940D01*
X128037620Y-80748220D01*
X128040144Y-80722593D01*
X128045830Y-80703850D01*
X128055059Y-80686583D01*
X128067484Y-80671444D01*
X128082623Y-80659019D01*
X128099890Y-80649790D01*
X128118633Y-80644104D01*
X128144260Y-80641580D01*
X130032980Y-80641580D01*
X130058607Y-80644104D01*
G37*
G36*
X139358607Y-80644104D02*
G01*
X139377350Y-80649790D01*
X139394617Y-80659019D01*
X139409756Y-80671444D01*
X139422181Y-80686583D01*
X139431410Y-80703850D01*
X139437096Y-80722593D01*
X139439620Y-80748220D01*
X139439620Y-81186940D01*
X139437096Y-81212567D01*
X139431410Y-81231310D01*
X139422181Y-81248577D01*
X139409756Y-81263716D01*
X139394617Y-81276141D01*
X139377350Y-81285370D01*
X139358607Y-81291056D01*
X139332980Y-81293580D01*
X137444260Y-81293580D01*
X137418633Y-81291056D01*
X137399890Y-81285370D01*
X137382623Y-81276141D01*
X137367484Y-81263716D01*
X137355059Y-81248577D01*
X137345830Y-81231310D01*
X137340144Y-81212567D01*
X137337620Y-81186940D01*
X137337620Y-80748220D01*
X137340144Y-80722593D01*
X137345830Y-80703850D01*
X137355059Y-80686583D01*
X137367484Y-80671444D01*
X137382623Y-80659019D01*
X137399890Y-80649790D01*
X137418633Y-80644104D01*
X137444260Y-80641580D01*
X139332980Y-80641580D01*
X139358607Y-80644104D01*
G37*
G36*
X132554962Y-77221281D02*
G01*
X132589881Y-77231874D01*
X132622063Y-77249076D01*
X132650273Y-77272227D01*
X132673424Y-77300437D01*
X132690626Y-77332619D01*
X132701219Y-77367538D01*
X132705400Y-77409995D01*
X132705400Y-78876205D01*
X132701219Y-78918662D01*
X132690626Y-78953581D01*
X132673424Y-78985763D01*
X132650273Y-79013973D01*
X132622063Y-79037124D01*
X132589881Y-79054326D01*
X132554962Y-79064919D01*
X132512505Y-79069100D01*
X131371295Y-79069100D01*
X131328838Y-79064919D01*
X131293919Y-79054326D01*
X131261737Y-79037124D01*
X131233527Y-79013973D01*
X131210376Y-78985763D01*
X131193174Y-78953581D01*
X131182581Y-78918662D01*
X131178400Y-78876205D01*
X131178400Y-77409995D01*
X131182581Y-77367538D01*
X131193174Y-77332619D01*
X131210376Y-77300437D01*
X131233527Y-77272227D01*
X131261737Y-77249076D01*
X131293919Y-77231874D01*
X131328838Y-77221281D01*
X131371295Y-77217100D01*
X132512505Y-77217100D01*
X132554962Y-77221281D01*
G37*
G36*
X129579962Y-77221281D02*
G01*
X129614881Y-77231874D01*
X129647063Y-77249076D01*
X129675273Y-77272227D01*
X129698424Y-77300437D01*
X129715626Y-77332619D01*
X129726219Y-77367538D01*
X129730400Y-77409995D01*
X129730400Y-78876205D01*
X129726219Y-78918662D01*
X129715626Y-78953581D01*
X129698424Y-78985763D01*
X129675273Y-79013973D01*
X129647063Y-79037124D01*
X129614881Y-79054326D01*
X129579962Y-79064919D01*
X129537505Y-79069100D01*
X128396295Y-79069100D01*
X128353838Y-79064919D01*
X128318919Y-79054326D01*
X128286737Y-79037124D01*
X128258527Y-79013973D01*
X128235376Y-78985763D01*
X128218174Y-78953581D01*
X128207581Y-78918662D01*
X128203400Y-78876205D01*
X128203400Y-77409995D01*
X128207581Y-77367538D01*
X128218174Y-77332619D01*
X128235376Y-77300437D01*
X128258527Y-77272227D01*
X128286737Y-77249076D01*
X128318919Y-77231874D01*
X128353838Y-77221281D01*
X128396295Y-77217100D01*
X129537505Y-77217100D01*
X129579962Y-77221281D01*
G37*
G36*
X118442062Y-77183181D02*
G01*
X118476981Y-77193774D01*
X118509163Y-77210976D01*
X118537373Y-77234127D01*
X118560524Y-77262337D01*
X118577726Y-77294519D01*
X118588319Y-77329438D01*
X118592500Y-77371895D01*
X118592500Y-78838105D01*
X118588319Y-78880562D01*
X118577726Y-78915481D01*
X118560524Y-78947663D01*
X118537373Y-78975873D01*
X118509163Y-78999024D01*
X118476981Y-79016226D01*
X118442062Y-79026819D01*
X118399605Y-79031000D01*
X117258395Y-79031000D01*
X117215938Y-79026819D01*
X117181019Y-79016226D01*
X117148837Y-78999024D01*
X117120627Y-78975873D01*
X117097476Y-78947663D01*
X117080274Y-78915481D01*
X117069681Y-78880562D01*
X117065500Y-78838105D01*
X117065500Y-77371895D01*
X117069681Y-77329438D01*
X117080274Y-77294519D01*
X117097476Y-77262337D01*
X117120627Y-77234127D01*
X117148837Y-77210976D01*
X117181019Y-77193774D01*
X117215938Y-77183181D01*
X117258395Y-77179000D01*
X118399605Y-77179000D01*
X118442062Y-77183181D01*
G37*
G36*
X121417062Y-77183181D02*
G01*
X121451981Y-77193774D01*
X121484163Y-77210976D01*
X121512373Y-77234127D01*
X121535524Y-77262337D01*
X121552726Y-77294519D01*
X121563319Y-77329438D01*
X121567500Y-77371895D01*
X121567500Y-78838105D01*
X121563319Y-78880562D01*
X121552726Y-78915481D01*
X121535524Y-78947663D01*
X121512373Y-78975873D01*
X121484163Y-78999024D01*
X121451981Y-79016226D01*
X121417062Y-79026819D01*
X121374605Y-79031000D01*
X120233395Y-79031000D01*
X120190938Y-79026819D01*
X120156019Y-79016226D01*
X120123837Y-78999024D01*
X120095627Y-78975873D01*
X120072476Y-78947663D01*
X120055274Y-78915481D01*
X120044681Y-78880562D01*
X120040500Y-78838105D01*
X120040500Y-77371895D01*
X120044681Y-77329438D01*
X120055274Y-77294519D01*
X120072476Y-77262337D01*
X120095627Y-77234127D01*
X120123837Y-77210976D01*
X120156019Y-77193774D01*
X120190938Y-77183181D01*
X120233395Y-77179000D01*
X121374605Y-77179000D01*
X121417062Y-77183181D01*
G37*
G36*
X114350012Y-77145427D02*
G01*
X114499312Y-77175124D01*
X114663284Y-77243044D01*
X114810854Y-77341647D01*
X114936353Y-77467146D01*
X115034956Y-77614716D01*
X115102876Y-77778688D01*
X115137500Y-77952759D01*
X115137500Y-78130241D01*
X115102876Y-78304312D01*
X115034956Y-78468284D01*
X114936353Y-78615854D01*
X114810854Y-78741353D01*
X114663284Y-78839956D01*
X114499312Y-78907876D01*
X114350012Y-78937573D01*
X114325242Y-78942500D01*
X114147758Y-78942500D01*
X114122988Y-78937573D01*
X113973688Y-78907876D01*
X113809716Y-78839956D01*
X113662146Y-78741353D01*
X113536647Y-78615854D01*
X113438044Y-78468284D01*
X113370124Y-78304312D01*
X113335500Y-78130241D01*
X113335500Y-77952759D01*
X113370124Y-77778688D01*
X113438044Y-77614716D01*
X113536647Y-77467146D01*
X113662146Y-77341647D01*
X113809716Y-77243044D01*
X113973688Y-77175124D01*
X114122988Y-77145427D01*
X114147758Y-77140500D01*
X114325242Y-77140500D01*
X114350012Y-77145427D01*
G37*
M02*
