M48
; DRILL file {KiCad 5.1.6-1.fc32} date Tue Jun  2 17:43:15 2020
; FORMAT={-:-/ absolute / inch / decimal}
; #@! TF.CreationDate,2020-06-02T17:43:15-04:00
; #@! TF.GenerationSoftware,Kicad,Pcbnew,5.1.6-1.fc32
; #@! TF.FileFunction,Plated,1,2,PTH
FMAT,2
INCH
T1C0.0157
T2C0.0315
T3C0.0394
T4C0.0400
%
G90
G05
T1
X4.5544Y-3.5226
X4.57Y-3.125
X4.5742Y-3.6048
X4.5785Y-3.9255
X4.5845Y-4.236
X4.588Y-4.4495
X4.8005Y-4.2145
X4.8026Y-3.8404
X4.8145Y-3.4215
X4.8325Y-3.028
X4.8645Y-4.1601
X5.0005Y-3.5875
X5.0066Y-3.3972
X5.167Y-4.1615
X5.1845Y-3.5877
X5.311Y-3.51
X5.3615Y-3.9405
X5.3615Y-4.012
X5.3779Y-3.3279
X5.5596Y-4.2346
X5.583Y-4.1394
X5.79Y-4.3458
X5.8452Y-3.4484
X5.9012Y-4.033
X5.9014Y-3.6042
X5.9698Y-4.2346
X6.2346Y-4.2336
T2
X5.7246Y-3.2076
X5.7246Y-3.3076
X5.7246Y-3.4076
X5.7246Y-3.5076
X5.7246Y-3.6076
X6.3246Y-3.2076
X6.3246Y-3.3076
X6.3246Y-3.4076
X6.3246Y-3.5076
X6.3246Y-3.6076
X5.726Y-3.7398
X5.726Y-3.8398
X5.726Y-3.9398
X5.726Y-4.0398
X5.726Y-4.1398
X6.326Y-3.7398
X6.326Y-3.8398
X6.326Y-3.9398
X6.326Y-4.0398
X6.326Y-4.1398
T3
X4.4975Y-3.0725
X4.4975Y-3.1725
X4.4975Y-3.2725
X4.4975Y-3.3725
X4.4975Y-3.4725
X4.4975Y-3.5725
X4.4975Y-3.6725
X4.4975Y-3.7725
X4.4255Y-4.026
X4.4255Y-4.126
T4
X5.081Y-4.2465
X5.081Y-4.3465
X5.181Y-4.2465
X5.181Y-4.3465
X5.281Y-4.2465
X5.281Y-4.3465
T0
M30
