G04 #@! TF.GenerationSoftware,KiCad,Pcbnew,5.1.6-1.fc32*
G04 #@! TF.CreationDate,2020-06-02T17:43:18-04:00*
G04 #@! TF.ProjectId,binarydispattiny,62696e61-7279-4646-9973-70617474696e,0.3*
G04 #@! TF.SameCoordinates,Original*
G04 #@! TF.FileFunction,Other,Fab,Bot*
%FSLAX46Y46*%
G04 Gerber Fmt 4.6, Leading zero omitted, Abs format (unit mm)*
G04 Created by KiCad (PCBNEW 5.1.6-1.fc32) date 2020-06-02 17:43:18*
%MOMM*%
%LPD*%
G01*
G04 APERTURE LIST*
%ADD10C,0.150000*%
%ADD11C,0.100000*%
%ADD12C,0.080000*%
%ADD13C,0.120000*%
G04 APERTURE END LIST*
D10*
X122998500Y-82149000D02*
X118698500Y-82149000D01*
X118698500Y-82149000D02*
X118698500Y-92349000D01*
X118698500Y-92349000D02*
X123998500Y-92349000D01*
X123998500Y-92349000D02*
X123998500Y-83149000D01*
X123998500Y-83149000D02*
X122998500Y-82149000D01*
D11*
X135696860Y-87713620D02*
X135696860Y-84513620D01*
X134096860Y-87713620D02*
X135696860Y-87713620D01*
X134096860Y-84513620D02*
X134096860Y-87713620D01*
X135696860Y-84513620D02*
X134096860Y-84513620D01*
X116497000Y-105016100D02*
X114897000Y-105016100D01*
X116497000Y-101816100D02*
X116497000Y-105016100D01*
X115297000Y-101816100D02*
X116497000Y-101816100D01*
X114897000Y-102216100D02*
X115297000Y-101816100D01*
X114897000Y-105016100D02*
X114897000Y-102216100D01*
X120853000Y-79654500D02*
X117653000Y-79654500D01*
X120853000Y-81254500D02*
X120853000Y-79654500D01*
X117653000Y-81254500D02*
X120853000Y-81254500D01*
X117653000Y-79654500D02*
X117653000Y-81254500D01*
X144993560Y-108150760D02*
X144993560Y-109750760D01*
X144993560Y-109750760D02*
X148193560Y-109750760D01*
X148193560Y-109750760D02*
X148193560Y-108150760D01*
X148193560Y-108150760D02*
X144993560Y-108150760D01*
X133156860Y-87704400D02*
X133156860Y-84504400D01*
X131556860Y-87704400D02*
X133156860Y-87704400D01*
X131556860Y-84504400D02*
X131556860Y-87704400D01*
X133156860Y-84504400D02*
X131556860Y-84504400D01*
D10*
X122484995Y-90362114D02*
X122484995Y-91028780D01*
X122723090Y-89981161D02*
X122961185Y-90695447D01*
X122342138Y-90695447D01*
X121770709Y-90028780D02*
X121675471Y-90028780D01*
X121580233Y-90076400D01*
X121532614Y-90124019D01*
X121484995Y-90219257D01*
X121437376Y-90409733D01*
X121437376Y-90647828D01*
X121484995Y-90838304D01*
X121532614Y-90933542D01*
X121580233Y-90981161D01*
X121675471Y-91028780D01*
X121770709Y-91028780D01*
X121865947Y-90981161D01*
X121913566Y-90933542D01*
X121961185Y-90838304D01*
X122008804Y-90647828D01*
X122008804Y-90409733D01*
X121961185Y-90219257D01*
X121913566Y-90124019D01*
X121865947Y-90076400D01*
X121770709Y-90028780D01*
X121056423Y-90124019D02*
X121008804Y-90076400D01*
X120913566Y-90028780D01*
X120675471Y-90028780D01*
X120580233Y-90076400D01*
X120532614Y-90124019D01*
X120484995Y-90219257D01*
X120484995Y-90314495D01*
X120532614Y-90457352D01*
X121104042Y-91028780D01*
X120484995Y-91028780D01*
X119532614Y-91028780D02*
X120104042Y-91028780D01*
X119818328Y-91028780D02*
X119818328Y-90028780D01*
X119913566Y-90171638D01*
X120008804Y-90266876D01*
X120104042Y-90314495D01*
X122110404Y-86701380D02*
X122110404Y-87510904D01*
X122062785Y-87606142D01*
X122015166Y-87653761D01*
X121919928Y-87701380D01*
X121729452Y-87701380D01*
X121634214Y-87653761D01*
X121586595Y-87606142D01*
X121538976Y-87510904D01*
X121538976Y-86701380D01*
X120538976Y-87701380D02*
X121110404Y-87701380D01*
X120824690Y-87701380D02*
X120824690Y-86701380D01*
X120919928Y-86844238D01*
X121015166Y-86939476D01*
X121110404Y-86987095D01*
X133983883Y-85667600D02*
X133364836Y-85667600D01*
X133698169Y-86048553D01*
X133555312Y-86048553D01*
X133460074Y-86096172D01*
X133412455Y-86143791D01*
X133364836Y-86239029D01*
X133364836Y-86477124D01*
X133412455Y-86572362D01*
X133460074Y-86619981D01*
X133555312Y-86667600D01*
X133841026Y-86667600D01*
X133936264Y-86619981D01*
X133983883Y-86572362D01*
X133031502Y-85667600D02*
X132412455Y-85667600D01*
X132745788Y-86048553D01*
X132602931Y-86048553D01*
X132507693Y-86096172D01*
X132460074Y-86143791D01*
X132412455Y-86239029D01*
X132412455Y-86477124D01*
X132460074Y-86572362D01*
X132507693Y-86619981D01*
X132602931Y-86667600D01*
X132888645Y-86667600D01*
X132983883Y-86619981D01*
X133031502Y-86572362D01*
X131983883Y-86667600D02*
X131983883Y-85667600D01*
X131412455Y-86667600D02*
X131841026Y-86096172D01*
X131412455Y-85667600D02*
X131983883Y-86239029D01*
D12*
X135123050Y-86030286D02*
X134884955Y-85863620D01*
X135123050Y-85744572D02*
X134623050Y-85744572D01*
X134623050Y-85935048D01*
X134646860Y-85982667D01*
X134670669Y-86006477D01*
X134718288Y-86030286D01*
X134789717Y-86030286D01*
X134837336Y-86006477D01*
X134861145Y-85982667D01*
X134884955Y-85935048D01*
X134884955Y-85744572D01*
X134670669Y-86220762D02*
X134646860Y-86244572D01*
X134623050Y-86292191D01*
X134623050Y-86411239D01*
X134646860Y-86458858D01*
X134670669Y-86482667D01*
X134718288Y-86506477D01*
X134765907Y-86506477D01*
X134837336Y-86482667D01*
X135123050Y-86196953D01*
X135123050Y-86506477D01*
D10*
X118429380Y-100678004D02*
X117429380Y-100678004D01*
X117429380Y-100916100D01*
X117477000Y-101058957D01*
X117572238Y-101154195D01*
X117667476Y-101201814D01*
X117857952Y-101249433D01*
X118000809Y-101249433D01*
X118191285Y-101201814D01*
X118286523Y-101154195D01*
X118381761Y-101058957D01*
X118429380Y-100916100D01*
X118429380Y-100678004D01*
X118524619Y-101439909D02*
X118524619Y-102201814D01*
X117429380Y-102344671D02*
X117429380Y-103011338D01*
X118429380Y-102344671D01*
X118429380Y-103011338D01*
X118381761Y-103773242D02*
X118429380Y-103678004D01*
X118429380Y-103487528D01*
X118381761Y-103392290D01*
X118286523Y-103344671D01*
X117905571Y-103344671D01*
X117810333Y-103392290D01*
X117762714Y-103487528D01*
X117762714Y-103678004D01*
X117810333Y-103773242D01*
X117905571Y-103820861D01*
X118000809Y-103820861D01*
X118096047Y-103344671D01*
X117762714Y-104249433D02*
X118429380Y-104249433D01*
X117857952Y-104249433D02*
X117810333Y-104297052D01*
X117762714Y-104392290D01*
X117762714Y-104535147D01*
X117810333Y-104630385D01*
X117905571Y-104678004D01*
X118429380Y-104678004D01*
X118381761Y-105535147D02*
X118429380Y-105439909D01*
X118429380Y-105249433D01*
X118381761Y-105154195D01*
X118286523Y-105106576D01*
X117905571Y-105106576D01*
X117810333Y-105154195D01*
X117762714Y-105249433D01*
X117762714Y-105439909D01*
X117810333Y-105535147D01*
X117905571Y-105582766D01*
X118000809Y-105582766D01*
X118096047Y-105106576D01*
X118429380Y-106011338D02*
X117762714Y-106011338D01*
X117953190Y-106011338D02*
X117857952Y-106058957D01*
X117810333Y-106106576D01*
X117762714Y-106201814D01*
X117762714Y-106297052D01*
D13*
X116058904Y-102825623D02*
X115258904Y-102825623D01*
X115258904Y-103016100D01*
X115297000Y-103130385D01*
X115373190Y-103206576D01*
X115449380Y-103244671D01*
X115601761Y-103282766D01*
X115716047Y-103282766D01*
X115868428Y-103244671D01*
X115944619Y-103206576D01*
X116020809Y-103130385D01*
X116058904Y-103016100D01*
X116058904Y-102825623D01*
X115335095Y-103587528D02*
X115297000Y-103625623D01*
X115258904Y-103701814D01*
X115258904Y-103892290D01*
X115297000Y-103968480D01*
X115335095Y-104006576D01*
X115411285Y-104044671D01*
X115487476Y-104044671D01*
X115601761Y-104006576D01*
X116058904Y-103549433D01*
X116058904Y-104044671D01*
D10*
X120895857Y-78086880D02*
X120800619Y-78086880D01*
X120705380Y-78134500D01*
X120657761Y-78182119D01*
X120610142Y-78277357D01*
X120562523Y-78467833D01*
X120562523Y-78705928D01*
X120610142Y-78896404D01*
X120657761Y-78991642D01*
X120705380Y-79039261D01*
X120800619Y-79086880D01*
X120895857Y-79086880D01*
X120991095Y-79039261D01*
X121038714Y-78991642D01*
X121086333Y-78896404D01*
X121133952Y-78705928D01*
X121133952Y-78467833D01*
X121086333Y-78277357D01*
X121038714Y-78182119D01*
X120991095Y-78134500D01*
X120895857Y-78086880D01*
X120133952Y-78991642D02*
X120086333Y-79039261D01*
X120133952Y-79086880D01*
X120181571Y-79039261D01*
X120133952Y-78991642D01*
X120133952Y-79086880D01*
X119133952Y-79086880D02*
X119705380Y-79086880D01*
X119419666Y-79086880D02*
X119419666Y-78086880D01*
X119514904Y-78229738D01*
X119610142Y-78324976D01*
X119705380Y-78372595D01*
X118276809Y-78420214D02*
X118276809Y-79086880D01*
X118705380Y-78420214D02*
X118705380Y-78944023D01*
X118657761Y-79039261D01*
X118562523Y-79086880D01*
X118419666Y-79086880D01*
X118324428Y-79039261D01*
X118276809Y-78991642D01*
X117467285Y-78563071D02*
X117800619Y-78563071D01*
X117800619Y-79086880D02*
X117800619Y-78086880D01*
X117324428Y-78086880D01*
D13*
X119386333Y-80740214D02*
X119424428Y-80778309D01*
X119538714Y-80816404D01*
X119614904Y-80816404D01*
X119729190Y-80778309D01*
X119805380Y-80702119D01*
X119843476Y-80625928D01*
X119881571Y-80473547D01*
X119881571Y-80359261D01*
X119843476Y-80206880D01*
X119805380Y-80130690D01*
X119729190Y-80054500D01*
X119614904Y-80016404D01*
X119538714Y-80016404D01*
X119424428Y-80054500D01*
X119386333Y-80092595D01*
X119081571Y-80092595D02*
X119043476Y-80054500D01*
X118967285Y-80016404D01*
X118776809Y-80016404D01*
X118700619Y-80054500D01*
X118662523Y-80092595D01*
X118624428Y-80168785D01*
X118624428Y-80244976D01*
X118662523Y-80359261D01*
X119119666Y-80816404D01*
X118624428Y-80816404D01*
D10*
X148236417Y-106583140D02*
X148141179Y-106583140D01*
X148045940Y-106630760D01*
X147998321Y-106678379D01*
X147950702Y-106773617D01*
X147903083Y-106964093D01*
X147903083Y-107202188D01*
X147950702Y-107392664D01*
X147998321Y-107487902D01*
X148045940Y-107535521D01*
X148141179Y-107583140D01*
X148236417Y-107583140D01*
X148331655Y-107535521D01*
X148379274Y-107487902D01*
X148426893Y-107392664D01*
X148474512Y-107202188D01*
X148474512Y-106964093D01*
X148426893Y-106773617D01*
X148379274Y-106678379D01*
X148331655Y-106630760D01*
X148236417Y-106583140D01*
X147474512Y-107487902D02*
X147426893Y-107535521D01*
X147474512Y-107583140D01*
X147522131Y-107535521D01*
X147474512Y-107487902D01*
X147474512Y-107583140D01*
X146474512Y-107583140D02*
X147045940Y-107583140D01*
X146760226Y-107583140D02*
X146760226Y-106583140D01*
X146855464Y-106725998D01*
X146950702Y-106821236D01*
X147045940Y-106868855D01*
X145617369Y-106916474D02*
X145617369Y-107583140D01*
X146045940Y-106916474D02*
X146045940Y-107440283D01*
X145998321Y-107535521D01*
X145903083Y-107583140D01*
X145760226Y-107583140D01*
X145664988Y-107535521D01*
X145617369Y-107487902D01*
X144807845Y-107059331D02*
X145141179Y-107059331D01*
X145141179Y-107583140D02*
X145141179Y-106583140D01*
X144664988Y-106583140D01*
D13*
X146726893Y-109236474D02*
X146764988Y-109274569D01*
X146879274Y-109312664D01*
X146955464Y-109312664D01*
X147069750Y-109274569D01*
X147145940Y-109198379D01*
X147184036Y-109122188D01*
X147222131Y-108969807D01*
X147222131Y-108855521D01*
X147184036Y-108703140D01*
X147145940Y-108626950D01*
X147069750Y-108550760D01*
X146955464Y-108512664D01*
X146879274Y-108512664D01*
X146764988Y-108550760D01*
X146726893Y-108588855D01*
X146460226Y-108512664D02*
X145964988Y-108512664D01*
X146231655Y-108817426D01*
X146117369Y-108817426D01*
X146041179Y-108855521D01*
X146003083Y-108893617D01*
X145964988Y-108969807D01*
X145964988Y-109160283D01*
X146003083Y-109236474D01*
X146041179Y-109274569D01*
X146117369Y-109312664D01*
X146345940Y-109312664D01*
X146422131Y-109274569D01*
X146460226Y-109236474D01*
D10*
X133629240Y-84461542D02*
X133629240Y-84556780D01*
X133676860Y-84652019D01*
X133724479Y-84699638D01*
X133819717Y-84747257D01*
X134010193Y-84794876D01*
X134248288Y-84794876D01*
X134438764Y-84747257D01*
X134534002Y-84699638D01*
X134581621Y-84652019D01*
X134629240Y-84556780D01*
X134629240Y-84461542D01*
X134581621Y-84366304D01*
X134534002Y-84318685D01*
X134438764Y-84271066D01*
X134248288Y-84223447D01*
X134010193Y-84223447D01*
X133819717Y-84271066D01*
X133724479Y-84318685D01*
X133676860Y-84366304D01*
X133629240Y-84461542D01*
X134534002Y-85223447D02*
X134581621Y-85271066D01*
X134629240Y-85223447D01*
X134581621Y-85175828D01*
X134534002Y-85223447D01*
X134629240Y-85223447D01*
X134629240Y-86223447D02*
X134629240Y-85652019D01*
X134629240Y-85937733D02*
X133629240Y-85937733D01*
X133772098Y-85842495D01*
X133867336Y-85747257D01*
X133914955Y-85652019D01*
X133962574Y-87080590D02*
X134629240Y-87080590D01*
X133962574Y-86652019D02*
X134486383Y-86652019D01*
X134581621Y-86699638D01*
X134629240Y-86794876D01*
X134629240Y-86937733D01*
X134581621Y-87032971D01*
X134534002Y-87080590D01*
X134105431Y-87890114D02*
X134105431Y-87556780D01*
X134629240Y-87556780D02*
X133629240Y-87556780D01*
X133629240Y-88032971D01*
D13*
X132642574Y-85971066D02*
X132680669Y-85932971D01*
X132718764Y-85818685D01*
X132718764Y-85742495D01*
X132680669Y-85628209D01*
X132604479Y-85552019D01*
X132528288Y-85513923D01*
X132375907Y-85475828D01*
X132261621Y-85475828D01*
X132109240Y-85513923D01*
X132033050Y-85552019D01*
X131956860Y-85628209D01*
X131918764Y-85742495D01*
X131918764Y-85818685D01*
X131956860Y-85932971D01*
X131994955Y-85971066D01*
X132185431Y-86656780D02*
X132718764Y-86656780D01*
X131880669Y-86466304D02*
X132452098Y-86275828D01*
X132452098Y-86771066D01*
M02*
