G04 #@! TF.GenerationSoftware,KiCad,Pcbnew,5.1.6-1.fc32*
G04 #@! TF.CreationDate,2020-06-02T17:43:18-04:00*
G04 #@! TF.ProjectId,binarydispattiny,62696e61-7279-4646-9973-70617474696e,0.3*
G04 #@! TF.SameCoordinates,Original*
G04 #@! TF.FileFunction,Legend,Bot*
G04 #@! TF.FilePolarity,Positive*
%FSLAX46Y46*%
G04 Gerber Fmt 4.6, Leading zero omitted, Abs format (unit mm)*
G04 Created by KiCad (PCBNEW 5.1.6-1.fc32) date 2020-06-02 17:43:18*
%MOMM*%
%LPD*%
G01*
G04 APERTURE LIST*
%ADD10C,0.150000*%
%ADD11C,0.120000*%
G04 APERTURE END LIST*
D10*
X124123500Y-81974000D02*
X124123500Y-82249000D01*
X118573500Y-81974000D02*
X118573500Y-82329000D01*
X118573500Y-92524000D02*
X118573500Y-92169000D01*
X124123500Y-92524000D02*
X124123500Y-92169000D01*
X124123500Y-81974000D02*
X118573500Y-81974000D01*
X124123500Y-92524000D02*
X118573500Y-92524000D01*
X124123500Y-82249000D02*
X125648500Y-82249000D01*
D11*
X135806860Y-85511556D02*
X135806860Y-86715684D01*
X133986860Y-85511556D02*
X133986860Y-86715684D01*
X116832000Y-100956100D02*
X116832000Y-105016100D01*
X114562000Y-100956100D02*
X116832000Y-100956100D01*
X114562000Y-105016100D02*
X114562000Y-100956100D01*
X118650936Y-79544500D02*
X119855064Y-79544500D01*
X118650936Y-81364500D02*
X119855064Y-81364500D01*
X145991496Y-109860760D02*
X147195624Y-109860760D01*
X145991496Y-108040760D02*
X147195624Y-108040760D01*
X133266860Y-85502336D02*
X133266860Y-86706464D01*
X131446860Y-85502336D02*
X131446860Y-86706464D01*
D10*
X124078904Y-80554580D02*
X124078904Y-81364104D01*
X124031285Y-81459342D01*
X123983666Y-81506961D01*
X123888428Y-81554580D01*
X123697952Y-81554580D01*
X123602714Y-81506961D01*
X123555095Y-81459342D01*
X123507476Y-81364104D01*
X123507476Y-80554580D01*
X122507476Y-81554580D02*
X123078904Y-81554580D01*
X122793190Y-81554580D02*
X122793190Y-80554580D01*
X122888428Y-80697438D01*
X122983666Y-80792676D01*
X123078904Y-80840295D01*
X135139726Y-83467200D02*
X135473060Y-82991010D01*
X135711155Y-83467200D02*
X135711155Y-82467200D01*
X135330202Y-82467200D01*
X135234964Y-82514820D01*
X135187345Y-82562439D01*
X135139726Y-82657677D01*
X135139726Y-82800534D01*
X135187345Y-82895772D01*
X135234964Y-82943391D01*
X135330202Y-82991010D01*
X135711155Y-82991010D01*
X134758774Y-82562439D02*
X134711155Y-82514820D01*
X134615917Y-82467200D01*
X134377821Y-82467200D01*
X134282583Y-82514820D01*
X134234964Y-82562439D01*
X134187345Y-82657677D01*
X134187345Y-82752915D01*
X134234964Y-82895772D01*
X134806393Y-83467200D01*
X134187345Y-83467200D01*
X116371595Y-100693480D02*
X116371595Y-99693480D01*
X116133500Y-99693480D01*
X115990642Y-99741100D01*
X115895404Y-99836338D01*
X115847785Y-99931576D01*
X115800166Y-100122052D01*
X115800166Y-100264909D01*
X115847785Y-100455385D01*
X115895404Y-100550623D01*
X115990642Y-100645861D01*
X116133500Y-100693480D01*
X116371595Y-100693480D01*
X115419214Y-99788719D02*
X115371595Y-99741100D01*
X115276357Y-99693480D01*
X115038261Y-99693480D01*
X114943023Y-99741100D01*
X114895404Y-99788719D01*
X114847785Y-99883957D01*
X114847785Y-99979195D01*
X114895404Y-100122052D01*
X115466833Y-100693480D01*
X114847785Y-100693480D01*
X119419666Y-79287642D02*
X119467285Y-79335261D01*
X119610142Y-79382880D01*
X119705380Y-79382880D01*
X119848238Y-79335261D01*
X119943476Y-79240023D01*
X119991095Y-79144785D01*
X120038714Y-78954309D01*
X120038714Y-78811452D01*
X119991095Y-78620976D01*
X119943476Y-78525738D01*
X119848238Y-78430500D01*
X119705380Y-78382880D01*
X119610142Y-78382880D01*
X119467285Y-78430500D01*
X119419666Y-78478119D01*
X119038714Y-78478119D02*
X118991095Y-78430500D01*
X118895857Y-78382880D01*
X118657761Y-78382880D01*
X118562523Y-78430500D01*
X118514904Y-78478119D01*
X118467285Y-78573357D01*
X118467285Y-78668595D01*
X118514904Y-78811452D01*
X119086333Y-79382880D01*
X118467285Y-79382880D01*
X143315417Y-109117426D02*
X143267798Y-109165045D01*
X143220179Y-109307902D01*
X143220179Y-109403140D01*
X143267798Y-109545998D01*
X143363036Y-109641236D01*
X143458274Y-109688855D01*
X143648750Y-109736474D01*
X143791607Y-109736474D01*
X143982083Y-109688855D01*
X144077321Y-109641236D01*
X144172560Y-109545998D01*
X144220179Y-109403140D01*
X144220179Y-109307902D01*
X144172560Y-109165045D01*
X144124940Y-109117426D01*
X144220179Y-108784093D02*
X144220179Y-108165045D01*
X143839226Y-108498379D01*
X143839226Y-108355521D01*
X143791607Y-108260283D01*
X143743988Y-108212664D01*
X143648750Y-108165045D01*
X143410655Y-108165045D01*
X143315417Y-108212664D01*
X143267798Y-108260283D01*
X143220179Y-108355521D01*
X143220179Y-108641236D01*
X143267798Y-108736474D01*
X143315417Y-108784093D01*
X132559086Y-83393222D02*
X132606705Y-83440841D01*
X132749562Y-83488460D01*
X132844800Y-83488460D01*
X132987658Y-83440841D01*
X133082896Y-83345603D01*
X133130515Y-83250365D01*
X133178134Y-83059889D01*
X133178134Y-82917032D01*
X133130515Y-82726556D01*
X133082896Y-82631318D01*
X132987658Y-82536080D01*
X132844800Y-82488460D01*
X132749562Y-82488460D01*
X132606705Y-82536080D01*
X132559086Y-82583699D01*
X131701943Y-82821794D02*
X131701943Y-83488460D01*
X131940039Y-82440841D02*
X132178134Y-83155127D01*
X131559086Y-83155127D01*
M02*
