G04 #@! TF.GenerationSoftware,KiCad,Pcbnew,5.1.6-1.fc32*
G04 #@! TF.CreationDate,2020-06-02T17:43:18-04:00*
G04 #@! TF.ProjectId,binarydispattiny,62696e61-7279-4646-9973-70617474696e,0.3*
G04 #@! TF.SameCoordinates,Original*
G04 #@! TF.FileFunction,Legend,Top*
G04 #@! TF.FilePolarity,Positive*
%FSLAX46Y46*%
G04 Gerber Fmt 4.6, Leading zero omitted, Abs format (unit mm)*
G04 Created by KiCad (PCBNEW 5.1.6-1.fc32) date 2020-06-02 17:43:18*
%MOMM*%
%LPD*%
G01*
G04 APERTURE LIST*
%ADD10C,0.250000*%
%ADD11C,0.300000*%
%ADD12C,0.120000*%
%ADD13C,0.150000*%
G04 APERTURE END LIST*
D10*
X166269919Y-105892695D02*
X166269919Y-105987933D01*
X166222300Y-106083171D01*
X166174680Y-106130790D01*
X166079442Y-106178409D01*
X165888966Y-106226028D01*
X165650871Y-106226028D01*
X165460395Y-106178409D01*
X165365157Y-106130790D01*
X165317538Y-106083171D01*
X165269919Y-105987933D01*
X165269919Y-105892695D01*
X165317538Y-105797457D01*
X165365157Y-105749838D01*
X165460395Y-105702219D01*
X165650871Y-105654600D01*
X165888966Y-105654600D01*
X166079442Y-105702219D01*
X166174680Y-105749838D01*
X166222300Y-105797457D01*
X166269919Y-105892695D01*
X165365157Y-106654600D02*
X165317538Y-106702219D01*
X165269919Y-106654600D01*
X165317538Y-106606980D01*
X165365157Y-106654600D01*
X165269919Y-106654600D01*
X166269919Y-107035552D02*
X166269919Y-107654600D01*
X165888966Y-107321266D01*
X165888966Y-107464123D01*
X165841347Y-107559361D01*
X165793728Y-107606980D01*
X165698490Y-107654600D01*
X165460395Y-107654600D01*
X165365157Y-107606980D01*
X165317538Y-107559361D01*
X165269919Y-107464123D01*
X165269919Y-107178409D01*
X165317538Y-107083171D01*
X165365157Y-107035552D01*
X165018506Y-86250830D02*
X165066125Y-86203211D01*
X165208982Y-86107973D01*
X165304220Y-86060354D01*
X165447078Y-86012735D01*
X165685173Y-85965116D01*
X165875649Y-85965116D01*
X166113744Y-86012735D01*
X166256601Y-86060354D01*
X166351840Y-86107973D01*
X166494697Y-86203211D01*
X166542316Y-86250830D01*
X165447078Y-87060354D02*
X165399459Y-86965116D01*
X165399459Y-86774640D01*
X165447078Y-86679401D01*
X165494697Y-86631782D01*
X165589935Y-86584163D01*
X165875649Y-86584163D01*
X165970887Y-86631782D01*
X166018506Y-86679401D01*
X166066125Y-86774640D01*
X166066125Y-86965116D01*
X166018506Y-87060354D01*
X165018506Y-87393687D02*
X165066125Y-87441306D01*
X165208982Y-87536544D01*
X165304220Y-87584163D01*
X165447078Y-87631782D01*
X165685173Y-87679401D01*
X165875649Y-87679401D01*
X166113744Y-87631782D01*
X166256601Y-87584163D01*
X166351840Y-87536544D01*
X166494697Y-87441306D01*
X166542316Y-87393687D01*
X166304220Y-88869878D02*
X166351840Y-88917497D01*
X166399459Y-89012735D01*
X166399459Y-89250830D01*
X166351840Y-89346068D01*
X166304220Y-89393687D01*
X166208982Y-89441306D01*
X166113744Y-89441306D01*
X165970887Y-89393687D01*
X165399459Y-88822259D01*
X165399459Y-89441306D01*
X166399459Y-90060354D02*
X166399459Y-90155592D01*
X166351840Y-90250830D01*
X166304220Y-90298449D01*
X166208982Y-90346068D01*
X166018506Y-90393687D01*
X165780411Y-90393687D01*
X165589935Y-90346068D01*
X165494697Y-90298449D01*
X165447078Y-90250830D01*
X165399459Y-90155592D01*
X165399459Y-90060354D01*
X165447078Y-89965116D01*
X165494697Y-89917497D01*
X165589935Y-89869878D01*
X165780411Y-89822259D01*
X166018506Y-89822259D01*
X166208982Y-89869878D01*
X166304220Y-89917497D01*
X166351840Y-89965116D01*
X166399459Y-90060354D01*
X166304220Y-90774640D02*
X166351840Y-90822259D01*
X166399459Y-90917497D01*
X166399459Y-91155592D01*
X166351840Y-91250830D01*
X166304220Y-91298449D01*
X166208982Y-91346068D01*
X166113744Y-91346068D01*
X165970887Y-91298449D01*
X165399459Y-90727020D01*
X165399459Y-91346068D01*
X166399459Y-91965116D02*
X166399459Y-92060354D01*
X166351840Y-92155592D01*
X166304220Y-92203211D01*
X166208982Y-92250830D01*
X166018506Y-92298449D01*
X165780411Y-92298449D01*
X165589935Y-92250830D01*
X165494697Y-92203211D01*
X165447078Y-92155592D01*
X165399459Y-92060354D01*
X165399459Y-91965116D01*
X165447078Y-91869878D01*
X165494697Y-91822259D01*
X165589935Y-91774640D01*
X165780411Y-91727020D01*
X166018506Y-91727020D01*
X166208982Y-91774640D01*
X166304220Y-91822259D01*
X166351840Y-91869878D01*
X166399459Y-91965116D01*
X165399459Y-93488925D02*
X166399459Y-93488925D01*
X166399459Y-93869878D01*
X166351840Y-93965116D01*
X166304220Y-94012735D01*
X166208982Y-94060354D01*
X166066125Y-94060354D01*
X165970887Y-94012735D01*
X165923268Y-93965116D01*
X165875649Y-93869878D01*
X165875649Y-93488925D01*
X165447078Y-94869878D02*
X165399459Y-94774640D01*
X165399459Y-94584163D01*
X165447078Y-94488925D01*
X165542316Y-94441306D01*
X165923268Y-94441306D01*
X166018506Y-94488925D01*
X166066125Y-94584163D01*
X166066125Y-94774640D01*
X166018506Y-94869878D01*
X165923268Y-94917497D01*
X165828030Y-94917497D01*
X165732792Y-94441306D01*
X166066125Y-95203211D02*
X166066125Y-95584163D01*
X166399459Y-95346068D02*
X165542316Y-95346068D01*
X165447078Y-95393687D01*
X165399459Y-95488925D01*
X165399459Y-95584163D01*
X165447078Y-96298449D02*
X165399459Y-96203211D01*
X165399459Y-96012735D01*
X165447078Y-95917497D01*
X165542316Y-95869878D01*
X165923268Y-95869878D01*
X166018506Y-95917497D01*
X166066125Y-96012735D01*
X166066125Y-96203211D01*
X166018506Y-96298449D01*
X165923268Y-96346068D01*
X165828030Y-96346068D01*
X165732792Y-95869878D01*
X165399459Y-96774640D02*
X166066125Y-96774640D01*
X165875649Y-96774640D02*
X165970887Y-96822259D01*
X166018506Y-96869878D01*
X166066125Y-96965116D01*
X166066125Y-97060354D01*
X165399459Y-98631782D02*
X165399459Y-98155592D01*
X166399459Y-98155592D01*
X165399459Y-99393687D02*
X165923268Y-99393687D01*
X166018506Y-99346068D01*
X166066125Y-99250830D01*
X166066125Y-99060354D01*
X166018506Y-98965116D01*
X165447078Y-99393687D02*
X165399459Y-99298449D01*
X165399459Y-99060354D01*
X165447078Y-98965116D01*
X165542316Y-98917497D01*
X165637554Y-98917497D01*
X165732792Y-98965116D01*
X165780411Y-99060354D01*
X165780411Y-99298449D01*
X165828030Y-99393687D01*
X165399459Y-99869878D02*
X166066125Y-99869878D01*
X165875649Y-99869878D02*
X165970887Y-99917497D01*
X166018506Y-99965116D01*
X166066125Y-100060354D01*
X166066125Y-100155592D01*
X165447078Y-100441306D02*
X165399459Y-100536544D01*
X165399459Y-100727020D01*
X165447078Y-100822259D01*
X165542316Y-100869878D01*
X165589935Y-100869878D01*
X165685173Y-100822259D01*
X165732792Y-100727020D01*
X165732792Y-100584163D01*
X165780411Y-100488925D01*
X165875649Y-100441306D01*
X165923268Y-100441306D01*
X166018506Y-100488925D01*
X166066125Y-100584163D01*
X166066125Y-100727020D01*
X166018506Y-100822259D01*
X165447078Y-101679401D02*
X165399459Y-101584163D01*
X165399459Y-101393687D01*
X165447078Y-101298449D01*
X165542316Y-101250830D01*
X165923268Y-101250830D01*
X166018506Y-101298449D01*
X166066125Y-101393687D01*
X166066125Y-101584163D01*
X166018506Y-101679401D01*
X165923268Y-101727020D01*
X165828030Y-101727020D01*
X165732792Y-101250830D01*
X166066125Y-102155592D02*
X165399459Y-102155592D01*
X165970887Y-102155592D02*
X166018506Y-102203211D01*
X166066125Y-102298449D01*
X166066125Y-102441306D01*
X166018506Y-102536544D01*
X165923268Y-102584163D01*
X165399459Y-102584163D01*
D11*
X168488822Y-87146868D02*
X168417394Y-87361154D01*
X168345965Y-87432582D01*
X168203108Y-87504011D01*
X167988822Y-87504011D01*
X167845965Y-87432582D01*
X167774537Y-87361154D01*
X167703108Y-87218297D01*
X167703108Y-86646868D01*
X169203108Y-86646868D01*
X169203108Y-87146868D01*
X169131680Y-87289725D01*
X169060251Y-87361154D01*
X168917394Y-87432582D01*
X168774537Y-87432582D01*
X168631680Y-87361154D01*
X168560251Y-87289725D01*
X168488822Y-87146868D01*
X168488822Y-86646868D01*
X169203108Y-88146868D02*
X167988822Y-88146868D01*
X167845965Y-88218297D01*
X167774537Y-88289725D01*
X167703108Y-88432582D01*
X167703108Y-88718297D01*
X167774537Y-88861154D01*
X167845965Y-88932582D01*
X167988822Y-89004011D01*
X169203108Y-89004011D01*
X167774537Y-89646868D02*
X167703108Y-89861154D01*
X167703108Y-90218297D01*
X167774537Y-90361154D01*
X167845965Y-90432582D01*
X167988822Y-90504011D01*
X168131680Y-90504011D01*
X168274537Y-90432582D01*
X168345965Y-90361154D01*
X168417394Y-90218297D01*
X168488822Y-89932582D01*
X168560251Y-89789725D01*
X168631680Y-89718297D01*
X168774537Y-89646868D01*
X168917394Y-89646868D01*
X169060251Y-89718297D01*
X169131680Y-89789725D01*
X169203108Y-89932582D01*
X169203108Y-90289725D01*
X169131680Y-90504011D01*
X167703108Y-92289725D02*
X169203108Y-92289725D01*
X169203108Y-92646868D01*
X169131680Y-92861154D01*
X168988822Y-93004011D01*
X168845965Y-93075440D01*
X168560251Y-93146868D01*
X168345965Y-93146868D01*
X168060251Y-93075440D01*
X167917394Y-93004011D01*
X167774537Y-92861154D01*
X167703108Y-92646868D01*
X167703108Y-92289725D01*
X167774537Y-94361154D02*
X167703108Y-94218297D01*
X167703108Y-93932582D01*
X167774537Y-93789725D01*
X167917394Y-93718297D01*
X168488822Y-93718297D01*
X168631680Y-93789725D01*
X168703108Y-93932582D01*
X168703108Y-94218297D01*
X168631680Y-94361154D01*
X168488822Y-94432582D01*
X168345965Y-94432582D01*
X168203108Y-93718297D01*
X167703108Y-95075440D02*
X169203108Y-95075440D01*
X168631680Y-95075440D02*
X168703108Y-95218297D01*
X168703108Y-95504011D01*
X168631680Y-95646868D01*
X168560251Y-95718297D01*
X168417394Y-95789725D01*
X167988822Y-95789725D01*
X167845965Y-95718297D01*
X167774537Y-95646868D01*
X167703108Y-95504011D01*
X167703108Y-95218297D01*
X167774537Y-95075440D01*
X168703108Y-97075440D02*
X167703108Y-97075440D01*
X168703108Y-96432582D02*
X167917394Y-96432582D01*
X167774537Y-96504011D01*
X167703108Y-96646868D01*
X167703108Y-96861154D01*
X167774537Y-97004011D01*
X167845965Y-97075440D01*
X168703108Y-98432582D02*
X167488822Y-98432582D01*
X167345965Y-98361154D01*
X167274537Y-98289725D01*
X167203108Y-98146868D01*
X167203108Y-97932582D01*
X167274537Y-97789725D01*
X167774537Y-98432582D02*
X167703108Y-98289725D01*
X167703108Y-98004011D01*
X167774537Y-97861154D01*
X167845965Y-97789725D01*
X167988822Y-97718297D01*
X168417394Y-97718297D01*
X168560251Y-97789725D01*
X168631680Y-97861154D01*
X168703108Y-98004011D01*
X168703108Y-98289725D01*
X168631680Y-98432582D01*
X168703108Y-99789725D02*
X167488822Y-99789725D01*
X167345965Y-99718297D01*
X167274537Y-99646868D01*
X167203108Y-99504011D01*
X167203108Y-99289725D01*
X167274537Y-99146868D01*
X167774537Y-99789725D02*
X167703108Y-99646868D01*
X167703108Y-99361154D01*
X167774537Y-99218297D01*
X167845965Y-99146868D01*
X167988822Y-99075439D01*
X168417394Y-99075439D01*
X168560251Y-99146868D01*
X168631680Y-99218297D01*
X168703108Y-99361154D01*
X168703108Y-99646868D01*
X168631680Y-99789725D01*
X167774537Y-101075439D02*
X167703108Y-100932582D01*
X167703108Y-100646868D01*
X167774537Y-100504011D01*
X167917394Y-100432582D01*
X168488822Y-100432582D01*
X168631680Y-100504011D01*
X168703108Y-100646868D01*
X168703108Y-100932582D01*
X168631680Y-101075439D01*
X168488822Y-101146868D01*
X168345965Y-101146868D01*
X168203108Y-100432582D01*
X167703108Y-101789725D02*
X168703108Y-101789725D01*
X168417394Y-101789725D02*
X168560251Y-101861154D01*
X168631680Y-101932582D01*
X168703108Y-102075439D01*
X168703108Y-102218297D01*
X114980257Y-98887480D02*
X114980257Y-99877957D01*
X114408828Y-99382719D02*
X115551685Y-99382719D01*
X115908828Y-101116052D02*
X115908828Y-100497004D01*
X115194542Y-100435100D01*
X115265971Y-100497004D01*
X115337400Y-100620814D01*
X115337400Y-100930338D01*
X115265971Y-101054147D01*
X115194542Y-101116052D01*
X115051685Y-101177957D01*
X114694542Y-101177957D01*
X114551685Y-101116052D01*
X114480257Y-101054147D01*
X114408828Y-100930338D01*
X114408828Y-100620814D01*
X114480257Y-100497004D01*
X114551685Y-100435100D01*
X115908828Y-101549385D02*
X114408828Y-101982719D01*
X115908828Y-102416052D01*
X115837400Y-104520814D02*
X115908828Y-104397004D01*
X115908828Y-104211290D01*
X115837400Y-104025576D01*
X115694542Y-103901766D01*
X115551685Y-103839861D01*
X115265971Y-103777957D01*
X115051685Y-103777957D01*
X114765971Y-103839861D01*
X114623114Y-103901766D01*
X114480257Y-104025576D01*
X114408828Y-104211290D01*
X114408828Y-104335100D01*
X114480257Y-104520814D01*
X114551685Y-104582719D01*
X115051685Y-104582719D01*
X115051685Y-104335100D01*
X114408828Y-105139861D02*
X115908828Y-105139861D01*
X114408828Y-105882719D01*
X115908828Y-105882719D01*
X114408828Y-106501766D02*
X115908828Y-106501766D01*
X115908828Y-106811290D01*
X115837400Y-106997004D01*
X115694542Y-107120814D01*
X115551685Y-107182719D01*
X115265971Y-107244623D01*
X115051685Y-107244623D01*
X114765971Y-107182719D01*
X114623114Y-107120814D01*
X114480257Y-106997004D01*
X114408828Y-106811290D01*
X114408828Y-106501766D01*
D12*
X128824400Y-102125864D02*
X128824400Y-100921736D01*
X127004400Y-102125864D02*
X127004400Y-100921736D01*
X133417900Y-100947136D02*
X133417900Y-102151264D01*
X135237900Y-100947136D02*
X135237900Y-102151264D01*
X131847000Y-102138564D02*
X131847000Y-100934436D01*
X130027000Y-102138564D02*
X130027000Y-100934436D01*
X129852336Y-79053100D02*
X131056464Y-79053100D01*
X129852336Y-77233100D02*
X131056464Y-77233100D01*
X112983600Y-109684736D02*
X112983600Y-110888864D01*
X114803600Y-109684736D02*
X114803600Y-110888864D01*
X122804600Y-110914264D02*
X122804600Y-109710136D01*
X120984600Y-110914264D02*
X120984600Y-109710136D01*
X147345400Y-93660920D02*
X158775400Y-93660920D01*
X147345400Y-106480920D02*
X158775400Y-106480920D01*
X143425400Y-94770920D02*
X143425400Y-106370920D01*
X162695400Y-106370920D02*
X162695400Y-93770920D01*
X158060400Y-97070920D02*
X153060400Y-96070920D01*
X153060400Y-96070920D02*
X148060400Y-95070920D01*
X148060400Y-95070920D02*
X148060400Y-102070920D01*
X148060400Y-102070920D02*
X153060400Y-103070920D01*
X158060400Y-104070920D02*
X153060400Y-103070920D01*
X153060400Y-103070920D02*
X153060400Y-96070920D01*
X158060400Y-97070920D02*
X158060400Y-104070920D01*
X148507614Y-104070920D02*
G75*
G03*
X148507614Y-104070920I-447214J0D01*
G01*
X123707400Y-104456100D02*
X139487400Y-104456100D01*
X139487400Y-104456100D02*
X139487400Y-113806100D01*
X139487400Y-113806100D02*
X123707400Y-113806100D01*
X123707400Y-113806100D02*
X123707400Y-104456100D01*
X123457400Y-114056100D02*
X125997400Y-114056100D01*
X123457400Y-114056100D02*
X123457400Y-111516100D01*
X112796500Y-97151500D02*
X112796500Y-76711500D01*
X112796500Y-76711500D02*
X110136500Y-76711500D01*
X110136500Y-76711500D02*
X110136500Y-97151500D01*
X110136500Y-97151500D02*
X112796500Y-97151500D01*
X110136500Y-96201500D02*
X104136500Y-96201500D01*
X104136500Y-96201500D02*
X104136500Y-95441500D01*
X104136500Y-95441500D02*
X110136500Y-95441500D01*
X110136500Y-96141500D02*
X104136500Y-96141500D01*
X110136500Y-96021500D02*
X104136500Y-96021500D01*
X110136500Y-95901500D02*
X104136500Y-95901500D01*
X110136500Y-95781500D02*
X104136500Y-95781500D01*
X110136500Y-95661500D02*
X104136500Y-95661500D01*
X110136500Y-95541500D02*
X104136500Y-95541500D01*
X113126500Y-96201500D02*
X112796500Y-96201500D01*
X113126500Y-95441500D02*
X112796500Y-95441500D01*
X112796500Y-94551500D02*
X110136500Y-94551500D01*
X110136500Y-93661500D02*
X104136500Y-93661500D01*
X104136500Y-93661500D02*
X104136500Y-92901500D01*
X104136500Y-92901500D02*
X110136500Y-92901500D01*
X113193571Y-93661500D02*
X112796500Y-93661500D01*
X113193571Y-92901500D02*
X112796500Y-92901500D01*
X112796500Y-92011500D02*
X110136500Y-92011500D01*
X110136500Y-91121500D02*
X104136500Y-91121500D01*
X104136500Y-91121500D02*
X104136500Y-90361500D01*
X104136500Y-90361500D02*
X110136500Y-90361500D01*
X113193571Y-91121500D02*
X112796500Y-91121500D01*
X113193571Y-90361500D02*
X112796500Y-90361500D01*
X112796500Y-89471500D02*
X110136500Y-89471500D01*
X110136500Y-88581500D02*
X104136500Y-88581500D01*
X104136500Y-88581500D02*
X104136500Y-87821500D01*
X104136500Y-87821500D02*
X110136500Y-87821500D01*
X113193571Y-88581500D02*
X112796500Y-88581500D01*
X113193571Y-87821500D02*
X112796500Y-87821500D01*
X112796500Y-86931500D02*
X110136500Y-86931500D01*
X110136500Y-86041500D02*
X104136500Y-86041500D01*
X104136500Y-86041500D02*
X104136500Y-85281500D01*
X104136500Y-85281500D02*
X110136500Y-85281500D01*
X113193571Y-86041500D02*
X112796500Y-86041500D01*
X113193571Y-85281500D02*
X112796500Y-85281500D01*
X112796500Y-84391500D02*
X110136500Y-84391500D01*
X110136500Y-83501500D02*
X104136500Y-83501500D01*
X104136500Y-83501500D02*
X104136500Y-82741500D01*
X104136500Y-82741500D02*
X110136500Y-82741500D01*
X113193571Y-83501500D02*
X112796500Y-83501500D01*
X113193571Y-82741500D02*
X112796500Y-82741500D01*
X112796500Y-81851500D02*
X110136500Y-81851500D01*
X110136500Y-80961500D02*
X104136500Y-80961500D01*
X104136500Y-80961500D02*
X104136500Y-80201500D01*
X104136500Y-80201500D02*
X110136500Y-80201500D01*
X113193571Y-80961500D02*
X112796500Y-80961500D01*
X113193571Y-80201500D02*
X112796500Y-80201500D01*
X112796500Y-79311500D02*
X110136500Y-79311500D01*
X110136500Y-78421500D02*
X104136500Y-78421500D01*
X104136500Y-78421500D02*
X104136500Y-77661500D01*
X104136500Y-77661500D02*
X110136500Y-77661500D01*
X113193571Y-78421500D02*
X112796500Y-78421500D01*
X113193571Y-77661500D02*
X112796500Y-77661500D01*
X115506500Y-95821500D02*
X115506500Y-97091500D01*
X115506500Y-97091500D02*
X114236500Y-97091500D01*
X111077700Y-106130400D02*
X113737700Y-106130400D01*
X111077700Y-103530400D02*
X111077700Y-106130400D01*
X113737700Y-103530400D02*
X113737700Y-106130400D01*
X111077700Y-103530400D02*
X113737700Y-103530400D01*
X111077700Y-102260400D02*
X111077700Y-100930400D01*
X111077700Y-100930400D02*
X112407700Y-100930400D01*
X121713000Y-94750000D02*
X117653000Y-94750000D01*
X121713000Y-97020000D02*
X121713000Y-94750000D01*
X117653000Y-97020000D02*
X121713000Y-97020000D01*
X117653000Y-94480000D02*
X121713000Y-94480000D01*
X121713000Y-94480000D02*
X121713000Y-92210000D01*
X121713000Y-92210000D02*
X117653000Y-92210000D01*
X121713000Y-89670000D02*
X117653000Y-89670000D01*
X121713000Y-91940000D02*
X121713000Y-89670000D01*
X117653000Y-91940000D02*
X121713000Y-91940000D01*
X117653000Y-89400000D02*
X121713000Y-89400000D01*
X121713000Y-89400000D02*
X121713000Y-87130000D01*
X121713000Y-87130000D02*
X117653000Y-87130000D01*
X121713000Y-84590000D02*
X117653000Y-84590000D01*
X121713000Y-86860000D02*
X121713000Y-84590000D01*
X117653000Y-86860000D02*
X121713000Y-86860000D01*
X117716500Y-84320000D02*
X121776500Y-84320000D01*
X121776500Y-84320000D02*
X121776500Y-82050000D01*
X121776500Y-82050000D02*
X117716500Y-82050000D01*
X117716500Y-81780000D02*
X121776500Y-81780000D01*
X121776500Y-81780000D02*
X121776500Y-79510000D01*
X121776500Y-79510000D02*
X117716500Y-79510000D01*
X121776500Y-76970000D02*
X117716500Y-76970000D01*
X121776500Y-79240000D02*
X121776500Y-76970000D01*
X117716500Y-79240000D02*
X121776500Y-79240000D01*
X146479260Y-113390360D02*
X148429260Y-113390360D01*
X146479260Y-113390360D02*
X144529260Y-113390360D01*
X146479260Y-108270360D02*
X148429260Y-108270360D01*
X146479260Y-108270360D02*
X143029260Y-108270360D01*
X126026800Y-103268580D02*
X126026800Y-99383580D01*
X126026800Y-99383580D02*
X123756800Y-99383580D01*
X123756800Y-99383580D02*
X123756800Y-103268580D01*
X148472054Y-90552580D02*
G75*
G03*
X148472054Y-90552580I-447214J0D01*
G01*
X158024840Y-83552580D02*
X158024840Y-90552580D01*
X153024840Y-89552580D02*
X153024840Y-82552580D01*
X158024840Y-90552580D02*
X153024840Y-89552580D01*
X148024840Y-88552580D02*
X153024840Y-89552580D01*
X148024840Y-81552580D02*
X148024840Y-88552580D01*
X153024840Y-82552580D02*
X148024840Y-81552580D01*
X158024840Y-83552580D02*
X153024840Y-82552580D01*
X162659840Y-92852580D02*
X162659840Y-80252580D01*
X143389840Y-81252580D02*
X143389840Y-92852580D01*
X147309840Y-92962580D02*
X158739840Y-92962580D01*
X147309840Y-80142580D02*
X158739840Y-80142580D01*
X116943300Y-111909500D02*
X118743300Y-111909500D01*
X118743300Y-108689500D02*
X115793300Y-108689500D01*
X133738620Y-95762580D02*
X137598620Y-95762580D01*
X137598620Y-95762580D02*
X137598620Y-95472580D01*
X133738620Y-95762580D02*
X129878620Y-95762580D01*
X129878620Y-95762580D02*
X129878620Y-95472580D01*
X133738620Y-80142580D02*
X137598620Y-80142580D01*
X137598620Y-80142580D02*
X137598620Y-80432580D01*
X133738620Y-80142580D02*
X129878620Y-80142580D01*
X129878620Y-80142580D02*
X129878620Y-80432580D01*
X129878620Y-80432580D02*
X128088620Y-80432580D01*
X124137800Y-93742300D02*
X125137800Y-93742300D01*
X124137800Y-90382300D02*
X125137800Y-90382300D01*
X124137800Y-80031800D02*
X125137800Y-80031800D01*
X124137800Y-83391800D02*
X125137800Y-83391800D01*
X116112000Y-105985600D02*
X117812000Y-105985600D01*
X121632000Y-105985600D02*
X119932000Y-105985600D01*
X121632000Y-101530037D02*
X121632000Y-105985600D01*
X116112000Y-101530037D02*
X116112000Y-105985600D01*
X117176437Y-100465600D02*
X117812000Y-100465600D01*
X120567563Y-100465600D02*
X119932000Y-100465600D01*
X120567563Y-100465600D02*
X121632000Y-101530037D01*
X117176437Y-100465600D02*
X116112000Y-101530037D01*
X120557000Y-99600600D02*
X120557000Y-100225600D01*
X120869500Y-99913100D02*
X120244500Y-99913100D01*
X140615440Y-110785680D02*
X142015440Y-110785680D01*
X142015440Y-110785680D02*
X142015440Y-112185680D01*
X142015440Y-112185680D02*
X140615440Y-112185680D01*
X140615440Y-112185680D02*
X140615440Y-110785680D01*
X140615440Y-110097800D02*
X140615440Y-108697800D01*
X142015440Y-110097800D02*
X140615440Y-110097800D01*
X142015440Y-108697800D02*
X142015440Y-110097800D01*
X140615440Y-108697800D02*
X142015440Y-108697800D01*
X151085320Y-109935240D02*
X151085320Y-108535240D01*
X152485320Y-109935240D02*
X151085320Y-109935240D01*
X152485320Y-108535240D02*
X152485320Y-109935240D01*
X151085320Y-108535240D02*
X152485320Y-108535240D01*
X151095480Y-110612960D02*
X152495480Y-110612960D01*
X152495480Y-110612960D02*
X152495480Y-112012960D01*
X152495480Y-112012960D02*
X151095480Y-112012960D01*
X151095480Y-112012960D02*
X151095480Y-110612960D01*
X151095480Y-114075440D02*
X151095480Y-112675440D01*
X152495480Y-114075440D02*
X151095480Y-114075440D01*
X152495480Y-112675440D02*
X152495480Y-114075440D01*
X151095480Y-112675440D02*
X152495480Y-112675440D01*
D13*
X127768053Y-98775780D02*
X127434720Y-98299590D01*
X127196624Y-98775780D02*
X127196624Y-97775780D01*
X127577577Y-97775780D01*
X127672815Y-97823400D01*
X127720434Y-97871019D01*
X127768053Y-97966257D01*
X127768053Y-98109114D01*
X127720434Y-98204352D01*
X127672815Y-98251971D01*
X127577577Y-98299590D01*
X127196624Y-98299590D01*
X128101386Y-97775780D02*
X128720434Y-97775780D01*
X128387100Y-98156733D01*
X128529958Y-98156733D01*
X128625196Y-98204352D01*
X128672815Y-98251971D01*
X128720434Y-98347209D01*
X128720434Y-98585304D01*
X128672815Y-98680542D01*
X128625196Y-98728161D01*
X128529958Y-98775780D01*
X128244243Y-98775780D01*
X128149005Y-98728161D01*
X128101386Y-98680542D01*
X134059633Y-98737680D02*
X133726300Y-98261490D01*
X133488204Y-98737680D02*
X133488204Y-97737680D01*
X133869157Y-97737680D01*
X133964395Y-97785300D01*
X134012014Y-97832919D01*
X134059633Y-97928157D01*
X134059633Y-98071014D01*
X134012014Y-98166252D01*
X133964395Y-98213871D01*
X133869157Y-98261490D01*
X133488204Y-98261490D01*
X134964395Y-97737680D02*
X134488204Y-97737680D01*
X134440585Y-98213871D01*
X134488204Y-98166252D01*
X134583442Y-98118633D01*
X134821538Y-98118633D01*
X134916776Y-98166252D01*
X134964395Y-98213871D01*
X135012014Y-98309109D01*
X135012014Y-98547204D01*
X134964395Y-98642442D01*
X134916776Y-98690061D01*
X134821538Y-98737680D01*
X134583442Y-98737680D01*
X134488204Y-98690061D01*
X134440585Y-98642442D01*
X130757633Y-98775780D02*
X130424300Y-98299590D01*
X130186204Y-98775780D02*
X130186204Y-97775780D01*
X130567157Y-97775780D01*
X130662395Y-97823400D01*
X130710014Y-97871019D01*
X130757633Y-97966257D01*
X130757633Y-98109114D01*
X130710014Y-98204352D01*
X130662395Y-98251971D01*
X130567157Y-98299590D01*
X130186204Y-98299590D01*
X131614776Y-97775780D02*
X131424300Y-97775780D01*
X131329061Y-97823400D01*
X131281442Y-97871019D01*
X131186204Y-98013876D01*
X131138585Y-98204352D01*
X131138585Y-98585304D01*
X131186204Y-98680542D01*
X131233823Y-98728161D01*
X131329061Y-98775780D01*
X131519538Y-98775780D01*
X131614776Y-98728161D01*
X131662395Y-98680542D01*
X131710014Y-98585304D01*
X131710014Y-98347209D01*
X131662395Y-98251971D01*
X131614776Y-98204352D01*
X131519538Y-98156733D01*
X131329061Y-98156733D01*
X131233823Y-98204352D01*
X131186204Y-98251971D01*
X131138585Y-98347209D01*
X130262333Y-76868280D02*
X129929000Y-76392090D01*
X129690904Y-76868280D02*
X129690904Y-75868280D01*
X130071857Y-75868280D01*
X130167095Y-75915900D01*
X130214714Y-75963519D01*
X130262333Y-76058757D01*
X130262333Y-76201614D01*
X130214714Y-76296852D01*
X130167095Y-76344471D01*
X130071857Y-76392090D01*
X129690904Y-76392090D01*
X130595666Y-75868280D02*
X131262333Y-75868280D01*
X130833761Y-76868280D01*
X112050533Y-109177080D02*
X111717200Y-108700890D01*
X111479104Y-109177080D02*
X111479104Y-108177080D01*
X111860057Y-108177080D01*
X111955295Y-108224700D01*
X112002914Y-108272319D01*
X112050533Y-108367557D01*
X112050533Y-108510414D01*
X112002914Y-108605652D01*
X111955295Y-108653271D01*
X111860057Y-108700890D01*
X111479104Y-108700890D01*
X113002914Y-109177080D02*
X112431485Y-109177080D01*
X112717200Y-109177080D02*
X112717200Y-108177080D01*
X112621961Y-108319938D01*
X112526723Y-108415176D01*
X112431485Y-108462795D01*
X121739253Y-107716580D02*
X121405920Y-107240390D01*
X121167824Y-107716580D02*
X121167824Y-106716580D01*
X121548777Y-106716580D01*
X121644015Y-106764200D01*
X121691634Y-106811819D01*
X121739253Y-106907057D01*
X121739253Y-107049914D01*
X121691634Y-107145152D01*
X121644015Y-107192771D01*
X121548777Y-107240390D01*
X121167824Y-107240390D01*
X122596396Y-107049914D02*
X122596396Y-107716580D01*
X122358300Y-106668961D02*
X122120205Y-107383247D01*
X122739253Y-107383247D01*
X141503495Y-93610180D02*
X141503495Y-94419704D01*
X141551114Y-94514942D01*
X141598733Y-94562561D01*
X141693971Y-94610180D01*
X141884447Y-94610180D01*
X141979685Y-94562561D01*
X142027304Y-94514942D01*
X142074923Y-94419704D01*
X142074923Y-93610180D01*
X143027304Y-93610180D02*
X142551114Y-93610180D01*
X142503495Y-94086371D01*
X142551114Y-94038752D01*
X142646352Y-93991133D01*
X142884447Y-93991133D01*
X142979685Y-94038752D01*
X143027304Y-94086371D01*
X143074923Y-94181609D01*
X143074923Y-94419704D01*
X143027304Y-94514942D01*
X142979685Y-94562561D01*
X142884447Y-94610180D01*
X142646352Y-94610180D01*
X142551114Y-94562561D01*
X142503495Y-94514942D01*
X137842666Y-103236780D02*
X137842666Y-103951066D01*
X137795047Y-104093923D01*
X137699809Y-104189161D01*
X137556952Y-104236780D01*
X137461714Y-104236780D01*
X138223619Y-103236780D02*
X138842666Y-103236780D01*
X138509333Y-103617733D01*
X138652190Y-103617733D01*
X138747428Y-103665352D01*
X138795047Y-103712971D01*
X138842666Y-103808209D01*
X138842666Y-104046304D01*
X138795047Y-104141542D01*
X138747428Y-104189161D01*
X138652190Y-104236780D01*
X138366476Y-104236780D01*
X138271238Y-104189161D01*
X138223619Y-104141542D01*
X112087066Y-74941180D02*
X112087066Y-75655466D01*
X112039447Y-75798323D01*
X111944209Y-75893561D01*
X111801352Y-75941180D01*
X111706114Y-75941180D01*
X112515638Y-75036419D02*
X112563257Y-74988800D01*
X112658495Y-74941180D01*
X112896590Y-74941180D01*
X112991828Y-74988800D01*
X113039447Y-75036419D01*
X113087066Y-75131657D01*
X113087066Y-75226895D01*
X113039447Y-75369752D01*
X112468019Y-75941180D01*
X113087066Y-75941180D01*
X112074366Y-99382780D02*
X112074366Y-100097066D01*
X112026747Y-100239923D01*
X111931509Y-100335161D01*
X111788652Y-100382780D01*
X111693414Y-100382780D01*
X113074366Y-100382780D02*
X112502938Y-100382780D01*
X112788652Y-100382780D02*
X112788652Y-99382780D01*
X112693414Y-99525638D01*
X112598176Y-99620876D01*
X112502938Y-99668495D01*
X118540304Y-96400880D02*
X118540304Y-95400880D01*
X118778400Y-95400880D01*
X118921257Y-95448500D01*
X119016495Y-95543738D01*
X119064114Y-95638976D01*
X119111733Y-95829452D01*
X119111733Y-95972309D01*
X119064114Y-96162785D01*
X119016495Y-96258023D01*
X118921257Y-96353261D01*
X118778400Y-96400880D01*
X118540304Y-96400880D01*
X120064114Y-96400880D02*
X119492685Y-96400880D01*
X119778400Y-96400880D02*
X119778400Y-95400880D01*
X119683161Y-95543738D01*
X119587923Y-95638976D01*
X119492685Y-95686595D01*
X118438704Y-93797380D02*
X118438704Y-92797380D01*
X118676800Y-92797380D01*
X118819657Y-92845000D01*
X118914895Y-92940238D01*
X118962514Y-93035476D01*
X119010133Y-93225952D01*
X119010133Y-93368809D01*
X118962514Y-93559285D01*
X118914895Y-93654523D01*
X118819657Y-93749761D01*
X118676800Y-93797380D01*
X118438704Y-93797380D01*
X119343466Y-92797380D02*
X119962514Y-92797380D01*
X119629180Y-93178333D01*
X119772038Y-93178333D01*
X119867276Y-93225952D01*
X119914895Y-93273571D01*
X119962514Y-93368809D01*
X119962514Y-93606904D01*
X119914895Y-93702142D01*
X119867276Y-93749761D01*
X119772038Y-93797380D01*
X119486323Y-93797380D01*
X119391085Y-93749761D01*
X119343466Y-93702142D01*
X118578404Y-91270080D02*
X118578404Y-90270080D01*
X118816500Y-90270080D01*
X118959357Y-90317700D01*
X119054595Y-90412938D01*
X119102214Y-90508176D01*
X119149833Y-90698652D01*
X119149833Y-90841509D01*
X119102214Y-91031985D01*
X119054595Y-91127223D01*
X118959357Y-91222461D01*
X118816500Y-91270080D01*
X118578404Y-91270080D01*
X120006976Y-90603414D02*
X120006976Y-91270080D01*
X119768880Y-90222461D02*
X119530785Y-90936747D01*
X120149833Y-90936747D01*
X118514904Y-88742780D02*
X118514904Y-87742780D01*
X118753000Y-87742780D01*
X118895857Y-87790400D01*
X118991095Y-87885638D01*
X119038714Y-87980876D01*
X119086333Y-88171352D01*
X119086333Y-88314209D01*
X119038714Y-88504685D01*
X118991095Y-88599923D01*
X118895857Y-88695161D01*
X118753000Y-88742780D01*
X118514904Y-88742780D01*
X119991095Y-87742780D02*
X119514904Y-87742780D01*
X119467285Y-88218971D01*
X119514904Y-88171352D01*
X119610142Y-88123733D01*
X119848238Y-88123733D01*
X119943476Y-88171352D01*
X119991095Y-88218971D01*
X120038714Y-88314209D01*
X120038714Y-88552304D01*
X119991095Y-88647542D01*
X119943476Y-88695161D01*
X119848238Y-88742780D01*
X119610142Y-88742780D01*
X119514904Y-88695161D01*
X119467285Y-88647542D01*
X118603804Y-86253580D02*
X118603804Y-85253580D01*
X118841900Y-85253580D01*
X118984757Y-85301200D01*
X119079995Y-85396438D01*
X119127614Y-85491676D01*
X119175233Y-85682152D01*
X119175233Y-85825009D01*
X119127614Y-86015485D01*
X119079995Y-86110723D01*
X118984757Y-86205961D01*
X118841900Y-86253580D01*
X118603804Y-86253580D01*
X120032376Y-85253580D02*
X119841900Y-85253580D01*
X119746661Y-85301200D01*
X119699042Y-85348819D01*
X119603804Y-85491676D01*
X119556185Y-85682152D01*
X119556185Y-86063104D01*
X119603804Y-86158342D01*
X119651423Y-86205961D01*
X119746661Y-86253580D01*
X119937138Y-86253580D01*
X120032376Y-86205961D01*
X120079995Y-86158342D01*
X120127614Y-86063104D01*
X120127614Y-85825009D01*
X120079995Y-85729771D01*
X120032376Y-85682152D01*
X119937138Y-85634533D01*
X119746661Y-85634533D01*
X119651423Y-85682152D01*
X119603804Y-85729771D01*
X119556185Y-85825009D01*
X118692704Y-83713580D02*
X118692704Y-82713580D01*
X118930800Y-82713580D01*
X119073657Y-82761200D01*
X119168895Y-82856438D01*
X119216514Y-82951676D01*
X119264133Y-83142152D01*
X119264133Y-83285009D01*
X119216514Y-83475485D01*
X119168895Y-83570723D01*
X119073657Y-83665961D01*
X118930800Y-83713580D01*
X118692704Y-83713580D01*
X119597466Y-82713580D02*
X120264133Y-82713580D01*
X119835561Y-83713580D01*
X118540304Y-81059280D02*
X118540304Y-80059280D01*
X118778400Y-80059280D01*
X118921257Y-80106900D01*
X119016495Y-80202138D01*
X119064114Y-80297376D01*
X119111733Y-80487852D01*
X119111733Y-80630709D01*
X119064114Y-80821185D01*
X119016495Y-80916423D01*
X118921257Y-81011661D01*
X118778400Y-81059280D01*
X118540304Y-81059280D01*
X119683161Y-80487852D02*
X119587923Y-80440233D01*
X119540304Y-80392614D01*
X119492685Y-80297376D01*
X119492685Y-80249757D01*
X119540304Y-80154519D01*
X119587923Y-80106900D01*
X119683161Y-80059280D01*
X119873638Y-80059280D01*
X119968876Y-80106900D01*
X120016495Y-80154519D01*
X120064114Y-80249757D01*
X120064114Y-80297376D01*
X120016495Y-80392614D01*
X119968876Y-80440233D01*
X119873638Y-80487852D01*
X119683161Y-80487852D01*
X119587923Y-80535471D01*
X119540304Y-80583090D01*
X119492685Y-80678328D01*
X119492685Y-80868804D01*
X119540304Y-80964042D01*
X119587923Y-81011661D01*
X119683161Y-81059280D01*
X119873638Y-81059280D01*
X119968876Y-81011661D01*
X120016495Y-80964042D01*
X120064114Y-80868804D01*
X120064114Y-80678328D01*
X120016495Y-80583090D01*
X119968876Y-80535471D01*
X119873638Y-80487852D01*
X118565704Y-78608180D02*
X118565704Y-77608180D01*
X118803800Y-77608180D01*
X118946657Y-77655800D01*
X119041895Y-77751038D01*
X119089514Y-77846276D01*
X119137133Y-78036752D01*
X119137133Y-78179609D01*
X119089514Y-78370085D01*
X119041895Y-78465323D01*
X118946657Y-78560561D01*
X118803800Y-78608180D01*
X118565704Y-78608180D01*
X119613323Y-78608180D02*
X119803800Y-78608180D01*
X119899038Y-78560561D01*
X119946657Y-78512942D01*
X120041895Y-78370085D01*
X120089514Y-78179609D01*
X120089514Y-77798657D01*
X120041895Y-77703419D01*
X119994276Y-77655800D01*
X119899038Y-77608180D01*
X119708561Y-77608180D01*
X119613323Y-77655800D01*
X119565704Y-77703419D01*
X119518085Y-77798657D01*
X119518085Y-78036752D01*
X119565704Y-78131990D01*
X119613323Y-78179609D01*
X119708561Y-78227228D01*
X119899038Y-78227228D01*
X119994276Y-78179609D01*
X120041895Y-78131990D01*
X120089514Y-78036752D01*
X145641155Y-106929940D02*
X145641155Y-107739464D01*
X145688774Y-107834702D01*
X145736393Y-107882321D01*
X145831631Y-107929940D01*
X146022107Y-107929940D01*
X146117345Y-107882321D01*
X146164964Y-107834702D01*
X146212583Y-107739464D01*
X146212583Y-106929940D01*
X146641155Y-107025179D02*
X146688774Y-106977560D01*
X146784012Y-106929940D01*
X147022107Y-106929940D01*
X147117345Y-106977560D01*
X147164964Y-107025179D01*
X147212583Y-107120417D01*
X147212583Y-107215655D01*
X147164964Y-107358512D01*
X146593536Y-107929940D01*
X147212583Y-107929940D01*
X123639414Y-99029780D02*
X123639414Y-98029780D01*
X123877509Y-98029780D01*
X124020366Y-98077400D01*
X124115604Y-98172638D01*
X124163223Y-98267876D01*
X124210842Y-98458352D01*
X124210842Y-98601209D01*
X124163223Y-98791685D01*
X124115604Y-98886923D01*
X124020366Y-98982161D01*
X123877509Y-99029780D01*
X123639414Y-99029780D01*
X125163223Y-99029780D02*
X124591795Y-99029780D01*
X124877509Y-99029780D02*
X124877509Y-98029780D01*
X124782271Y-98172638D01*
X124687033Y-98267876D01*
X124591795Y-98315495D01*
X125782271Y-98029780D02*
X125877509Y-98029780D01*
X125972747Y-98077400D01*
X126020366Y-98125019D01*
X126067985Y-98220257D01*
X126115604Y-98410733D01*
X126115604Y-98648828D01*
X126067985Y-98839304D01*
X126020366Y-98934542D01*
X125972747Y-98982161D01*
X125877509Y-99029780D01*
X125782271Y-99029780D01*
X125687033Y-98982161D01*
X125639414Y-98934542D01*
X125591795Y-98839304D01*
X125544176Y-98648828D01*
X125544176Y-98410733D01*
X125591795Y-98220257D01*
X125639414Y-98125019D01*
X125687033Y-98077400D01*
X125782271Y-98029780D01*
X141401895Y-80325520D02*
X141401895Y-81135044D01*
X141449514Y-81230282D01*
X141497133Y-81277901D01*
X141592371Y-81325520D01*
X141782847Y-81325520D01*
X141878085Y-81277901D01*
X141925704Y-81230282D01*
X141973323Y-81135044D01*
X141973323Y-80325520D01*
X142354276Y-80325520D02*
X142973323Y-80325520D01*
X142639990Y-80706473D01*
X142782847Y-80706473D01*
X142878085Y-80754092D01*
X142925704Y-80801711D01*
X142973323Y-80896949D01*
X142973323Y-81135044D01*
X142925704Y-81230282D01*
X142878085Y-81277901D01*
X142782847Y-81325520D01*
X142497133Y-81325520D01*
X142401895Y-81277901D01*
X142354276Y-81230282D01*
X117925861Y-108548419D02*
X117830623Y-108500800D01*
X117735385Y-108405561D01*
X117592528Y-108262704D01*
X117497290Y-108215085D01*
X117402052Y-108215085D01*
X117449671Y-108453180D02*
X117354433Y-108405561D01*
X117259195Y-108310323D01*
X117211576Y-108119847D01*
X117211576Y-107786514D01*
X117259195Y-107596038D01*
X117354433Y-107500800D01*
X117449671Y-107453180D01*
X117640147Y-107453180D01*
X117735385Y-107500800D01*
X117830623Y-107596038D01*
X117878242Y-107786514D01*
X117878242Y-108119847D01*
X117830623Y-108310323D01*
X117735385Y-108405561D01*
X117640147Y-108453180D01*
X117449671Y-108453180D01*
X118830623Y-108453180D02*
X118259195Y-108453180D01*
X118544909Y-108453180D02*
X118544909Y-107453180D01*
X118449671Y-107596038D01*
X118354433Y-107691276D01*
X118259195Y-107738895D01*
X132786215Y-78997560D02*
X132786215Y-79807084D01*
X132833834Y-79902322D01*
X132881453Y-79949941D01*
X132976691Y-79997560D01*
X133167167Y-79997560D01*
X133262405Y-79949941D01*
X133310024Y-79902322D01*
X133357643Y-79807084D01*
X133357643Y-78997560D01*
X134262405Y-79330894D02*
X134262405Y-79997560D01*
X134024310Y-78949941D02*
X133786215Y-79664227D01*
X134405262Y-79664227D01*
X123934623Y-89961980D02*
X123601290Y-89485790D01*
X123363195Y-89961980D02*
X123363195Y-88961980D01*
X123744147Y-88961980D01*
X123839385Y-89009600D01*
X123887004Y-89057219D01*
X123934623Y-89152457D01*
X123934623Y-89295314D01*
X123887004Y-89390552D01*
X123839385Y-89438171D01*
X123744147Y-89485790D01*
X123363195Y-89485790D01*
X124363195Y-89961980D02*
X124363195Y-88961980D01*
X124934623Y-89961980D01*
X124934623Y-88961980D01*
X125934623Y-89961980D02*
X125363195Y-89961980D01*
X125648909Y-89961980D02*
X125648909Y-88961980D01*
X125553671Y-89104838D01*
X125458433Y-89200076D01*
X125363195Y-89247695D01*
X123934623Y-79662280D02*
X123601290Y-79186090D01*
X123363195Y-79662280D02*
X123363195Y-78662280D01*
X123744147Y-78662280D01*
X123839385Y-78709900D01*
X123887004Y-78757519D01*
X123934623Y-78852757D01*
X123934623Y-78995614D01*
X123887004Y-79090852D01*
X123839385Y-79138471D01*
X123744147Y-79186090D01*
X123363195Y-79186090D01*
X124363195Y-79662280D02*
X124363195Y-78662280D01*
X124934623Y-79662280D01*
X124934623Y-78662280D01*
X125363195Y-78757519D02*
X125410814Y-78709900D01*
X125506052Y-78662280D01*
X125744147Y-78662280D01*
X125839385Y-78709900D01*
X125887004Y-78757519D01*
X125934623Y-78852757D01*
X125934623Y-78947995D01*
X125887004Y-79090852D01*
X125315576Y-79662280D01*
X125934623Y-79662280D01*
X118718033Y-98985342D02*
X118670414Y-99032961D01*
X118527557Y-99080580D01*
X118432319Y-99080580D01*
X118289461Y-99032961D01*
X118194223Y-98937723D01*
X118146604Y-98842485D01*
X118098985Y-98652009D01*
X118098985Y-98509152D01*
X118146604Y-98318676D01*
X118194223Y-98223438D01*
X118289461Y-98128200D01*
X118432319Y-98080580D01*
X118527557Y-98080580D01*
X118670414Y-98128200D01*
X118718033Y-98175819D01*
X119670414Y-99080580D02*
X119098985Y-99080580D01*
X119384700Y-99080580D02*
X119384700Y-98080580D01*
X119289461Y-98223438D01*
X119194223Y-98318676D01*
X119098985Y-98366295D01*
X140038295Y-112624620D02*
X140609723Y-112624620D01*
X140324009Y-113624620D02*
X140324009Y-112624620D01*
X140943057Y-113624620D02*
X140943057Y-112624620D01*
X141324009Y-112624620D01*
X141419247Y-112672240D01*
X141466866Y-112719859D01*
X141514485Y-112815097D01*
X141514485Y-112957954D01*
X141466866Y-113053192D01*
X141419247Y-113100811D01*
X141324009Y-113148430D01*
X140943057Y-113148430D01*
X141895438Y-112719859D02*
X141943057Y-112672240D01*
X142038295Y-112624620D01*
X142276390Y-112624620D01*
X142371628Y-112672240D01*
X142419247Y-112719859D01*
X142466866Y-112815097D01*
X142466866Y-112910335D01*
X142419247Y-113053192D01*
X141847819Y-113624620D01*
X142466866Y-113624620D01*
X140053535Y-107402180D02*
X140624963Y-107402180D01*
X140339249Y-108402180D02*
X140339249Y-107402180D01*
X140958297Y-108402180D02*
X140958297Y-107402180D01*
X141339249Y-107402180D01*
X141434487Y-107449800D01*
X141482106Y-107497419D01*
X141529725Y-107592657D01*
X141529725Y-107735514D01*
X141482106Y-107830752D01*
X141434487Y-107878371D01*
X141339249Y-107925990D01*
X140958297Y-107925990D01*
X142482106Y-108402180D02*
X141910678Y-108402180D01*
X142196392Y-108402180D02*
X142196392Y-107402180D01*
X142101154Y-107545038D01*
X142005916Y-107640276D01*
X141910678Y-107687895D01*
X152916095Y-108738420D02*
X153487523Y-108738420D01*
X153201809Y-109738420D02*
X153201809Y-108738420D01*
X153820857Y-109738420D02*
X153820857Y-108738420D01*
X154201809Y-108738420D01*
X154297047Y-108786040D01*
X154344666Y-108833659D01*
X154392285Y-108928897D01*
X154392285Y-109071754D01*
X154344666Y-109166992D01*
X154297047Y-109214611D01*
X154201809Y-109262230D01*
X153820857Y-109262230D01*
X154725619Y-108738420D02*
X155344666Y-108738420D01*
X155011333Y-109119373D01*
X155154190Y-109119373D01*
X155249428Y-109166992D01*
X155297047Y-109214611D01*
X155344666Y-109309849D01*
X155344666Y-109547944D01*
X155297047Y-109643182D01*
X155249428Y-109690801D01*
X155154190Y-109738420D01*
X154868476Y-109738420D01*
X154773238Y-109690801D01*
X154725619Y-109643182D01*
X152936415Y-110826300D02*
X153507843Y-110826300D01*
X153222129Y-111826300D02*
X153222129Y-110826300D01*
X153841177Y-111826300D02*
X153841177Y-110826300D01*
X154222129Y-110826300D01*
X154317367Y-110873920D01*
X154364986Y-110921539D01*
X154412605Y-111016777D01*
X154412605Y-111159634D01*
X154364986Y-111254872D01*
X154317367Y-111302491D01*
X154222129Y-111350110D01*
X153841177Y-111350110D01*
X155269748Y-111159634D02*
X155269748Y-111826300D01*
X155031653Y-110778681D02*
X154793558Y-111492967D01*
X155412605Y-111492967D01*
X153093895Y-112898940D02*
X153665323Y-112898940D01*
X153379609Y-113898940D02*
X153379609Y-112898940D01*
X153998657Y-113898940D02*
X153998657Y-112898940D01*
X154379609Y-112898940D01*
X154474847Y-112946560D01*
X154522466Y-112994179D01*
X154570085Y-113089417D01*
X154570085Y-113232274D01*
X154522466Y-113327512D01*
X154474847Y-113375131D01*
X154379609Y-113422750D01*
X153998657Y-113422750D01*
X155474847Y-112898940D02*
X154998657Y-112898940D01*
X154951038Y-113375131D01*
X154998657Y-113327512D01*
X155093895Y-113279893D01*
X155331990Y-113279893D01*
X155427228Y-113327512D01*
X155474847Y-113375131D01*
X155522466Y-113470369D01*
X155522466Y-113708464D01*
X155474847Y-113803702D01*
X155427228Y-113851321D01*
X155331990Y-113898940D01*
X155093895Y-113898940D01*
X154998657Y-113851321D01*
X154951038Y-113803702D01*
M02*
